<svg width="132" height="52" viewBox="0 0 132 52" fill="none" xmlns="http://www.w3.org/2000/svg">
<g clip-path="url(#clip0_45_301)">
<path d="M1.21755 20.2286C0.371164 22.6554 0.434803 23.3467 1.13907 23.7915C1.84121 24.2364 2.86154 23.9711 3.69944 23.094C7.74896 18.8523 11.4697 18.7229 14.4289 19.4517C18.1284 20.1806 19.609 20.9095 22.5682 19.8151C25.1583 18.7229 26.6368 14.7151 28.4887 13.6229C30.3384 12.5306 33.5458 13.5101 35.8877 13.2595C36.4837 13.1655 36.8125 12.729 36.7213 12.4408C36.6301 12.1526 36.2886 11.7975 35.8877 11.4383C30.0669 6.47199 22.7591 5.01634 16.2277 6.62654C9.69629 8.23882 3.93915 12.919 1.21755 20.2286Z" fill="#FFCDB4"/>
<path d="M39.4621 16.5362C38.5499 14.7402 37.6611 13.3764 36.6302 12.2466C36.6705 12.3134 36.7023 12.3781 36.7235 12.4387C36.8147 12.7269 36.4859 13.1634 35.8899 13.2574C33.5458 13.5101 30.3406 12.5285 28.4908 13.6208C26.6411 14.713 25.1604 18.7208 22.5704 19.813C19.6112 20.9053 18.1305 20.1764 14.431 19.4496C11.4719 18.7208 7.75114 18.8523 3.70163 23.0919C2.86372 23.969 1.84339 24.2343 1.14125 23.7894C0.789115 23.566 0.596079 23.2799 0.600322 22.7431C0.294858 24.0693 0.106065 25.4811 0.0275777 27.0975C-0.154852 30.8066 0.767903 34.7475 1.98764 34.7475C4.46741 34.7475 5.57683 28.1919 9.27634 27.0975C12.6386 26.1055 16.3062 28.8456 20.3748 28.1898C24.0531 27.5988 26.2953 21.2687 31.4734 20.9053C35.1813 20.6442 39.9542 23.071 40.7221 21.559C41.0912 20.8301 40.353 18.2801 39.4642 16.5342L39.4621 16.5362Z" fill="#F9AA86"/>
<path d="M40.8113 21.1079C40.8028 21.2937 40.7752 21.4504 40.7179 21.5631C39.95 23.0752 35.1772 20.6484 31.4692 20.9095C26.289 21.2728 24.0468 27.6029 20.3707 28.194C16.3021 28.8477 12.6344 26.1076 9.27215 27.1017C5.57265 28.194 4.46322 34.7517 1.98345 34.7517C1.65677 34.7517 1.34919 34.4656 1.08191 33.979C1.38949 34.6744 1.72253 35.23 1.95375 35.5683C2.59014 36.4998 3.63805 37.9303 4.80262 38.7657C6.00539 39.6283 7.35876 40.1399 8.37485 39.9165L8.43001 39.9018C10.2713 39.3296 11.1007 37.2286 12.7871 35.5725C14.3208 34.0667 16.0114 33.4109 18.0903 33.6595C20.8734 33.9477 23.1347 34.2818 25.8605 33.2961C27.8694 32.5693 29.9291 30.0172 31.781 28.5615C32.5977 27.9183 33.6456 27.6113 34.3711 27.4693C36.2208 27.1059 39.0676 27.9642 40.3064 26.0867C41.0213 24.7439 41.0849 22.883 40.8155 21.1141L40.8113 21.1079Z" fill="#EC6F3B"/>
<path d="M36.0171 36.5958C37.2308 36.5958 38.2147 35.6271 38.2147 34.4322C38.2147 33.2372 37.2308 32.2685 36.0171 32.2685C34.8034 32.2685 33.8195 33.2372 33.8195 34.4322C33.8195 35.6271 34.8034 36.5958 36.0171 36.5958Z" fill="#FFAE8A"/>
<path d="M39.443 32.233C40.3029 32.233 41 31.5467 41 30.7001C41 29.8535 40.3029 29.1672 39.443 29.1672C38.5831 29.1672 37.886 29.8535 37.886 30.7001C37.886 31.5467 38.5831 32.233 39.443 32.233Z" fill="#FFBD9F"/>
<path d="M38.4226 40C39.1302 40 39.7039 39.4352 39.7039 38.7386C39.7039 38.0419 39.1302 37.4771 38.4226 37.4771C37.715 37.4771 37.1414 38.0419 37.1414 38.7386C37.1414 39.4352 37.715 40 38.4226 40Z" fill="#FFCEB5"/>
</g>
<g clip-path="url(#clip1_45_301)">
<path d="M58.7579 8.01987H57.7364C57.6007 8.01987 57.4364 7.88357 57.4364 7.68272C57.4364 7.48186 57.6007 7.36709 57.7364 7.36709H58.5936C59.058 7.36709 59.2794 7.05146 59.2794 6.55649V6.32694C59.2794 6.21217 59.1794 6.11174 59.0651 6.11174H56.3149V8.04139C56.3149 8.1992 56.1577 8.37136 55.9505 8.37136C55.722 8.37136 55.5791 8.1992 55.5791 8.04139V6.11174H55.4791C54.7362 7.31687 53.4646 8.10595 52.1074 8.24224H52.0716C51.9145 8.24224 51.7716 8.14181 51.7716 7.94096C51.7716 7.76162 51.8716 7.62533 52.0216 7.60381C53.2932 7.46751 54.179 6.95103 54.7719 6.10457H52.7717C52.4002 6.10457 52.1145 5.81763 52.1145 5.44461V4.61967C52.1145 4.24665 52.4074 3.94537 52.7717 3.94537H55.5719V3.03435H52.3002C52.1859 3.03435 52.0359 2.91958 52.0359 2.72589C52.0359 2.55373 52.1788 2.43896 52.3002 2.43896H59.1151C59.4866 2.43896 59.7866 2.72589 59.7866 3.09891V3.88081C59.7866 4.25383 59.4866 4.55511 59.1151 4.55511H56.322V5.50917H59.358C59.7295 5.50917 60.0152 5.81046 60.0152 6.18347V6.6354C60.0152 7.43165 59.6437 8.01269 58.7579 8.01269V8.01987ZM55.5434 1.03297H54.5933L54.8076 1.96551C54.8076 1.96551 54.8147 2.00855 54.8147 2.03007C54.8147 2.19506 54.6576 2.33853 54.4718 2.33853C54.2718 2.33853 54.1647 2.2668 54.1218 2.08746L53.8789 1.03297H53.1003C52.9574 1.37729 52.786 1.70727 52.586 1.96551C52.5288 2.05877 52.4288 2.10181 52.2859 2.10181C52.0716 2.10181 51.9216 1.94399 51.9216 1.78618C51.9216 1.72879 51.9431 1.67858 51.9788 1.62119C52.2431 1.241 52.4931 0.69582 52.6003 0.243896C52.636 0.114774 52.7931 0 52.9431 0C53.1789 0 53.3217 0.172162 53.3217 0.329977C53.3217 0.351497 53.3146 0.365844 53.3146 0.387364C53.3146 0.408884 53.3146 0.423231 53.3075 0.430404H55.5362C55.6577 0.430404 55.8077 0.559525 55.8077 0.731687C55.8077 0.925369 55.6505 1.04014 55.5362 1.04014L55.5434 1.03297ZM55.5862 4.56228H53.0646C52.9503 4.56228 52.8574 4.64119 52.8574 4.77031V5.30832C52.8574 5.43744 52.9503 5.51635 53.0646 5.51635H55.5862V4.56228ZM59.808 1.03297H58.6651L58.9151 1.95117V1.98703C58.9151 2.15919 58.7865 2.32418 58.5651 2.33136C58.3865 2.33136 58.2579 2.25962 58.215 2.08029L57.9507 1.04014H57.0721C56.9292 1.38447 56.7435 1.71444 56.5506 1.97269C56.4935 2.06594 56.3934 2.10898 56.2506 2.10898C56.0506 2.10898 55.9005 1.95117 55.9005 1.79335C55.9005 1.73596 55.922 1.68575 55.9577 1.62836C56.2291 1.24817 56.4649 0.702994 56.5792 0.251069C56.5935 0.121948 56.7578 0.0071734 56.9435 0.0071734C57.1721 0.0071734 57.3078 0.200855 57.3078 0.35867C57.3078 0.38019 57.3007 0.423231 57.2864 0.430404H59.808C59.9366 0.430404 60.0795 0.559525 60.0795 0.731687C60.0795 0.925369 59.9366 1.04014 59.808 1.04014V1.03297ZM59.0508 3.2639C59.0508 3.13478 58.958 3.0487 58.8365 3.0487H56.322V3.95972H58.8365C58.9651 3.95972 59.0508 3.88081 59.0508 3.75169V3.27107V3.2639Z" fill="#D9D9D9"/>
<path d="M67.5801 1.64988C65.6085 3.06304 64.5798 5.64547 64.2084 7.69706C64.1727 7.89792 64.1155 8.07725 63.7583 8.07725C63.4869 8.07725 63.394 7.91226 63.394 7.7401V7.69706C63.7583 5.27245 65.137 2.86219 66.6014 1.54946C66.63 1.52076 66.6586 1.49207 66.6586 1.47055C66.6586 1.44903 66.63 1.42751 66.5586 1.42751H62.0367C61.801 1.42751 61.651 1.32708 61.651 1.04014C61.651 0.753207 61.7939 0.638433 62.0296 0.638433H67.4872C67.7301 0.638433 67.8873 0.746034 67.8873 1.06166C67.8873 1.34143 67.7873 1.49924 67.5801 1.64988Z" fill="#D9D9D9"/>
<path d="M72.3448 8.01987H71.3948C69.8589 8.01987 68.866 7.55359 68.866 6.29825C68.866 6.10457 68.9303 5.94675 69.266 5.94675C69.566 5.94675 69.6518 6.09022 69.6518 6.25521C69.6518 7.01559 70.2732 7.24514 71.4305 7.24514H72.3448C73.6307 7.24514 74.145 6.86495 74.145 5.9324V5.38723C74.145 4.4762 73.645 4.01711 72.3448 4.01711H71.5233C70.6376 4.01711 70.1947 4.261 69.8589 4.59098C69.6875 4.76314 69.5875 4.79183 69.3732 4.79183C69.0374 4.79183 68.9445 4.68423 68.9445 4.41164V1.31273C68.9445 0.875155 69.1588 0.631259 69.6232 0.631259H74.4379C74.6665 0.631259 74.8236 0.746034 74.8236 1.01862C74.8236 1.30556 74.6593 1.42033 74.4379 1.42033H69.9732C69.7946 1.42033 69.7232 1.51359 69.7232 1.66423V3.68713C69.7232 3.75169 69.7303 3.78038 69.7803 3.78038C69.8018 3.78038 69.8232 3.75886 69.8589 3.723C70.2732 3.43606 70.8447 3.2352 71.5233 3.2352H72.3448C74.245 3.2352 74.9379 3.96689 74.9379 5.38005V5.92523C74.9379 7.43165 74.1164 8.01987 72.3448 8.01987Z" fill="#D9D9D9"/>
<path d="M83.7673 8.14899H77.4668C77.081 8.14899 76.7953 7.8477 76.7953 7.48903V0.925369C76.7953 0.552352 77.0739 0.251069 77.4668 0.251069H83.7673C84.1459 0.251069 84.4388 0.552352 84.4388 0.925369V7.48903C84.4388 7.85488 84.1459 8.14899 83.7673 8.14899ZM83.7388 1.16926C83.7388 1.04014 83.6316 0.939716 83.5102 0.939716H77.7168C77.5954 0.939716 77.4882 1.04014 77.4882 1.16926V7.26666C77.4882 7.38143 77.5954 7.48186 77.7168 7.48186H83.5102C83.6245 7.48186 83.7388 7.38143 83.7388 7.26666V1.16926ZM81.9315 6.29825H79.3027C78.924 6.29825 78.6312 5.99697 78.6312 5.62395V2.79045C78.6312 2.42461 78.9169 2.1305 79.3027 2.1305H81.9315C82.3101 2.1305 82.6029 2.43178 82.6029 2.79045V5.62395C82.6029 5.99697 82.3172 6.29825 81.9315 6.29825ZM81.9029 3.01283C81.9029 2.88371 81.81 2.78328 81.6957 2.78328H79.5384C79.4241 2.78328 79.3312 2.88371 79.3312 3.01283V5.43027C79.3312 5.54504 79.4241 5.64547 79.5384 5.64547H81.6957C81.8172 5.64547 81.9029 5.54504 81.9029 5.43027V3.01283Z" fill="#D9D9D9"/>
<path d="M52.4502 36.5126C52.3359 36.8211 52.0644 37.0435 51.7001 37.0435C51.2572 37.0435 51.0072 36.6776 51.0072 36.2902C51.0072 36.2329 51.0358 36.1755 51.0358 36.1253C51.3429 34.3391 51.6215 32.7179 51.6215 28.8012C51.6215 28.4928 51.9001 28.1341 52.343 28.1341C52.8717 28.1341 53.1217 28.5501 53.1217 28.8873C53.1217 33.0766 52.9859 34.9488 52.4502 36.5126ZM61.5153 14.1029H58.3721V16.6997H61.1795C61.5724 16.6997 61.9296 16.9794 61.9296 17.4816C61.9296 17.9837 61.5653 18.2635 61.1795 18.2635H58.3721V20.8603H61.1795C61.5724 20.8603 61.9296 21.14 61.9296 21.6709C61.9296 22.173 61.5653 22.4528 61.1795 22.4528H58.3721V25.1069H60.1009C61.1867 25.1069 62.051 25.9749 62.051 27.1442V32.3162C62.051 35.2214 60.6581 36.9574 57.7649 36.9574H56.5434C56.0719 36.9574 55.6505 36.5628 55.6505 35.9531C55.6505 35.4797 55.9862 35.0062 56.5434 35.0062H57.6292C59.3008 35.0062 60.2723 34.253 60.2723 31.9288V27.5674C60.2723 27.1729 59.9651 26.9003 59.6008 26.9003H53.7289C52.6145 26.9003 51.7501 26.0036 51.7501 24.8056V14.3253C51.7501 13.1775 52.6145 12.2593 53.7289 12.2593H61.5224C61.8867 12.2593 62.3296 12.5965 62.3296 13.156C62.3296 13.7729 61.8867 14.1029 61.5224 14.1029H61.5153ZM56.5934 14.1029H54.3146C53.9217 14.1029 53.6431 14.3827 53.6431 14.77V16.6997H56.5934V14.1029ZM56.5934 18.2635H53.6431V20.8603H56.5934V18.2635ZM56.5934 22.4528H53.6431V24.4398C53.6431 24.8056 53.9217 25.1069 54.2861 25.1069H56.5934V22.4528ZM54.5932 33.3563C54.2003 33.3563 53.9789 33.0192 53.9789 32.7394V28.7438C53.9789 28.4641 54.2003 28.1843 54.5932 28.1843C54.929 28.1843 55.1504 28.4641 55.1504 28.7438V32.7394C55.1504 33.0192 54.929 33.3563 54.5932 33.3563ZM56.622 33.3563C56.2577 33.3563 56.0362 33.0192 56.0362 32.7394V28.7438C56.0362 28.4641 56.2577 28.1843 56.622 28.1843C56.9577 28.1843 57.1792 28.4641 57.1792 28.7438V32.7394C57.1792 33.0192 56.9577 33.3563 56.622 33.3563ZM58.6507 33.3563C58.2864 33.3563 58.065 33.0192 58.065 32.7394V28.7438C58.065 28.4641 58.2864 28.1843 58.6507 28.1843C58.9865 28.1843 59.2079 28.4641 59.2079 28.7438V32.7394C59.2079 33.0192 58.9865 33.3563 58.6507 33.3563ZM70.8947 36.9574H69.1159C68.673 36.9574 68.1944 36.5413 68.1944 35.7809C68.1944 35.1927 68.6945 34.834 69.0874 34.834H70.6446C72.1448 34.834 73.3163 33.6361 73.3163 32.0651V16.0254C73.3163 15.6595 73.0377 15.3583 72.6734 15.3583H66.8015C66.1871 17.4816 65.0727 19.6336 63.4869 21.0324C63.3511 21.1687 63.1511 21.2261 62.9868 21.2261C62.4868 21.2261 61.9867 20.7813 61.9867 20.0497C61.9867 19.7125 62.151 19.3825 62.3511 19.2104C64.0226 17.6466 64.9941 15.5519 65.2156 12.4172C65.2442 11.8289 65.6871 11.4416 66.2728 11.4416C66.9943 11.4416 67.3015 11.9724 67.3015 12.4745V12.5893C67.3015 12.8404 67.2729 13.0915 67.2158 13.3425H73.2234C74.3664 13.3425 75.2522 14.2392 75.2522 15.4085V32.5386C75.2522 35.0564 73.502 36.9502 70.8804 36.9502L70.8947 36.9574ZM69.2517 33.2989H66.1085C64.9941 33.2989 64.1584 32.4023 64.1584 31.2904V21.6493C64.1584 20.5016 64.9941 19.6121 66.1085 19.6121H69.2517C70.3661 19.6121 71.2018 20.5088 71.2018 21.6493V31.2904C71.2018 32.4094 70.3661 33.2989 69.2517 33.2989ZM69.5017 22.2304C69.5017 21.8358 69.1945 21.5633 68.8373 21.5633H66.5514C66.1871 21.5633 65.8871 21.843 65.8871 22.2304V30.7237C65.8871 31.0895 66.1943 31.3908 66.5514 31.3908H68.8373C69.2017 31.3908 69.5017 31.0824 69.5017 30.7237V22.2304Z" fill="#D9D9D9"/>
<path d="M85.7245 33.9948C84.4173 34.7193 80.9098 36.0033 79.4668 36.0033C78.9382 36.0033 78.5739 35.5873 78.5739 34.999C78.5739 34.4682 78.7953 34.0737 79.3525 33.9948C79.9954 33.9087 80.6026 33.7437 81.1884 33.6002V19.8488H79.4097C78.9953 19.8488 78.4882 19.4327 78.4882 18.7584C78.4882 18.1415 78.9882 17.7255 79.4097 17.7255H81.1884V12.3885C81.1884 11.9437 81.6027 11.4631 82.2456 11.4631C82.8885 11.4631 83.2743 11.9365 83.2743 12.3885V17.7255H85.0245C85.4673 17.7255 85.9745 18.1415 85.9745 18.7584C85.9745 19.4256 85.4745 19.8488 85.0245 19.8488H83.2743V32.8972C83.8601 32.6462 84.4458 32.3951 84.9744 32.0579C85.1102 32.0006 85.253 31.9719 85.3673 31.9719C85.8674 31.9719 86.2888 32.3664 86.2888 33.0048C86.2888 33.4783 86.0674 33.7867 85.7317 33.9804L85.7245 33.9948ZM103.34 25.2504H93.5752C93.268 26.0036 92.8251 26.7066 92.2679 27.3737H101.84C102.983 27.3737 103.869 28.2417 103.869 29.4396V33.1555C103.869 35.4223 102.59 36.9287 100.583 36.9287H98.7757C98.3613 36.9287 97.9399 36.5628 97.9399 36.0033C97.9399 35.4438 98.3542 35.1066 98.7757 35.1066H100.197C101.312 35.1066 102.005 34.3247 102.005 33.0981V29.827C102.005 29.4612 101.726 29.1814 101.362 29.1814H100.333C98.9971 33.3994 95.4897 36.1396 91.7608 36.8067C91.7036 36.8067 91.6465 36.8354 91.5965 36.8354C91.0678 36.8354 90.7321 36.3333 90.7321 35.8885C90.7321 35.494 90.8964 35.1353 91.3179 35.0493C94.7967 34.3247 97.4398 31.9503 98.4685 29.1814H95.7397C94.3467 32.0292 90.6464 34.4036 87.7247 34.8269H87.6175C87.0603 34.8269 86.696 34.296 86.696 33.8513C86.696 33.3778 87.0318 33.012 87.3889 32.9546C90.0892 32.4525 92.5894 30.8313 93.7038 29.1814H90.3106C89.7534 29.5975 88.2819 30.4654 87.5532 30.4654C87.0246 30.4654 86.5817 29.9633 86.5817 29.4325C86.5817 28.959 86.8889 28.6506 87.2461 28.5358C89.2748 27.9476 90.8107 26.6348 91.4464 25.236H87.4675C87.0532 25.236 86.6317 24.8989 86.6317 24.2891C86.6317 23.787 87.0461 23.4212 87.4675 23.4212H103.326C103.712 23.4212 104.133 23.787 104.133 24.2891C104.133 24.9061 103.719 25.236 103.326 25.236L103.34 25.2504ZM101.054 21.3409H89.7034C88.5605 21.3409 87.6747 20.4729 87.6747 19.2749V14.354C87.6747 13.156 88.5676 12.2593 89.7034 12.2593H101.054C102.197 12.2593 103.083 13.156 103.083 14.354V19.2749C103.083 20.4729 102.19 21.3409 101.054 21.3409ZM101.004 14.6337C101.004 14.2679 100.726 13.9666 100.362 13.9666H90.4249C90.032 13.9666 89.7534 14.2751 89.7534 14.6337V16.0039H100.997V14.6337H101.004ZM101.004 17.5964H89.7606V18.9952C89.7606 19.361 90.0392 19.6623 90.4321 19.6623H100.369C100.733 19.6623 101.012 19.3538 101.012 18.9952V17.5964H101.004Z" fill="#D9D9D9"/>
<path d="M130.914 24.6048C129.693 24.6048 126.85 22.8473 125.878 22.1156C126.014 22.3093 126.1 22.5604 126.1 22.8114C126.1 23.3996 125.735 23.8731 125.178 23.8731H113.377C112.82 23.8731 112.455 23.3709 112.455 22.7827C112.455 22.7253 112.484 22.6464 112.513 22.5604C111.427 23.2275 108.669 24.6837 107.391 24.6837C106.776 24.6837 106.362 24.2891 106.362 23.5359C106.362 23.0338 106.584 22.6966 107.026 22.589C108.198 22.3093 109.334 21.8932 110.42 21.3911L108.027 17.9263C107.748 18.0124 107.498 18.1487 107.191 18.1487C106.634 18.1487 106.219 17.704 106.219 17.087C106.219 16.671 106.469 16.3338 106.862 16.1904C108.477 15.6595 110.005 14.6553 110.898 13.651C111.591 12.8404 112.398 12.2522 113.427 12.2522H119.242C120.385 12.2522 121.049 12.8691 121.499 13.9021C122.192 15.5519 123.499 17.252 125.114 18.7656C127.507 16.9508 128.45 15.0211 128.45 14.5477C128.45 14.3253 128.285 14.1029 127.921 14.1029H124.057C123.721 14.1029 123.249 13.7371 123.249 13.1775C123.249 12.618 123.721 12.2522 124.057 12.2522H128.871C129.9 12.2522 130.65 13.0054 130.65 13.8447C130.65 15.2435 129.121 17.955 126.557 19.9636C128.028 21.0826 129.7 22.0295 131.4 22.6177C131.736 22.7325 131.986 23.0912 131.986 23.5431C131.986 24.1313 131.571 24.6048 130.9 24.6048H130.914ZM130.857 28.9375H120.728V33.8585C120.728 35.8455 119.835 36.9287 117.67 36.9287H114.834C114.363 36.9287 113.913 36.4839 113.913 35.7809C113.913 35.0779 114.356 34.6906 114.834 34.6906H117.392C118.056 34.6906 118.477 34.2171 118.477 33.6002V28.9303H107.484C106.984 28.9303 106.562 28.4282 106.562 27.84C106.562 27.2518 106.976 26.807 107.484 26.807H130.857C131.386 26.807 131.779 27.2805 131.779 27.84C131.779 28.3995 131.414 28.9303 130.857 28.9303V28.9375ZM112.827 31.6204C111.884 33.3778 110.491 35.2501 108.791 36.6202C108.569 36.8139 108.291 36.8713 108.012 36.8713C107.455 36.8713 107.062 36.3692 107.062 35.8383C107.062 35.4725 107.226 35.1927 107.455 35.0277C109.205 33.6863 110.32 31.979 111.213 30.4439C111.434 30.0494 111.655 29.9131 112.134 29.9131C112.498 29.9131 113.027 30.2502 113.027 30.8887C113.027 31.0824 112.97 31.3334 112.834 31.6132L112.827 31.6204ZM111.491 15.7456C110.877 16.3051 110.155 16.836 109.405 17.252L111.798 20.6594C112.606 20.1573 113.384 19.6264 114.084 19.0382L111.498 15.7384L111.491 15.7456ZM113.577 14.1029C113.27 14.1029 112.827 14.354 112.52 14.6624L115.191 18.0411C116.363 16.8432 117.335 15.5017 118.027 14.1029H113.577ZM119.785 14.9924C118.535 17.5103 116.306 19.9349 113.691 21.7856H125.185C125.321 21.7856 125.435 21.8143 125.55 21.8717C123.021 19.8847 120.878 17.2879 119.792 14.9996L119.785 14.9924ZM130.021 36.9287C129.743 36.9287 129.464 36.8139 129.271 36.5915L125.378 31.6491C125.242 31.4841 125.157 31.2545 125.157 30.9532C125.157 30.365 125.685 29.9203 126.214 29.9203C126.464 29.9203 126.714 30.035 126.907 30.2861L130.857 35.2071C130.993 35.4007 131.05 35.6016 131.05 35.824C131.05 36.4122 130.657 36.943 130.021 36.943V36.9287Z" fill="#D9D9D9"/>
<path d="M100.076 47.0145H97.6469V47.6816L100.09 49.64C100.204 49.7404 100.254 49.8695 100.254 49.9986C100.254 50.3214 100.04 50.5008 99.8329 50.5008C99.7471 50.5008 99.6686 50.4721 99.59 50.4147L97.6398 48.7289V51.5768C97.6398 51.7848 97.4469 52.0144 97.154 52.0144C96.8612 52.0144 96.6469 51.7848 96.6469 51.5768V48.5209C96.0897 49.6041 95.261 50.6299 94.4181 51.1894C94.3395 51.254 94.2681 51.2755 94.1752 51.2755C93.9609 51.2755 93.7395 51.0675 93.7395 50.7733C93.7395 50.6299 93.8038 50.4936 93.918 50.4147C95.1039 49.6471 96.0825 48.3416 96.5397 47.0145H94.1109C93.9038 47.0145 93.6895 46.8351 93.6895 46.541C93.6895 46.2756 93.9038 46.0819 94.1109 46.0819H96.6469V45.5081C96.6469 45.3 96.854 45.0633 97.154 45.0633C97.4541 45.0633 97.6398 45.3072 97.6398 45.5081V46.0819H100.069C100.261 46.0819 100.49 46.2756 100.49 46.541C100.49 46.8351 100.261 47.0145 100.069 47.0145H100.076ZM100.219 41.2829C98.8185 41.742 96.4468 41.9357 94.1109 41.9357C93.868 41.9357 93.718 41.7277 93.718 41.4766C93.718 41.2256 93.8823 41.0175 94.1109 41.0175C96.3254 41.0175 98.7185 40.8525 100.004 40.3934C100.04 40.3791 100.083 40.3647 100.119 40.3647C100.361 40.3647 100.511 40.6302 100.511 40.8382C100.511 41.0534 100.397 41.2327 100.219 41.2829ZM95.111 45.0059C94.8681 45.0059 94.7038 44.8768 94.6895 44.676C94.6253 44.059 94.461 43.3561 94.2824 42.7965C94.2681 42.7607 94.2681 42.7176 94.2681 42.6818C94.2681 42.4881 94.4181 42.3016 94.7038 42.3016C94.9181 42.3016 95.061 42.4307 95.111 42.567C95.3039 43.1552 95.4825 43.9227 95.5539 44.5612V44.6114C95.5539 44.8409 95.3396 45.0059 95.111 45.0059ZM97.1755 44.9127C96.9612 44.9127 96.7826 44.7836 96.754 44.5827C96.704 43.9945 96.5397 43.2413 96.3468 42.6889C96.3325 42.6531 96.3325 42.6244 96.3325 42.5885C96.3325 42.3948 96.5111 42.2083 96.7754 42.2083C96.9826 42.2083 97.1469 42.3374 97.1826 42.4665C97.3755 43.0548 97.5541 43.8367 97.6255 44.4608V44.4966C97.6255 44.7405 97.4112 44.9199 97.1683 44.9199L97.1755 44.9127ZM100.126 42.5383L99.3757 44.7405C99.3114 44.9055 99.1614 45.0203 98.9828 45.0203C98.7256 45.0203 98.5256 44.8266 98.5256 44.6114C98.5256 44.5755 98.5256 44.5325 98.5399 44.4966L99.3042 42.2872C99.3542 42.1366 99.5185 42.029 99.6971 42.029C99.9257 42.029 100.14 42.194 100.14 42.4235C100.14 42.4594 100.14 42.5024 100.126 42.5383ZM105.19 41.4479L101.562 43.2915C101.497 43.3202 101.433 43.3274 101.369 43.3274C101.09 43.3274 100.897 43.0189 100.897 42.775C100.897 42.5598 100.983 42.3805 101.162 42.2872L104.776 40.4867C104.826 40.458 104.89 40.4508 104.94 40.4508C105.183 40.4508 105.426 40.6804 105.426 41.0032C105.426 41.2112 105.326 41.3977 105.183 41.4479H105.19ZM105.19 45.63L101.562 47.4736C101.512 47.5023 101.447 47.5023 101.397 47.5023C101.119 47.5023 100.897 47.2082 100.897 46.9499C100.897 46.7347 100.983 46.5697 101.162 46.4765L104.776 44.6616C104.826 44.6329 104.876 44.6257 104.94 44.6257C105.169 44.6257 105.426 44.8553 105.426 45.1853C105.426 45.3933 105.326 45.5655 105.183 45.63H105.19ZM105.19 49.8408L101.562 51.6557C101.497 51.6844 101.447 51.6915 101.383 51.6915C101.119 51.6915 100.897 51.3687 100.897 51.132C100.897 50.9383 100.983 50.759 101.162 50.6729L104.776 48.8724C104.826 48.8437 104.89 48.8365 104.94 48.8365C105.183 48.8365 105.426 49.0517 105.426 49.3889C105.426 49.5969 105.326 49.7834 105.183 49.848L105.19 49.8408Z" fill="#D9D9D9"/>
<path d="M113.484 42.567H109.705C109.398 45.0705 108.969 48.5998 108.798 50.1349C108.769 50.3645 108.584 50.5725 108.176 50.5725C107.769 50.5725 107.605 50.3645 107.605 50.178V50.0919C107.784 48.4922 108.191 45.0059 108.498 42.5741H107.812C107.533 42.5741 107.376 42.4235 107.376 42.0218C107.376 41.6201 107.526 41.4623 107.812 41.4623H108.655C108.705 40.9386 108.705 40.6589 109.355 40.6589C109.734 40.6589 109.905 40.8095 109.905 41.039C109.905 41.0749 109.905 41.1179 109.891 41.1395C109.877 41.2399 109.862 41.3547 109.855 41.4623H113.498C113.755 41.4623 113.941 41.6273 113.941 42.0218C113.941 42.4163 113.748 42.5741 113.498 42.5741L113.484 42.567ZM118.184 48.2411C118.006 48.2411 117.384 47.9327 117.163 47.8466V48.2842C117.163 50.3429 116.184 51.5553 113.763 51.5553C111.712 51.5553 110.555 50.6442 110.555 48.9226C110.555 47.201 111.855 46.1609 113.941 46.1609C114.677 46.1609 115.391 46.2469 116.056 46.3904V44.0232C116.056 43.7649 116.206 43.5641 116.606 43.5641C117.006 43.5641 117.163 43.7721 117.163 44.0232V46.6845C117.52 46.7993 117.863 46.9141 118.184 47.0432C118.449 47.1436 118.577 47.3229 118.577 47.6601C118.577 48.0403 118.413 48.2483 118.184 48.2483V48.2411ZM116.056 47.5023C115.356 47.3229 114.656 47.2369 114.02 47.2369C112.648 47.2369 111.662 47.739 111.662 48.9011C111.662 49.8695 112.391 50.5008 113.813 50.5008C115.427 50.5008 116.056 49.7619 116.056 48.1837V47.5095V47.5023ZM117.942 42.3446H115.877C115.62 42.3446 115.434 42.194 115.434 41.7922C115.434 41.3905 115.627 41.2327 115.877 41.2327H117.942C118.199 41.2327 118.399 41.3977 118.399 41.7922C118.399 42.1868 118.192 42.3446 117.942 42.3446Z" fill="#D9D9D9"/>
<path d="M131.078 42.6531H129.921V45.1494C130.586 45.7089 130.928 46.5195 130.928 47.5812C130.928 50.264 128.75 51.5337 124.599 51.5337H121.863C121.599 51.5337 121.356 51.3544 121.356 50.9742C121.356 50.594 121.599 50.4147 121.863 50.4147H124.678C128 50.4147 129.736 49.6615 129.736 47.574C129.736 47.2799 129.7 47.0217 129.635 46.7778C129.078 47.904 127.678 48.6285 125.342 48.6285C122.606 48.6285 121.37 47.8107 121.37 46.4406C121.37 44.9414 123.078 44.059 125.842 44.059C127 44.059 127.978 44.2025 128.757 44.4823V42.6531H121.156C120.899 42.6531 120.67 42.5024 120.67 42.1151C120.67 41.7277 120.899 41.5627 121.156 41.5627H128.757V41.0749C128.757 40.8095 128.935 40.6517 129.343 40.6517C129.75 40.6517 129.928 40.8023 129.928 41.0749V41.5627H131.086C131.343 41.5627 131.529 41.7277 131.529 42.1151C131.529 42.5024 131.336 42.6531 131.086 42.6531H131.078ZM125.849 44.9127C123.864 44.9127 122.606 45.4722 122.606 46.3689C122.606 47.201 123.435 47.7103 125.407 47.7103C127.621 47.7103 128.678 46.9714 128.743 45.5511C128.071 45.1064 127.078 44.9127 125.849 44.9127Z" fill="#D9D9D9"/>
</g>
<defs>
<clipPath id="clip0_45_301">
<rect width="41" height="34" fill="white" transform="translate(0 6)"/>
</clipPath>
<clipPath id="clip1_45_301">
<rect width="81" height="52" fill="white" transform="translate(51)"/>
</clipPath>
</defs>
</svg>
