<svg width="41" height="34" viewBox="0 0 41 34" fill="none" xmlns="http://www.w3.org/2000/svg">
<g clip-path="url(#clip0_43_174)">
<path d="M1.21755 14.2286C0.371164 16.6554 0.434803 17.3467 1.13907 17.7915C1.84121 18.2364 2.86154 17.9711 3.69944 17.094C7.74896 12.8523 11.4697 12.7229 14.4289 13.4517C18.1284 14.1806 19.609 14.9095 22.5682 13.8151C25.1583 12.7229 26.6368 8.71511 28.4887 7.62285C30.3384 6.53059 33.5458 7.51007 35.8877 7.25946C36.4837 7.16548 36.8125 6.72899 36.7213 6.44079C36.6301 6.15258 36.2886 5.79754 35.8877 5.43833C30.0669 0.47199 22.7591 -0.983661 16.2277 0.626536C9.69629 2.23882 3.93915 6.91904 1.21755 14.2286Z" fill="#FFCDB4"/>
<path d="M39.4621 10.5362C38.5499 8.74017 37.6611 7.37641 36.6302 6.24656C36.6705 6.31339 36.7023 6.37813 36.7235 6.4387C36.8147 6.7269 36.4859 7.16339 35.8899 7.25737C33.5458 7.51007 30.3406 6.5285 28.4908 7.62076C26.6411 8.71302 25.1604 12.7208 22.5704 13.813C19.6112 14.9053 18.1305 14.1764 14.431 13.4496C11.4719 12.7208 7.75114 12.8523 3.70163 17.0919C2.86372 17.969 1.84339 18.2343 1.14125 17.7894C0.789115 17.566 0.596079 17.2799 0.600322 16.7431C0.294858 18.0693 0.106065 19.4811 0.0275777 21.0975C-0.154852 24.8066 0.767903 28.7475 1.98764 28.7475C4.46741 28.7475 5.57683 22.1919 9.27634 21.0975C12.6386 20.1055 16.3062 22.8456 20.3748 22.1898C24.0531 21.5988 26.2953 15.2687 31.4734 14.9053C35.1813 14.6442 39.9542 17.071 40.7221 15.559C41.0912 14.8301 40.353 12.2801 39.4642 10.5342L39.4621 10.5362Z" fill="#F9AA86"/>
<path d="M40.8113 15.1079C40.8028 15.2937 40.7752 15.4504 40.7179 15.5631C39.95 17.0752 35.1772 14.6484 31.4692 14.9095C26.289 15.2728 24.0468 21.6029 20.3707 22.194C16.3021 22.8477 12.6344 20.1076 9.27215 21.1017C5.57265 22.194 4.46322 28.7517 1.98345 28.7517C1.65677 28.7517 1.34919 28.4656 1.08191 27.979C1.38949 28.6744 1.72253 29.23 1.95375 29.5683C2.59014 30.4998 3.63805 31.9303 4.80262 32.7657C6.00539 33.6283 7.35876 34.1399 8.37485 33.9165L8.43001 33.9018C10.2713 33.3296 11.1007 31.2286 12.7871 29.5725C14.3208 28.0667 16.0114 27.4109 18.0903 27.6595C20.8734 27.9477 23.1347 28.2818 25.8605 27.2961C27.8694 26.5693 29.9291 24.0172 31.781 22.5615C32.5977 21.9183 33.6456 21.6113 34.3711 21.4693C36.2208 21.1059 39.0676 21.9642 40.3064 20.0867C41.0213 18.7439 41.0849 16.883 40.8155 15.1141L40.8113 15.1079Z" fill="#EC6F3B"/>
<path d="M36.0171 30.5958C37.2308 30.5958 38.2147 29.6271 38.2147 28.4322C38.2147 27.2372 37.2308 26.2685 36.0171 26.2685C34.8034 26.2685 33.8195 27.2372 33.8195 28.4322C33.8195 29.6271 34.8034 30.5958 36.0171 30.5958Z" fill="#FFAE8A"/>
<path d="M39.443 26.233C40.3029 26.233 41 25.5467 41 24.7001C41 23.8535 40.3029 23.1672 39.443 23.1672C38.5831 23.1672 37.886 23.8535 37.886 24.7001C37.886 25.5467 38.5831 26.233 39.443 26.233Z" fill="#FFBD9F"/>
<path d="M38.4226 34C39.1302 34 39.7039 33.4352 39.7039 32.7386C39.7039 32.0419 39.1302 31.4771 38.4226 31.4771C37.715 31.4771 37.1414 32.0419 37.1414 32.7386C37.1414 33.4352 37.715 34 38.4226 34Z" fill="#FFCEB5"/>
</g>
<defs>
<clipPath id="clip0_43_174">
<rect width="41" height="34" fill="white"/>
</clipPath>
</defs>
</svg>
