<svg width="81" height="52" viewBox="0 0 81 52" fill="none" xmlns="http://www.w3.org/2000/svg">
<g clip-path="url(#clip0_43_176)">
<path d="M7.75794 8.01987H6.73642C6.60069 8.01987 6.43639 7.88357 6.43639 7.68272C6.43639 7.48186 6.60069 7.36709 6.73642 7.36709H7.59364C8.05796 7.36709 8.27941 7.05146 8.27941 6.55649V6.32694C8.27941 6.21217 8.1794 6.11174 8.06511 6.11174H5.31486V8.04139C5.31486 8.1992 5.15771 8.37136 4.95055 8.37136C4.72195 8.37136 4.57909 8.1992 4.57909 8.04139V6.11174H4.47908C3.73615 7.31687 2.46461 8.10595 1.10735 8.24224H1.07163C0.914476 8.24224 0.771606 8.14181 0.771606 7.94096C0.771606 7.76162 0.871615 7.62533 1.02163 7.60381C2.29317 7.46751 3.17896 6.95103 3.77187 6.10457H1.77169C1.40023 6.10457 1.11449 5.81763 1.11449 5.44461V4.61967C1.11449 4.24665 1.40738 3.94537 1.77169 3.94537H4.57194V3.03435H1.30022C1.18593 3.03435 1.03592 2.91958 1.03592 2.72589C1.03592 2.55373 1.17879 2.43896 1.30022 2.43896H8.11511C8.48657 2.43896 8.7866 2.72589 8.7866 3.09891V3.88081C8.7866 4.25383 8.48657 4.55511 8.11511 4.55511H5.32201V5.50917H8.35799C8.72945 5.50917 9.01519 5.81046 9.01519 6.18347V6.6354C9.01519 7.43165 8.64373 8.01269 7.75794 8.01269V8.01987ZM4.54337 1.03297H3.59328L3.80759 1.96551C3.80759 1.96551 3.81473 2.00855 3.81473 2.03007C3.81473 2.19506 3.65758 2.33853 3.47184 2.33853C3.27183 2.33853 3.16467 2.2668 3.12181 2.08746L2.87894 1.03297H2.1003C1.95743 1.37729 1.78598 1.70727 1.58596 1.96551C1.52882 2.05877 1.42881 2.10181 1.28594 2.10181C1.07163 2.10181 0.92162 1.94399 0.92162 1.78618C0.92162 1.72879 0.94305 1.67858 0.978768 1.62119C1.24308 1.241 1.4931 0.69582 1.60025 0.243896C1.63597 0.114774 1.79313 0 1.94314 0C2.17887 0 2.32174 0.172162 2.32174 0.329977C2.32174 0.351497 2.3146 0.365844 2.3146 0.387364C2.3146 0.408884 2.3146 0.423231 2.30746 0.430404H4.53622C4.65766 0.430404 4.80768 0.559525 4.80768 0.731687C4.80768 0.925369 4.65052 1.04014 4.53622 1.04014L4.54337 1.03297ZM4.58623 4.56228H2.06458C1.95028 4.56228 1.85742 4.64119 1.85742 4.77031V5.30832C1.85742 5.43744 1.95028 5.51635 2.06458 5.51635H4.58623V4.56228ZM8.80803 1.03297H7.66507L7.91509 1.95117V1.98703C7.91509 2.15919 7.78651 2.32418 7.56506 2.33136C7.38648 2.33136 7.25789 2.25962 7.21503 2.08029L6.95072 1.04014H6.07207C5.9292 1.38447 5.74347 1.71444 5.5506 1.97269C5.49345 2.06594 5.39344 2.10898 5.25057 2.10898C5.05056 2.10898 4.90054 1.95117 4.90054 1.79335C4.90054 1.73596 4.92197 1.68575 4.95769 1.62836C5.22914 1.24817 5.46488 0.702994 5.57917 0.251069C5.59346 0.121948 5.75776 0.0071734 5.94349 0.0071734C6.17208 0.0071734 6.30781 0.200855 6.30781 0.35867C6.30781 0.38019 6.30067 0.423231 6.28638 0.430404H8.80803C8.93661 0.430404 9.07948 0.559525 9.07948 0.731687C9.07948 0.925369 8.93661 1.04014 8.80803 1.04014V1.03297ZM8.05082 3.2639C8.05082 3.13478 7.95795 3.0487 7.83652 3.0487H5.32201V3.95972H7.83652C7.9651 3.95972 8.05082 3.88081 8.05082 3.75169V3.27107V3.2639Z" fill="#D9D9D9"/>
<path d="M16.5801 1.64988C14.6085 3.06304 13.5798 5.64547 13.2084 7.69706C13.1727 7.89792 13.1155 8.07725 12.7583 8.07725C12.4869 8.07725 12.394 7.91226 12.394 7.7401V7.69706C12.7583 5.27245 14.137 2.86219 15.6014 1.54946C15.63 1.52076 15.6586 1.49207 15.6586 1.47055C15.6586 1.44903 15.63 1.42751 15.5586 1.42751H11.0367C10.801 1.42751 10.651 1.32708 10.651 1.04014C10.651 0.753207 10.7939 0.638433 11.0296 0.638433H16.4872C16.7301 0.638433 16.8873 0.746034 16.8873 1.06166C16.8873 1.34143 16.7873 1.49924 16.5801 1.64988Z" fill="#D9D9D9"/>
<path d="M21.3448 8.01987H20.3948C18.8589 8.01987 17.866 7.55359 17.866 6.29825C17.866 6.10457 17.9303 5.94675 18.266 5.94675C18.566 5.94675 18.6518 6.09022 18.6518 6.25521C18.6518 7.01559 19.2732 7.24514 20.4305 7.24514H21.3448C22.6307 7.24514 23.145 6.86495 23.145 5.9324V5.38723C23.145 4.4762 22.645 4.01711 21.3448 4.01711H20.5233C19.6376 4.01711 19.1947 4.261 18.8589 4.59098C18.6875 4.76314 18.5875 4.79183 18.3732 4.79183C18.0374 4.79183 17.9445 4.68423 17.9445 4.41164V1.31273C17.9445 0.875155 18.1588 0.631259 18.6232 0.631259H23.4379C23.6665 0.631259 23.8236 0.746034 23.8236 1.01862C23.8236 1.30556 23.6593 1.42033 23.4379 1.42033H18.9732C18.7946 1.42033 18.7232 1.51359 18.7232 1.66423V3.68713C18.7232 3.75169 18.7303 3.78038 18.7803 3.78038C18.8018 3.78038 18.8232 3.75886 18.8589 3.723C19.2732 3.43606 19.8447 3.2352 20.5233 3.2352H21.3448C23.245 3.2352 23.9379 3.96689 23.9379 5.38005V5.92523C23.9379 7.43165 23.1164 8.01987 21.3448 8.01987Z" fill="#D9D9D9"/>
<path d="M32.7673 8.14899H26.4668C26.081 8.14899 25.7953 7.8477 25.7953 7.48903V0.925369C25.7953 0.552352 26.0739 0.251069 26.4668 0.251069H32.7673C33.1459 0.251069 33.4388 0.552352 33.4388 0.925369V7.48903C33.4388 7.85488 33.1459 8.14899 32.7673 8.14899ZM32.7388 1.16926C32.7388 1.04014 32.6316 0.939716 32.5102 0.939716H26.7168C26.5954 0.939716 26.4882 1.04014 26.4882 1.16926V7.26666C26.4882 7.38143 26.5954 7.48186 26.7168 7.48186H32.5102C32.6245 7.48186 32.7388 7.38143 32.7388 7.26666V1.16926ZM30.9315 6.29825H28.3027C27.924 6.29825 27.6312 5.99697 27.6312 5.62395V2.79045C27.6312 2.42461 27.9169 2.1305 28.3027 2.1305H30.9315C31.3101 2.1305 31.6029 2.43178 31.6029 2.79045V5.62395C31.6029 5.99697 31.3172 6.29825 30.9315 6.29825ZM30.9029 3.01283C30.9029 2.88371 30.81 2.78328 30.6957 2.78328H28.5384C28.4241 2.78328 28.3312 2.88371 28.3312 3.01283V5.43027C28.3312 5.54504 28.4241 5.64547 28.5384 5.64547H30.6957C30.8172 5.64547 30.9029 5.54504 30.9029 5.43027V3.01283Z" fill="#D9D9D9"/>
<path d="M1.45019 36.5126C1.33589 36.8211 1.06444 37.0435 0.70012 37.0435C0.257224 37.0435 0.00720215 36.6776 0.00720215 36.2902C0.00720215 36.2329 0.0357761 36.1755 0.0357761 36.1253C0.342946 34.3391 0.621542 32.7179 0.621542 28.8012C0.621542 28.4928 0.900138 28.1341 1.34303 28.1341C1.87165 28.1341 2.12167 28.5501 2.12167 28.8873C2.12167 33.0766 1.98595 34.9488 1.45019 36.5126ZM10.5153 14.1029H7.37214V16.6997H10.1795C10.5724 16.6997 10.9296 16.9794 10.9296 17.4816C10.9296 17.9837 10.5653 18.2635 10.1795 18.2635H7.37214V20.8603H10.1795C10.5724 20.8603 10.9296 21.14 10.9296 21.6709C10.9296 22.173 10.5653 22.4528 10.1795 22.4528H7.37214V25.1069H9.10086C10.1867 25.1069 11.051 25.9749 11.051 27.1442V32.3162C11.051 35.2214 9.65805 36.9574 6.76494 36.9574H5.5434C5.07193 36.9574 4.65047 36.5628 4.65047 35.9531C4.65047 35.4797 4.98621 35.0062 5.5434 35.0062H6.62921C8.30079 35.0062 9.2723 34.253 9.2723 31.9288V27.5674C9.2723 27.1729 8.96514 26.9003 8.60082 26.9003H2.72887C1.61449 26.9003 0.750125 26.0036 0.750125 24.8056V14.3253C0.750125 13.1775 1.61449 12.2593 2.72887 12.2593H10.5224C10.8867 12.2593 11.3296 12.5965 11.3296 13.156C11.3296 13.7729 10.8867 14.1029 10.5224 14.1029H10.5153ZM5.59341 14.1029H3.31464C2.92174 14.1029 2.64315 14.3827 2.64315 14.77V16.6997H5.59341V14.1029ZM5.59341 18.2635H2.64315V20.8603H5.59341V18.2635ZM5.59341 22.4528H2.64315V24.4398C2.64315 24.8056 2.92174 25.1069 3.28606 25.1069H5.59341V22.4528ZM3.59323 33.3563C3.20034 33.3563 2.97889 33.0192 2.97889 32.7394V28.7438C2.97889 28.4641 3.20034 28.1843 3.59323 28.1843C3.92898 28.1843 4.15042 28.4641 4.15042 28.7438V32.7394C4.15042 33.0192 3.92898 33.3563 3.59323 33.3563ZM5.62198 33.3563C5.25767 33.3563 5.03622 33.0192 5.03622 32.7394V28.7438C5.03622 28.4641 5.25767 28.1843 5.62198 28.1843C5.95773 28.1843 6.17917 28.4641 6.17917 28.7438V32.7394C6.17917 33.0192 5.95773 33.3563 5.62198 33.3563ZM7.65073 33.3563C7.28642 33.3563 7.06497 33.0192 7.06497 32.7394V28.7438C7.06497 28.4641 7.28642 28.1843 7.65073 28.1843C7.98648 28.1843 8.20793 28.4641 8.20793 28.7438V32.7394C8.20793 33.0192 7.98648 33.3563 7.65073 33.3563ZM19.8947 36.9574H18.1159C17.673 36.9574 17.1944 36.5413 17.1944 35.7809C17.1944 35.1927 17.6945 34.834 18.0874 34.834H19.6446C21.1448 34.834 22.3163 33.6361 22.3163 32.0651V16.0254C22.3163 15.6595 22.0377 15.3583 21.6734 15.3583H15.8015C15.1871 17.4816 14.0727 19.6336 12.4869 21.0324C12.3511 21.1687 12.1511 21.2261 11.9868 21.2261C11.4868 21.2261 10.9867 20.7813 10.9867 20.0497C10.9867 19.7125 11.151 19.3825 11.3511 19.2104C13.0226 17.6466 13.9941 15.5519 14.2156 12.4172C14.2442 11.8289 14.6871 11.4416 15.2728 11.4416C15.9943 11.4416 16.3015 11.9724 16.3015 12.4745V12.5893C16.3015 12.8404 16.2729 13.0915 16.2158 13.3425H22.2234C23.3664 13.3425 24.2522 14.2392 24.2522 15.4085V32.5386C24.2522 35.0564 22.502 36.9502 19.8804 36.9502L19.8947 36.9574ZM18.2517 33.2989H15.1085C13.9941 33.2989 13.1584 32.4023 13.1584 31.2904V21.6493C13.1584 20.5016 13.9941 19.6121 15.1085 19.6121H18.2517C19.3661 19.6121 20.2018 20.5088 20.2018 21.6493V31.2904C20.2018 32.4094 19.3661 33.2989 18.2517 33.2989ZM18.5017 22.2304C18.5017 21.8358 18.1945 21.5633 17.8373 21.5633H15.5514C15.1871 21.5633 14.8871 21.843 14.8871 22.2304V30.7237C14.8871 31.0895 15.1943 31.3908 15.5514 31.3908H17.8373C18.2017 31.3908 18.5017 31.0824 18.5017 30.7237V22.2304Z" fill="#D9D9D9"/>
<path d="M34.7245 33.9948C33.4173 34.7193 29.9098 36.0033 28.4668 36.0033C27.9382 36.0033 27.5739 35.5873 27.5739 34.999C27.5739 34.4682 27.7953 34.0737 28.3525 33.9948C28.9954 33.9087 29.6026 33.7437 30.1884 33.6002V19.8488H28.4097C27.9953 19.8488 27.4882 19.4327 27.4882 18.7584C27.4882 18.1415 27.9882 17.7255 28.4097 17.7255H30.1884V12.3885C30.1884 11.9437 30.6027 11.4631 31.2456 11.4631C31.8885 11.4631 32.2743 11.9365 32.2743 12.3885V17.7255H34.0245C34.4673 17.7255 34.9745 18.1415 34.9745 18.7584C34.9745 19.4256 34.4745 19.8488 34.0245 19.8488H32.2743V32.8972C32.8601 32.6462 33.4458 32.3951 33.9744 32.0579C34.1102 32.0006 34.253 31.9719 34.3673 31.9719C34.8674 31.9719 35.2888 32.3664 35.2888 33.0048C35.2888 33.4783 35.0674 33.7867 34.7317 33.9804L34.7245 33.9948ZM52.3403 25.2504H42.5752C42.268 26.0036 41.8251 26.7066 41.2679 27.3737H50.8402C51.9832 27.3737 52.869 28.2417 52.869 29.4396V33.1555C52.869 35.4223 51.5903 36.9287 49.583 36.9287H47.7757C47.3613 36.9287 46.9399 36.5628 46.9399 36.0033C46.9399 35.4438 47.3542 35.1066 47.7757 35.1066H49.1972C50.3116 35.1066 51.0045 34.3247 51.0045 33.0981V29.827C51.0045 29.4612 50.7259 29.1814 50.3616 29.1814H49.3329C47.9971 33.3994 44.4897 36.1396 40.7608 36.8067C40.7036 36.8067 40.6465 36.8354 40.5965 36.8354C40.0678 36.8354 39.7321 36.3333 39.7321 35.8885C39.7321 35.494 39.8964 35.1353 40.3179 35.0493C43.7967 34.3247 46.4398 31.9503 47.4685 29.1814H44.7397C43.3467 32.0292 39.6464 34.4036 36.7247 34.8269H36.6175C36.0603 34.8269 35.696 34.296 35.696 33.8513C35.696 33.3778 36.0318 33.012 36.3889 32.9546C39.0892 32.4525 41.5894 30.8313 42.7038 29.1814H39.3106C38.7534 29.5975 37.2819 30.4654 36.5532 30.4654C36.0246 30.4654 35.5817 29.9633 35.5817 29.4325C35.5817 28.959 35.8889 28.6506 36.2461 28.5358C38.2748 27.9476 39.8107 26.6348 40.4464 25.236H36.4675C36.0532 25.236 35.6317 24.8989 35.6317 24.2891C35.6317 23.787 36.0461 23.4212 36.4675 23.4212H52.3261C52.7118 23.4212 53.1333 23.787 53.1333 24.2891C53.1333 24.9061 52.719 25.236 52.3261 25.236L52.3403 25.2504ZM50.0544 21.3409H38.7034C37.5605 21.3409 36.6747 20.4729 36.6747 19.2749V14.354C36.6747 13.156 37.5676 12.2593 38.7034 12.2593H50.0544C51.1974 12.2593 52.0832 13.156 52.0832 14.354V19.2749C52.0832 20.4729 51.1902 21.3409 50.0544 21.3409ZM50.0044 14.6337C50.0044 14.2679 49.7258 13.9666 49.3615 13.9666H39.4249C39.032 13.9666 38.7534 14.2751 38.7534 14.6337V16.0039H49.9973V14.6337H50.0044ZM50.0044 17.5964H38.7606V18.9952C38.7606 19.361 39.0392 19.6623 39.4321 19.6623H49.3687C49.733 19.6623 50.0116 19.3538 50.0116 18.9952V17.5964H50.0044Z" fill="#D9D9D9"/>
<path d="M79.9143 24.6048C78.6927 24.6048 75.8496 22.8473 74.8781 22.1156C75.0138 22.3093 75.0996 22.5604 75.0996 22.8114C75.0996 23.3996 74.7352 23.8731 74.178 23.8731H62.377C61.8198 23.8731 61.4555 23.3709 61.4555 22.7827C61.4555 22.7253 61.4841 22.6464 61.5126 22.5604C60.4268 23.2275 57.6695 24.6837 56.3908 24.6837C55.7764 24.6837 55.3621 24.2891 55.3621 23.5359C55.3621 23.0338 55.5836 22.6966 56.0265 22.589C57.198 22.3093 58.3338 21.8932 59.4196 21.3911L57.0265 17.9263C56.7479 18.0124 56.4979 18.1487 56.1908 18.1487C55.6336 18.1487 55.2192 17.704 55.2192 17.087C55.2192 16.671 55.4693 16.3338 55.8621 16.1904C57.4766 15.6595 59.0053 14.6553 59.8982 13.651C60.5911 12.8404 61.3984 12.2522 62.427 12.2522H68.2418C69.3848 12.2522 70.0491 12.8691 70.4992 13.9021C71.1921 15.5519 72.4993 17.252 74.1138 18.7656C76.5068 16.9508 77.4498 15.0211 77.4498 14.5477C77.4498 14.3253 77.2855 14.1029 76.9211 14.1029H73.0565C72.7208 14.1029 72.2493 13.7371 72.2493 13.1775C72.2493 12.618 72.7208 12.2522 73.0565 12.2522H77.8712C78.8999 12.2522 79.65 13.0054 79.65 13.8447C79.65 15.2435 78.1213 17.955 75.5567 19.9636C77.0283 21.0826 78.6999 22.0295 80.4 22.6177C80.7358 22.7325 80.9858 23.0912 80.9858 23.5431C80.9858 24.1313 80.5715 24.6048 79.9 24.6048H79.9143ZM79.8571 28.9375H69.7277V33.8585C69.7277 35.8455 68.8347 36.9287 66.6702 36.9287H63.8343C63.3628 36.9287 62.9128 36.4839 62.9128 35.7809C62.9128 35.0779 63.3557 34.6906 63.8343 34.6906H66.3917C67.056 34.6906 67.4775 34.2171 67.4775 33.6002V28.9303H56.4836C55.9836 28.9303 55.5621 28.4282 55.5621 27.84C55.5621 27.2518 55.9764 26.807 56.4836 26.807H79.8571C80.3857 26.807 80.7786 27.2805 80.7786 27.84C80.7786 28.3995 80.4143 28.9303 79.8571 28.9303V28.9375ZM61.827 31.6204C60.884 33.3778 59.491 35.2501 57.7909 36.6202C57.5694 36.8139 57.2908 36.8713 57.0122 36.8713C56.4551 36.8713 56.0622 36.3692 56.0622 35.8383C56.0622 35.4725 56.2265 35.1927 56.4551 35.0277C58.2052 33.6863 59.3196 31.979 60.2125 30.4439C60.434 30.0494 60.6554 29.9131 61.134 29.9131C61.4984 29.9131 62.027 30.2502 62.027 30.8887C62.027 31.0824 61.9698 31.3334 61.8341 31.6132L61.827 31.6204ZM60.4911 15.7456C59.8768 16.3051 59.1553 16.836 58.4052 17.252L60.7983 20.6594C61.6055 20.1573 62.3842 19.6264 63.0842 19.0382L60.4983 15.7384L60.4911 15.7456ZM62.577 14.1029C62.2699 14.1029 61.827 14.354 61.5198 14.6624L64.1915 18.0411C65.363 16.8432 66.3345 15.5017 67.0274 14.1029H62.577ZM68.7847 14.9924C67.5346 17.5103 65.3058 19.9349 62.6913 21.7856H74.1852C74.3209 21.7856 74.4352 21.8143 74.5495 21.8717C72.0207 19.8847 69.8777 17.2879 68.7919 14.9996L68.7847 14.9924ZM79.0213 36.9287C78.7427 36.9287 78.4641 36.8139 78.2713 36.5915L74.3781 31.6491C74.2423 31.4841 74.1566 31.2545 74.1566 30.9532C74.1566 30.365 74.6852 29.9203 75.2139 29.9203C75.4639 29.9203 75.7139 30.035 75.9068 30.2861L79.8571 35.2071C79.9928 35.4007 80.05 35.6016 80.05 35.824C80.05 36.4122 79.6571 36.943 79.0213 36.943V36.9287Z" fill="#D9D9D9"/>
<path d="M49.0757 47.0145H46.6469V47.6816L49.09 49.64C49.2043 49.7404 49.2543 49.8695 49.2543 49.9986C49.2543 50.3214 49.04 50.5008 48.8329 50.5008C48.7471 50.5008 48.6686 50.4721 48.59 50.4147L46.6398 48.7289V51.5768C46.6398 51.7848 46.4469 52.0144 46.154 52.0144C45.8612 52.0144 45.6469 51.7848 45.6469 51.5768V48.5209C45.0897 49.6041 44.261 50.6299 43.4181 51.1894C43.3395 51.254 43.2681 51.2755 43.1752 51.2755C42.9609 51.2755 42.7395 51.0675 42.7395 50.7733C42.7395 50.6299 42.8038 50.4936 42.918 50.4147C44.1039 49.6471 45.0825 48.3416 45.5397 47.0145H43.1109C42.9038 47.0145 42.6895 46.8351 42.6895 46.541C42.6895 46.2756 42.9038 46.0819 43.1109 46.0819H45.6469V45.5081C45.6469 45.3 45.854 45.0633 46.154 45.0633C46.4541 45.0633 46.6398 45.3072 46.6398 45.5081V46.0819H49.0686C49.2615 46.0819 49.4901 46.2756 49.4901 46.541C49.4901 46.8351 49.2615 47.0145 49.0686 47.0145H49.0757ZM49.2186 41.2829C47.8185 41.742 45.4468 41.9357 43.1109 41.9357C42.868 41.9357 42.718 41.7277 42.718 41.4766C42.718 41.2256 42.8823 41.0175 43.1109 41.0175C45.3254 41.0175 47.7185 40.8525 49.0043 40.3934C49.04 40.3791 49.0829 40.3647 49.1186 40.3647C49.3615 40.3647 49.5115 40.6302 49.5115 40.8382C49.5115 41.0534 49.3972 41.2327 49.2186 41.2829ZM44.111 45.0059C43.8681 45.0059 43.7038 44.8768 43.6895 44.676C43.6253 44.059 43.461 43.3561 43.2824 42.7965C43.2681 42.7607 43.2681 42.7176 43.2681 42.6818C43.2681 42.4881 43.4181 42.3016 43.7038 42.3016C43.9181 42.3016 44.061 42.4307 44.111 42.567C44.3039 43.1552 44.4825 43.9227 44.5539 44.5612V44.6114C44.5539 44.8409 44.3396 45.0059 44.111 45.0059ZM46.1755 44.9127C45.9612 44.9127 45.7826 44.7836 45.754 44.5827C45.704 43.9945 45.5397 43.2413 45.3468 42.6889C45.3325 42.6531 45.3325 42.6244 45.3325 42.5885C45.3325 42.3948 45.5111 42.2083 45.7754 42.2083C45.9826 42.2083 46.1469 42.3374 46.1826 42.4665C46.3755 43.0548 46.5541 43.8367 46.6255 44.4608V44.4966C46.6255 44.7405 46.4112 44.9199 46.1683 44.9199L46.1755 44.9127ZM49.1257 42.5383L48.3757 44.7405C48.3114 44.9055 48.1614 45.0203 47.9828 45.0203C47.7256 45.0203 47.5256 44.8266 47.5256 44.6114C47.5256 44.5755 47.5256 44.5325 47.5399 44.4966L48.3042 42.2872C48.3542 42.1366 48.5185 42.029 48.6971 42.029C48.9257 42.029 49.14 42.194 49.14 42.4235C49.14 42.4594 49.14 42.5024 49.1257 42.5383ZM54.1905 41.4479L50.5616 43.2915C50.4973 43.3202 50.433 43.3274 50.3687 43.3274C50.0901 43.3274 49.8972 43.0189 49.8972 42.775C49.8972 42.5598 49.983 42.3805 50.1615 42.2872L53.7761 40.4867C53.8262 40.458 53.8904 40.4508 53.9405 40.4508C54.1833 40.4508 54.4262 40.6804 54.4262 41.0032C54.4262 41.2112 54.3262 41.3977 54.1833 41.4479H54.1905ZM54.1905 45.63L50.5616 47.4736C50.5116 47.5023 50.4473 47.5023 50.3973 47.5023C50.1187 47.5023 49.8972 47.2082 49.8972 46.9499C49.8972 46.7347 49.983 46.5697 50.1615 46.4765L53.7761 44.6616C53.8262 44.6329 53.8762 44.6257 53.9405 44.6257C54.169 44.6257 54.4262 44.8553 54.4262 45.1853C54.4262 45.3933 54.3262 45.5655 54.1833 45.63H54.1905ZM54.1905 49.8408L50.5616 51.6557C50.4973 51.6844 50.4473 51.6915 50.383 51.6915C50.1187 51.6915 49.8972 51.3687 49.8972 51.132C49.8972 50.9383 49.983 50.759 50.1615 50.6729L53.7761 48.8724C53.8262 48.8437 53.8904 48.8365 53.9405 48.8365C54.1833 48.8365 54.4262 49.0517 54.4262 49.3889C54.4262 49.5969 54.3262 49.7834 54.1833 49.848L54.1905 49.8408Z" fill="#D9D9D9"/>
<path d="M62.484 42.567H58.7051C58.398 45.0705 57.9693 48.5998 57.7979 50.1349C57.7693 50.3645 57.5836 50.5725 57.1764 50.5725C56.7692 50.5725 56.6049 50.3645 56.6049 50.178V50.0919C56.7835 48.4922 57.1907 45.0059 57.4979 42.5741H56.8121C56.5335 42.5741 56.3763 42.4235 56.3763 42.0218C56.3763 41.6201 56.5264 41.4623 56.8121 41.4623H57.655C57.705 40.9386 57.705 40.6589 58.3551 40.6589C58.7337 40.6589 58.9051 40.8095 58.9051 41.039C58.9051 41.0749 58.9051 41.1179 58.8909 41.1395C58.8766 41.2399 58.8623 41.3547 58.8551 41.4623H62.4983C62.7555 41.4623 62.9412 41.6273 62.9412 42.0218C62.9412 42.4163 62.7483 42.5741 62.4983 42.5741L62.484 42.567ZM67.1844 48.2411C67.0059 48.2411 66.3844 47.9327 66.1629 47.8466V48.2842C66.1629 50.3429 65.1843 51.5553 62.7626 51.5553C60.7124 51.5553 59.5552 50.6442 59.5552 48.9226C59.5552 47.201 60.8553 46.1609 62.9412 46.1609C63.677 46.1609 64.3913 46.2469 65.0557 46.3904V44.0232C65.0557 43.7649 65.2057 43.5641 65.6057 43.5641C66.0058 43.5641 66.1629 43.7721 66.1629 44.0232V46.6845C66.5201 46.7993 66.863 46.9141 67.1844 47.0432C67.4487 47.1436 67.5773 47.3229 67.5773 47.6601C67.5773 48.0403 67.413 48.2483 67.1844 48.2483V48.2411ZM65.0557 47.5023C64.3556 47.3229 63.6556 47.2369 63.0198 47.2369C61.6482 47.2369 60.6624 47.739 60.6624 48.9011C60.6624 49.8695 61.3911 50.5008 62.8126 50.5008C64.4271 50.5008 65.0557 49.7619 65.0557 48.1837V47.5095V47.5023ZM66.9416 42.3446H64.8771C64.6199 42.3446 64.4342 42.194 64.4342 41.7922C64.4342 41.3905 64.6271 41.2327 64.8771 41.2327H66.9416C67.1987 41.2327 67.3987 41.3977 67.3987 41.7922C67.3987 42.1868 67.1916 42.3446 66.9416 42.3446Z" fill="#D9D9D9"/>
<path d="M80.0785 42.6531H78.9212V45.1494C79.5856 45.7089 79.9285 46.5195 79.9285 47.5812C79.9285 50.264 77.7497 51.5337 73.5993 51.5337H70.8634C70.5991 51.5337 70.3562 51.3544 70.3562 50.9742C70.3562 50.594 70.5991 50.4147 70.8634 50.4147H73.6779C76.9996 50.4147 78.7355 49.6615 78.7355 47.574C78.7355 47.2799 78.6998 47.0217 78.6355 46.7778C78.0783 47.904 76.6782 48.6285 74.3423 48.6285C71.6063 48.6285 70.3705 47.8107 70.3705 46.4406C70.3705 44.9414 72.0778 44.059 74.8423 44.059C75.9995 44.059 76.9782 44.2025 77.7568 44.4823V42.6531H70.1562C69.899 42.6531 69.6704 42.5024 69.6704 42.1151C69.6704 41.7277 69.899 41.5627 70.1562 41.5627H77.7568V41.0749C77.7568 40.8095 77.9354 40.6517 78.3426 40.6517C78.7498 40.6517 78.9284 40.8023 78.9284 41.0749V41.5627H80.0856C80.3428 41.5627 80.5285 41.7277 80.5285 42.1151C80.5285 42.5024 80.3356 42.6531 80.0856 42.6531H80.0785ZM74.8494 44.9127C72.8636 44.9127 71.6063 45.4722 71.6063 46.3689C71.6063 47.201 72.4349 47.7103 74.4065 47.7103C76.621 47.7103 77.6783 46.9714 77.7426 45.5511C77.0711 45.1064 76.0781 44.9127 74.8494 44.9127Z" fill="#D9D9D9"/>
</g>
<defs>
<clipPath id="clip0_43_176">
<rect width="81" height="52" fill="white"/>
</clipPath>
</defs>
</svg>
