<svg width="297" height="48" viewBox="0 0 297 48" fill="none" xmlns="http://www.w3.org/2000/svg">
<path d="M2.464 18.48C3.36 18.416 4.288 18.416 5.184 18.32C6.88 18.096 8.256 17.872 9.952 17.296C10.144 17.232 10.432 17.136 10.592 17.136C10.752 17.136 10.784 17.36 10.784 17.488V39.184C10.784 40.464 11.52 40.944 12.736 40.944H13.568V42H2.432V40.944H3.264C4.48 40.944 5.216 40.464 5.216 39.184V21.296C5.216 19.76 4.256 19.536 2.944 19.536H2.464V18.48ZM14.944 18.48C15.84 18.416 16.768 18.416 17.664 18.32C19.36 18.096 20.736 17.872 22.432 17.296C22.624 17.232 22.912 17.136 23.072 17.136C23.232 17.136 23.264 17.36 23.264 17.488V39.184C23.264 40.464 24 40.944 25.216 40.944H26.048V42H14.912V40.944H15.744C16.96 40.944 17.696 40.464 17.696 39.184V21.296C17.696 19.76 16.736 19.536 15.424 19.536H14.944V18.48ZM29.984 42.64C28.384 42.64 27.04 41.296 27.04 39.664C27.04 38.064 28.384 36.72 29.984 36.72C31.616 36.72 32.96 38.064 32.96 39.664C32.96 41.296 31.616 42.64 29.984 42.64Z" fill="#D9D9D9"/>
<path d="M63.408 42H42.576V40.608C44.16 36.864 46.416 33.456 48.672 30.096C52.224 24.864 56.4 19.488 56.4 12.912C56.4 10.032 55.392 6.48 51.888 6.48C50.352 6.48 47.76 7.824 47.76 9.552C47.76 9.984 48.048 10.224 49.008 10.464C50.736 10.944 51.84 12.432 51.84 14.208C51.84 16.512 50.064 18.672 47.664 18.672C45.216 18.672 43.488 16.368 43.488 14.016C43.488 11.808 44.448 9.6 45.984 7.968C48.144 5.712 51.312 4.704 54.384 4.704C59.808 4.704 64.8 8.208 64.8 14.016C64.8 18.768 61.776 21.744 58.32 24.528C55.488 26.784 52.608 29.088 50.304 31.872C49.632 32.688 49.008 33.504 48.336 34.32H56.256C57.936 34.32 59.616 33.984 61.056 33.12C62.544 32.256 63.168 30.912 63.84 29.424L65.424 29.76L63.408 42ZM87.408 42H66.576V40.608C68.16 36.864 70.416 33.456 72.672 30.096C76.224 24.864 80.4 19.488 80.4 12.912C80.4 10.032 79.392 6.48 75.888 6.48C74.352 6.48 71.76 7.824 71.76 9.552C71.76 9.984 72.048 10.224 73.008 10.464C74.736 10.944 75.84 12.432 75.84 14.208C75.84 16.512 74.064 18.672 71.664 18.672C69.216 18.672 67.488 16.368 67.488 14.016C67.488 11.808 68.448 9.6 69.984 7.968C72.144 5.712 75.312 4.704 78.384 4.704C83.808 4.704 88.8 8.208 88.8 14.016C88.8 18.768 85.776 21.744 82.32 24.528C79.488 26.784 76.608 29.088 74.304 31.872C73.632 32.688 73.008 33.504 72.336 34.32H80.256C81.936 34.32 83.616 33.984 85.056 33.12C86.544 32.256 87.168 30.912 87.84 29.424L89.424 29.76L87.408 42Z" fill="#D9D9D9"/>
<path d="M151.408 42H130.576V40.608C132.16 36.864 134.416 33.456 136.672 30.096C140.224 24.864 144.4 19.488 144.4 12.912C144.4 10.032 143.392 6.48 139.888 6.48C138.352 6.48 135.76 7.824 135.76 9.552C135.76 9.984 136.048 10.224 137.008 10.464C138.736 10.944 139.84 12.432 139.84 14.208C139.84 16.512 138.064 18.672 135.664 18.672C133.216 18.672 131.488 16.368 131.488 14.016C131.488 11.808 132.448 9.6 133.984 7.968C136.144 5.712 139.312 4.704 142.384 4.704C147.808 4.704 152.8 8.208 152.8 14.016C152.8 18.768 149.776 21.744 146.32 24.528C143.488 26.784 140.608 29.088 138.304 31.872C137.632 32.688 137.008 33.504 136.336 34.32H144.256C145.936 34.32 147.616 33.984 149.056 33.12C150.544 32.256 151.168 30.912 151.84 29.424L153.424 29.76L151.408 42ZM167.152 22.416C169.648 22.944 172.048 23.616 174.064 25.296C176.272 27.168 177.184 29.52 177.184 32.352C177.184 39.504 172.048 42.96 165.328 42.96C162.256 42.96 158.896 42.24 156.688 39.984C155.488 38.784 154.816 37.104 154.816 35.424C154.816 33.12 156.448 30.912 158.896 30.912C161.008 30.912 162.928 32.64 162.928 34.848C162.928 36.48 161.824 38.112 160.192 38.448C159.904 38.496 159.664 38.736 159.664 39.024C159.664 40.368 161.92 41.184 163.264 41.184C165.04 41.184 166.48 40.272 167.392 38.784C168.448 37.104 168.736 33.216 168.736 31.152C168.736 28.032 168.16 23.52 164.128 23.52C163.504 23.52 162.928 23.616 162.352 23.616C161.68 23.616 161.152 23.136 161.152 22.464C161.152 21.744 161.68 21.312 162.352 21.312C162.928 21.312 163.504 21.408 164.08 21.408C167.776 21.408 167.824 16.416 167.824 13.728C167.824 11.04 167.488 6.432 163.888 6.432C162.928 6.432 161.248 6.864 161.248 8.112C161.248 8.544 161.584 8.688 161.872 8.832C163.072 9.504 163.792 10.704 163.792 12.048C163.792 14.304 162.16 16.176 159.856 16.176C157.504 16.176 155.92 14.208 155.92 11.952C155.92 10.368 156.64 8.832 157.744 7.632C159.856 5.472 163.072 4.704 166.048 4.704C171.52 4.704 175.984 7.44 175.984 13.344C175.984 15.792 175.12 18.144 173.248 19.776C171.472 21.264 169.36 21.936 167.152 22.416Z" fill="#D9D9D9"/>
<path d="M239.408 42H218.576V40.608C220.16 36.864 222.416 33.456 224.672 30.096C228.224 24.864 232.4 19.488 232.4 12.912C232.4 10.032 231.392 6.48 227.888 6.48C226.352 6.48 223.76 7.824 223.76 9.552C223.76 9.984 224.048 10.224 225.008 10.464C226.736 10.944 227.84 12.432 227.84 14.208C227.84 16.512 226.064 18.672 223.664 18.672C221.216 18.672 219.488 16.368 219.488 14.016C219.488 11.808 220.448 9.6 221.984 7.968C224.144 5.712 227.312 4.704 230.384 4.704C235.808 4.704 240.8 8.208 240.8 14.016C240.8 18.768 237.776 21.744 234.32 24.528C231.488 26.784 228.608 29.088 226.304 31.872C225.632 32.688 225.008 33.504 224.336 34.32H232.256C233.936 34.32 235.616 33.984 237.056 33.12C238.544 32.256 239.168 30.912 239.84 29.424L241.424 29.76L239.408 42ZM248.384 40.416H249.632C251.456 40.416 252.56 39.696 252.56 37.776V32.688H243.056V31.056L255.296 4.704H260.912V31.056H264.848V32.688H260.912V37.776C260.912 39.696 262.016 40.416 263.84 40.416H265.088V42H248.384V40.416ZM252.56 14.352L244.784 31.056H252.56V14.352Z" fill="#D9D9D9"/>
<path d="M121 14C121 21.732 114.732 28 107 28C99.268 28 93 21.732 93 14C93 6.26801 99.268 0 107 0C114.732 0 121 6.26801 121 14Z" fill="#D9D9D9"/>
<path d="M111.06 18.245C110.813 18.644 110.547 19.043 110.186 19.518C110.148 19.575 110.148 19.613 110.243 19.613C112.067 19.575 113.435 19.537 114.423 19.461C114.499 19.461 114.518 19.499 114.518 19.556V21.494C114.518 21.551 114.499 21.589 114.423 21.589C112.846 21.475 110.281 21.418 106.424 21.418C102.548 21.418 100.04 21.475 98.577 21.589C98.52 21.589 98.482 21.551 98.482 21.494V19.556C98.482 19.499 98.52 19.461 98.577 19.461C99.432 19.537 100.667 19.575 102.32 19.613C102.396 19.613 102.396 19.556 102.377 19.518C102.016 18.739 101.541 17.903 101.028 17.143C100.99 17.086 101.009 17.048 101.066 17.01L102.586 16.174C102.643 16.155 102.681 16.155 102.719 16.212C103.289 16.953 103.897 17.884 104.353 18.777C104.372 18.815 104.353 18.872 104.315 18.891L103.08 19.537C103.004 19.575 103.004 19.613 103.099 19.613C103.745 19.613 104.448 19.632 105.227 19.632C105.303 19.632 105.322 19.594 105.322 19.537V16.022C105.322 15.965 105.303 15.927 105.227 15.927C103.023 15.946 101.484 16.003 100.439 16.098C100.382 16.098 100.344 16.06 100.344 16.003V14.141C100.344 14.084 100.382 14.046 100.439 14.046C101.484 14.141 103.004 14.198 105.227 14.217C105.303 14.217 105.322 14.179 105.322 14.122V12.868C105.322 12.811 105.303 12.773 105.227 12.773C104.315 12.792 103.574 12.83 102.757 12.906C102.7 12.906 102.662 12.868 102.662 12.811V11.728C102.662 11.671 102.624 11.652 102.567 11.69C101.56 12.488 100.458 13.229 99.242 13.932C99.166 13.97 99.109 13.951 99.071 13.913C98.615 13.419 97.988 12.906 97.475 12.526C97.399 12.469 97.361 12.45 97.361 12.431C97.361 12.412 97.38 12.393 97.418 12.374C100.762 10.873 103.27 8.593 104.543 6.731C104.999 6.066 105.265 5.61 105.436 4.983C105.455 4.926 105.474 4.907 105.512 4.907C105.531 4.907 105.55 4.907 105.626 4.926C106.424 5.173 107.317 5.515 107.83 5.762C108.134 5.914 108.096 6.199 107.792 6.313C107.735 6.332 107.64 6.37 107.697 6.465C109.673 9.03 112.39 10.854 115.525 11.918C115.582 11.937 115.582 11.956 115.582 11.975C115.582 11.994 115.563 12.013 115.544 12.032C114.917 12.545 114.309 13.115 113.72 13.723C113.682 13.761 113.625 13.799 113.549 13.761C112.39 13.153 111.383 12.545 110.49 11.937C110.433 11.899 110.395 11.918 110.395 11.975V12.792C110.395 12.849 110.376 12.887 110.3 12.887C109.483 12.811 108.552 12.792 107.545 12.773C107.488 12.773 107.45 12.811 107.45 12.868V14.122C107.45 14.179 107.488 14.217 107.545 14.217C109.673 14.198 111.25 14.16 112.39 14.046C112.466 14.046 112.485 14.084 112.485 14.141V16.003C112.485 16.06 112.466 16.098 112.39 16.098C111.25 16.003 109.673 15.946 107.545 15.927C107.488 15.927 107.45 15.965 107.45 16.022V19.537C107.45 19.594 107.488 19.632 107.545 19.632C108.229 19.632 108.856 19.632 109.445 19.613C109.521 19.613 109.502 19.575 109.464 19.556C109.103 19.385 108.761 19.233 108.362 19.062C108.324 19.043 108.286 19.005 108.343 18.929C108.761 18.416 109.103 17.827 109.388 17.314C109.597 16.934 109.73 16.573 109.806 16.231C109.825 16.155 109.863 16.155 109.92 16.174C110.471 16.383 111.383 16.801 111.782 17.01C112.086 17.181 112.086 17.447 111.763 17.561C111.497 17.656 111.307 17.865 111.06 18.245ZM106.386 7.985C106.348 7.928 106.291 7.928 106.253 7.985C105.417 9.049 104.486 10.037 103.441 10.949C103.403 10.987 103.422 11.025 103.46 11.025C104.334 11.082 105.265 11.101 106.405 11.101C107.431 11.101 108.343 11.101 109.198 11.044C109.274 11.044 109.293 11.025 109.236 10.987C108.172 10.113 107.26 9.144 106.386 7.985Z" fill="#333333"/>
<path d="M209 14C209 21.732 202.732 28 195 28C187.268 28 181 21.732 181 14C181 6.26801 187.268 0 195 0C202.732 0 209 6.26801 209 14Z" fill="#D9D9D9"/>
<path d="M195.64 13.362C195.583 13.362 195.545 13.4 195.545 13.457V19.024C195.545 19.081 195.583 19.119 195.64 19.119C198.338 19.1 200.694 19.062 202.537 18.967C202.613 18.967 202.632 19.005 202.632 19.062V21.171C202.632 21.228 202.613 21.266 202.537 21.266C200.466 21.152 197.73 21.114 194.538 21.114C191.346 21.114 188.534 21.152 186.406 21.266C186.349 21.266 186.311 21.228 186.311 21.171V19.062C186.311 19.005 186.349 18.967 186.406 18.967C188.23 19.062 190.529 19.1 193.189 19.119C193.265 19.119 193.284 19.081 193.284 19.024V13.457C193.284 13.4 193.265 13.362 193.189 13.362C191.194 13.381 189.503 13.419 188.059 13.514C188.002 13.514 187.964 13.476 187.964 13.419V11.215C187.964 11.158 188.002 11.12 188.059 11.12C189.503 11.215 191.175 11.253 193.189 11.272C193.265 11.272 193.284 11.234 193.284 11.177V9.448C193.284 8.175 193.208 6.997 193.037 6.104C193.018 6.028 193.075 5.99 193.132 5.99C193.892 6.066 195.07 6.18 195.64 6.275C196.077 6.351 196.115 6.617 195.83 6.902C195.621 7.111 195.545 7.624 195.545 8.84V11.177C195.545 11.234 195.583 11.272 195.64 11.272C197.787 11.253 199.554 11.215 201.074 11.12C201.15 11.12 201.169 11.158 201.169 11.215V13.419C201.169 13.476 201.15 13.514 201.074 13.514C199.554 13.419 197.787 13.381 195.64 13.362Z" fill="#333333"/>
<path d="M297 14C297 21.732 290.732 28 283 28C275.268 28 269 21.732 269 14C269 6.26801 275.268 0 283 0C290.732 0 297 6.26801 297 14Z" fill="#D9D9D9"/>
<path d="M288.656 22.045C288.656 22.102 288.618 22.14 288.561 22.14H286.357C286.3 22.14 286.262 22.102 286.262 22.045V20.753C286.262 20.696 286.224 20.658 286.167 20.658H278.833C278.776 20.658 278.738 20.696 278.738 20.753V22.064C278.738 22.121 278.7 22.159 278.643 22.159H276.477C276.42 22.159 276.382 22.121 276.382 22.064C276.496 20.335 276.572 17.466 276.572 14.293C276.572 11.082 276.572 8.555 276.534 6.446C276.534 6.37 276.572 6.351 276.629 6.351C278.529 6.389 281.075 6.408 282.5 6.408C284.058 6.408 286.509 6.389 288.39 6.351C288.466 6.351 288.485 6.389 288.485 6.446C288.447 8.498 288.447 10.93 288.447 14.084C288.447 17.827 288.542 20.506 288.656 22.045ZM278.833 12.355H286.167C286.224 12.355 286.262 12.317 286.262 12.26V8.536C286.262 8.479 286.224 8.441 286.167 8.441H278.833C278.776 8.441 278.738 8.479 278.738 8.536V12.26C278.738 12.317 278.776 12.355 278.833 12.355ZM286.167 14.388H278.833C278.776 14.388 278.738 14.426 278.738 14.483V18.53C278.738 18.587 278.776 18.625 278.833 18.625H286.167C286.224 18.625 286.262 18.587 286.262 18.53V14.483C286.262 14.426 286.224 14.388 286.167 14.388Z" fill="#333333"/>
</svg>
