<svg width="146" height="32" viewBox="0 0 146 32" fill="none" xmlns="http://www.w3.org/2000/svg">
<path d="M5.76 30V12.464L2.016 14.96L0 11.696L6.656 7.568H9.568V30H5.76ZM12.8325 30V28.848C12.8325 27.8453 12.9925 26.864 13.3125 25.904C13.6325 24.9227 14.1658 23.9093 14.9125 22.864C15.6805 21.8187 16.7152 20.6773 18.0165 19.44C18.6565 18.8213 19.2645 18.2027 19.8405 17.584C20.4165 16.9653 20.8858 16.3573 21.2485 15.76C21.6112 15.1413 21.8032 14.5653 21.8245 14.032C21.8458 13.0293 21.6218 12.2827 21.1525 11.792C20.7045 11.3013 20.0432 11.056 19.1685 11.056C18.3152 11.056 17.6965 11.3653 17.3125 11.984C16.9285 12.6027 16.7365 13.4773 16.7365 14.608H12.9285C12.9285 12.3253 13.5045 10.5547 14.6565 9.296C15.8298 8.03733 17.3338 7.408 19.1685 7.408C20.4058 7.408 21.5152 7.67467 22.4965 8.208C23.4992 8.72 24.2778 9.47733 24.8325 10.48C25.4085 11.4613 25.6752 12.6773 25.6325 14.128C25.6112 15.152 25.3765 16.08 24.9285 16.912C24.5018 17.744 23.9152 18.5653 23.1685 19.376C22.4432 20.1653 21.6005 21.0187 20.6405 21.936C19.7232 22.8533 18.9018 23.7173 18.1765 24.528C17.4725 25.3387 17.0565 26 16.9285 26.512H25.1845V30H12.8325ZM33.9237 22.155C32.4087 22.155 31.2837 22.155 29.8587 22.2C29.8137 22.2 29.7837 22.17 29.7837 22.125C29.8287 21.27 29.8437 20.61 29.8437 19.995C29.8437 19.365 29.8437 18.825 29.7987 18.045C29.7987 17.985 29.8287 17.97 29.8737 17.97C31.2987 18.03 32.4087 18.03 33.9237 18.03C35.5137 18.03 36.5938 18.03 38.0488 17.97C38.1088 17.97 38.1237 17.985 38.1237 18.045C38.0787 18.825 38.0787 19.365 38.0787 19.995C38.0787 20.595 38.0937 21.27 38.1387 22.125C38.1387 22.17 38.1237 22.2 38.0637 22.2C36.6087 22.155 35.5137 22.155 33.9237 22.155ZM36.3537 20.73V19.47C36.3537 19.425 36.3237 19.395 36.2787 19.395H31.6137C31.5687 19.395 31.5387 19.425 31.5387 19.47V20.73C31.5387 20.775 31.5687 20.805 31.6137 20.805H36.2787C36.3237 20.805 36.3537 20.775 36.3537 20.73ZM33.9837 24.39H32.8587C32.8287 24.39 32.7837 24.42 32.7687 24.465C32.6487 24.705 32.5287 24.975 32.4087 25.245C32.3787 25.305 32.4087 25.335 32.4687 25.335H36.8187C37.3287 25.335 38.0338 25.335 38.5587 25.305C38.6187 25.305 38.6487 25.335 38.6337 25.395C38.5587 25.83 38.4987 26.25 38.3938 26.775C38.0488 28.59 37.8687 29.415 37.3137 30.105C36.9087 30.6 36.2487 30.915 35.2137 30.915C34.7337 30.915 34.3287 30.885 33.9087 30.84C33.8637 30.84 33.8337 30.81 33.8187 30.75C33.7137 30.255 33.5637 29.745 33.3237 29.205C33.3087 29.175 33.3087 29.13 33.3687 29.145C33.8037 29.235 34.3737 29.295 34.7937 29.295C35.5438 29.295 35.9037 29.19 36.1738 28.455C36.3237 28.035 36.5037 27.39 36.6087 26.805C36.6237 26.76 36.5938 26.73 36.5487 26.73H31.7787C31.7337 26.73 31.6887 26.76 31.6737 26.79C31.4787 27.18 31.2837 27.54 31.1037 27.84C31.0737 27.885 31.0287 27.9 30.9837 27.885L29.4537 27.315C29.3937 27.3 29.3787 27.27 29.4237 27.21C29.8737 26.625 30.5037 25.425 30.9237 24.495C30.9537 24.435 30.9237 24.405 30.8637 24.405C29.3637 24.42 28.2387 24.45 27.2187 24.525C27.1737 24.525 27.1437 24.495 27.1437 24.45V22.905C27.1437 22.86 27.1737 22.83 27.2187 22.83C28.8387 22.95 30.7137 22.965 33.9837 22.965C37.1637 22.965 39.0537 22.95 40.6588 22.83C40.7187 22.83 40.7338 22.86 40.7338 22.905V24.45C40.7338 24.495 40.7187 24.525 40.6588 24.525C39.0537 24.42 37.1637 24.39 33.9837 24.39ZM43.2837 27.315C43.2537 27.27 43.2687 27.225 43.3137 27.21L44.4687 26.76C44.5137 26.745 44.5587 26.745 44.5887 26.79C45.0987 27.51 45.6537 28.455 46.0737 29.37C46.1037 29.43 46.0737 29.46 46.0437 29.475L44.6937 30.12C44.6487 30.135 44.6037 30.12 44.5887 30.075C44.4837 29.76 44.3637 29.46 44.2437 29.19C44.2137 29.13 44.1987 29.13 44.1537 29.145C43.2237 29.49 42.1887 29.865 41.4087 30.135C40.7337 30.36 40.5537 30.405 40.4037 30.645C40.2537 30.9 40.0587 30.87 39.9537 30.63C39.7887 30.285 39.5187 29.58 39.3687 29.115C39.3537 29.07 39.3837 29.025 39.4287 29.025C39.7137 29.01 40.0287 28.965 40.3587 28.89C40.4187 28.875 40.4337 28.845 40.4337 28.8V25.245C40.4337 24.06 40.4337 22.845 40.4187 22.065C40.4187 22.005 40.3887 21.99 40.3437 22.02C40.2387 22.095 40.1337 22.17 40.0137 22.245C39.9687 22.275 39.9237 22.275 39.8937 22.215C39.6537 21.825 39.3087 21.405 38.9487 21.015C38.9337 21 38.9187 20.985 38.9187 20.955C38.9187 20.94 38.9337 20.925 38.9637 20.91C40.2087 20.235 41.2887 19.155 41.7837 18.39C42.0387 18 42.1887 17.715 42.2937 17.445C42.3087 17.4 42.3237 17.385 42.3537 17.385C42.3687 17.385 42.3987 17.4 42.4737 17.43C42.7587 17.55 43.3737 17.82 43.7487 18C43.9887 18.135 43.9887 18.345 43.7637 18.435C43.7037 18.465 43.6887 18.495 43.7337 18.525C44.3187 18.96 45.0687 19.41 45.6537 19.65C45.6987 19.665 45.7137 19.71 45.6837 19.755C45.4137 20.115 45.1287 20.535 44.9037 20.94C44.8737 20.985 44.8437 21 44.7837 20.97C44.1237 20.58 43.4937 20.1 42.9237 19.575C42.8937 19.545 42.8487 19.545 42.8187 19.59C42.6537 19.8 42.4887 20.025 42.2937 20.235C42.2637 20.265 42.2787 20.31 42.3237 20.31C42.8187 20.355 43.3437 20.415 43.6287 20.46C43.8837 20.505 43.9437 20.655 43.7787 20.82C43.6587 20.94 43.6137 21.045 43.6137 21.495C43.6137 21.54 43.6437 21.57 43.6887 21.57C44.2587 21.57 44.7237 21.555 45.2487 21.54C45.3087 21.54 45.3237 21.555 45.3237 21.615C45.2937 22.29 45.2937 23.235 45.2937 24.03C45.2937 24.825 45.3087 25.815 45.3387 26.49C45.3387 26.535 45.3237 26.565 45.2637 26.565C44.4837 26.535 43.8537 26.535 42.8487 26.535H41.9787C41.9337 26.535 41.9037 26.565 41.9037 26.61V28.395C41.9037 28.455 41.9487 28.485 41.9937 28.47C42.5037 28.32 43.0587 28.14 43.5537 27.975C43.5987 27.96 43.6287 27.93 43.5987 27.87C43.4937 27.675 43.3887 27.48 43.2837 27.315ZM52.0737 26.115C52.1337 26.115 52.1487 26.145 52.1487 26.19C52.1187 26.73 52.1187 27.39 52.1187 28.095C52.1187 29.25 52.1487 30.03 52.1937 30.69C52.1937 30.735 52.1637 30.765 52.1187 30.765H50.6187C50.5737 30.765 50.5437 30.735 50.5437 30.69V30.06C50.5437 30.015 50.5137 29.985 50.4687 29.985H48.1587C48.1137 29.985 48.0837 30.015 48.0837 30.06V30.825C48.0837 30.87 48.0537 30.9 48.0087 30.9H46.4937C46.4487 30.9 46.4187 30.87 46.4187 30.825C46.4937 29.475 46.5087 27.3 46.5087 25.83C46.5087 24.705 46.5087 23.46 46.4937 22.425C46.4937 22.38 46.4637 22.35 46.4187 22.35H45.7287C45.6837 22.35 45.6537 22.32 45.6537 22.275C45.7137 21.615 45.7437 20.775 45.7437 20.235C45.7437 19.86 45.7437 19.65 45.7137 19.17C45.7137 19.11 45.7437 19.095 45.7887 19.095C46.5987 19.125 47.2287 19.14 48.3087 19.14C48.3687 19.14 48.3837 19.11 48.3837 19.065C48.3837 18.495 48.3537 18.045 48.2787 17.64C48.2637 17.58 48.3087 17.55 48.3537 17.55C48.9987 17.595 49.5687 17.655 49.8687 17.7C50.2587 17.76 50.3937 17.91 50.1237 18.18C50.0187 18.285 49.9887 18.555 49.9887 18.825V19.065C49.9887 19.11 50.0187 19.14 50.0637 19.14C51.2787 19.14 52.0287 19.125 52.8687 19.095C52.9287 19.095 52.9437 19.125 52.9437 19.17C52.9137 19.65 52.9137 19.86 52.9137 20.235C52.9137 20.775 52.9287 21.585 52.9887 22.275C52.9887 22.32 52.9737 22.35 52.9287 22.35H51.5787C51.5337 22.35 51.5037 22.38 51.5037 22.425V23.37C51.5037 24.09 51.5187 24.585 51.5487 25.23C51.5487 25.275 51.5337 25.305 51.4737 25.305C50.6637 25.275 49.9737 25.275 48.9537 25.275H48.1587C48.1137 25.275 48.0837 25.305 48.0837 25.35V26.07C48.0837 26.115 48.1137 26.145 48.1587 26.145H49.5837C50.4087 26.145 51.2487 26.13 52.0737 26.115ZM51.2637 21.48C51.3237 21.48 51.3387 21.45 51.3387 21.405V20.565C51.3387 20.52 51.3087 20.49 51.2637 20.49H47.3637C47.3187 20.49 47.2887 20.52 47.2887 20.565V21.405C47.2887 21.465 47.3187 21.495 47.3637 21.495H48.9687C49.8987 21.495 50.5587 21.495 51.2637 21.48ZM42.0687 20.61C42.0537 20.55 42.0237 20.55 41.9937 20.58C41.6937 20.895 41.3787 21.21 41.0187 21.51C40.9887 21.54 41.0037 21.555 41.0337 21.555C41.3787 21.57 41.7087 21.57 42.0837 21.57C42.1437 21.57 42.1587 21.54 42.1587 21.495C42.1587 21.18 42.1287 20.88 42.0687 20.61ZM41.9037 22.845V23.34C41.9037 23.385 41.9337 23.415 41.9787 23.415H43.7787C43.8237 23.415 43.8537 23.385 43.8537 23.34V22.845C43.8537 22.8 43.8237 22.77 43.7787 22.77H41.9787C41.9337 22.77 41.9037 22.8 41.9037 22.845ZM48.0837 22.845V23.91C48.0837 23.955 48.1137 23.985 48.1587 23.985H49.8537C49.8987 23.985 49.9287 23.955 49.9287 23.91V22.845C49.9287 22.8 49.8987 22.77 49.8537 22.77H48.1587C48.1137 22.77 48.0837 22.8 48.0837 22.845ZM43.7787 24.615H41.9787C41.9337 24.615 41.9037 24.645 41.9037 24.69V25.23C41.9037 25.275 41.9337 25.305 41.9787 25.305H43.7787C43.8237 25.305 43.8537 25.275 43.8537 25.23V24.69C43.8537 24.645 43.8237 24.615 43.7787 24.615ZM50.4687 27.51H48.1587C48.1137 27.51 48.0837 27.54 48.0837 27.585V28.575C48.0837 28.62 48.1137 28.65 48.1587 28.65H50.4687C50.5137 28.65 50.5437 28.62 50.5437 28.575V27.585C50.5437 27.54 50.5137 27.51 50.4687 27.51Z" fill="#D9D9D9"/>
<path d="M65.76 30V12.464L62.016 14.96L60 11.696L66.656 7.568H69.568V30H65.76ZM74.1125 30V28.848C74.1125 27.8453 74.2725 26.864 74.5925 25.904C74.9125 24.9227 75.4458 23.9093 76.1925 22.864C76.9605 21.8187 77.9952 20.6773 79.2965 19.44C79.9365 18.8213 80.5445 18.2027 81.1205 17.584C81.6965 16.9653 82.1658 16.3573 82.5285 15.76C82.8912 15.1413 83.0832 14.5653 83.1045 14.032C83.1258 13.0293 82.9018 12.2827 82.4325 11.792C81.9845 11.3013 81.3232 11.056 80.4485 11.056C79.5952 11.056 78.9765 11.3653 78.5925 11.984C78.2085 12.6027 78.0165 13.4773 78.0165 14.608H74.2085C74.2085 12.3253 74.7845 10.5547 75.9365 9.296C77.1098 8.03733 78.6138 7.408 80.4485 7.408C81.6858 7.408 82.7952 7.67467 83.7765 8.208C84.7792 8.72 85.5578 9.47733 86.1125 10.48C86.6885 11.4613 86.9552 12.6773 86.9125 14.128C86.8912 15.152 86.6565 16.08 86.2085 16.912C85.7818 17.744 85.1952 18.5653 84.4485 19.376C83.7232 20.1653 82.8805 21.0187 81.9205 21.936C81.0032 22.8533 80.1818 23.7173 79.4565 24.528C78.7525 25.3387 78.3365 26 78.2085 26.512H86.4645V30H74.1125ZM88.5188 30V28.848C88.5188 27.8453 88.6788 26.864 88.9988 25.904C89.3188 24.9227 89.8521 23.9093 90.5988 22.864C91.3668 21.8187 92.4014 20.6773 93.7028 19.44C94.3428 18.8213 94.9508 18.2027 95.5268 17.584C96.1028 16.9653 96.5721 16.3573 96.9348 15.76C97.2974 15.1413 97.4894 14.5653 97.5108 14.032C97.5321 13.0293 97.3081 12.2827 96.8388 11.792C96.3908 11.3013 95.7294 11.056 94.8548 11.056C94.0014 11.056 93.3828 11.3653 92.9988 11.984C92.6148 12.6027 92.4227 13.4773 92.4227 14.608H88.6148C88.6148 12.3253 89.1908 10.5547 90.3428 9.296C91.5161 8.03733 93.0201 7.408 94.8548 7.408C96.0921 7.408 97.2014 7.67467 98.1828 8.208C99.1854 8.72 99.9641 9.47733 100.519 10.48C101.095 11.4613 101.361 12.6773 101.319 14.128C101.297 15.152 101.063 16.08 100.615 16.912C100.188 17.744 99.6014 18.5653 98.8548 19.376C98.1294 20.1653 97.2868 21.0187 96.3268 21.936C95.4094 22.8533 94.5881 23.7173 93.8628 24.528C93.1588 25.3387 92.7428 26 92.6148 26.512H100.871V30H88.5188ZM107.885 30V12.464L104.141 14.96L102.125 11.696L108.781 7.568H111.693V30H107.885ZM127.423 27.165C127.393 27.225 127.393 27.27 127.423 27.3C128.098 28.08 128.998 28.755 130.258 29.355C130.288 29.37 130.303 29.385 130.303 29.4C130.303 29.415 130.288 29.43 130.258 29.445C129.793 29.79 129.388 30.15 128.968 30.6C128.953 30.615 128.908 30.63 128.863 30.6C127.873 29.865 127.123 29.22 126.523 28.56C126.478 28.515 126.463 28.515 126.418 28.56C125.638 29.415 124.588 30.12 123.238 30.735C123.208 30.75 123.193 30.75 123.178 30.75C123.163 30.75 123.133 30.735 123.103 30.705C122.728 30.3 122.353 29.97 121.918 29.655C121.873 29.625 121.888 29.58 121.933 29.565C123.568 28.98 124.708 28.23 125.503 27.285C125.533 27.255 125.533 27.21 125.503 27.165C124.993 26.25 124.633 25.23 124.303 23.91C124.288 23.865 124.273 23.85 124.243 23.895C124.093 24.105 123.928 24.33 123.748 24.555C123.718 24.6 123.673 24.585 123.643 24.555C123.328 24.195 122.968 23.925 122.638 23.685C122.593 23.655 122.593 23.61 122.623 23.58C122.758 23.43 122.893 23.265 123.012 23.07C123.043 23.025 123.043 22.995 122.983 22.995C122.533 22.965 122.128 22.95 121.588 22.935C121.528 22.935 121.498 22.935 121.453 22.995C121.288 23.205 121.108 23.4 120.928 23.595C120.898 23.625 120.913 23.655 120.958 23.655H121.108C121.483 23.655 121.603 23.655 121.768 23.55C121.888 23.475 121.978 23.475 122.143 23.61C122.398 23.82 122.698 24.15 122.938 24.42C123.088 24.6 123.043 24.75 122.818 24.825C122.578 24.9 122.338 25.095 122.143 25.305C121.693 25.785 121.333 26.16 120.958 26.49C120.928 26.52 120.898 26.55 120.928 26.595L120.943 26.625C120.958 26.655 120.988 26.685 121.048 26.67C121.978 26.49 122.923 26.28 123.793 26.055C123.853 26.04 123.883 26.07 123.883 26.13C123.853 26.46 123.823 26.895 123.823 27.27C123.823 27.315 123.808 27.345 123.748 27.36C123.103 27.51 122.293 27.66 121.468 27.825C121.408 27.84 121.393 27.855 121.408 27.915C121.453 28.185 121.483 28.455 121.483 28.755C121.483 30.135 120.688 30.75 119.292 30.75C118.903 30.75 118.663 30.735 118.288 30.69C118.243 30.69 118.213 30.66 118.198 30.6C118.078 30.18 117.943 29.7 117.808 29.25C117.793 29.205 117.808 29.175 117.853 29.19C118.303 29.265 118.858 29.325 119.292 29.325C119.863 29.325 120.013 29.04 120.013 28.59C120.013 28.455 119.998 28.32 119.983 28.185C119.968 28.14 119.953 28.11 119.893 28.125C119.143 28.26 118.423 28.395 117.823 28.485C117.403 28.545 117.298 28.59 117.223 28.665C117.028 28.86 116.908 28.875 116.788 28.605C116.638 28.245 116.473 27.69 116.353 27.3C116.338 27.255 116.383 27.21 116.427 27.21C117.103 27.21 117.823 27.18 118.603 27.075L119.443 26.955C119.503 26.94 119.518 26.91 119.488 26.85C119.323 26.535 119.113 26.235 118.903 25.98C118.873 25.95 118.888 25.905 118.933 25.875L119.893 25.275C119.938 25.26 119.968 25.275 119.998 25.305L120.163 25.485C120.193 25.515 120.238 25.515 120.268 25.485C120.448 25.29 120.643 25.035 120.793 24.795C120.823 24.75 120.808 24.72 120.748 24.72H119.878C119.833 24.72 119.788 24.735 119.743 24.78C118.888 25.545 117.988 26.19 116.953 26.82C116.908 26.85 116.848 26.835 116.818 26.805C116.503 26.475 116.248 26.265 115.932 26.025C115.888 25.995 115.843 25.965 115.843 25.95C115.843 25.935 115.873 25.905 115.903 25.89C116.548 25.56 117.118 25.215 117.673 24.81C117.718 24.78 117.703 24.75 117.658 24.75C117.343 24.765 117.073 24.78 116.788 24.81C116.743 24.81 116.713 24.78 116.713 24.735V23.625C116.713 23.58 116.743 23.55 116.788 23.55C117.417 23.61 118.063 23.64 118.978 23.64C119.038 23.64 119.083 23.625 119.113 23.595C119.308 23.4 119.518 23.19 119.698 22.98C119.728 22.95 119.728 22.92 119.683 22.92C118.108 22.92 117.298 22.95 116.338 23.01C116.293 23.01 116.263 22.98 116.263 22.935V21.675C116.263 21.63 116.293 21.6 116.338 21.6C117.103 21.66 117.793 21.675 118.858 21.69C118.918 21.69 118.933 21.66 118.933 21.615V20.61C118.933 20.565 118.918 20.535 118.858 20.535C118.018 20.55 117.568 20.565 117.088 20.61C117.043 20.61 117.013 20.58 117.013 20.535V19.275C117.013 19.23 117.043 19.2 117.088 19.2C117.568 19.245 118.018 19.26 118.858 19.275C118.918 19.275 118.933 19.245 118.933 19.2V19.14C118.933 18.555 118.888 18.105 118.783 17.7C118.768 17.64 118.813 17.61 118.858 17.61C119.518 17.655 119.983 17.73 120.508 17.835C120.823 17.895 120.823 18.075 120.643 18.225C120.448 18.375 120.433 18.585 120.433 19.155V19.2C120.433 19.245 120.463 19.275 120.508 19.275C120.928 19.26 121.258 19.245 121.588 19.215C121.648 19.215 121.663 19.23 121.663 19.275V20.1C121.663 20.145 121.693 20.16 121.723 20.1L121.843 19.875C122.233 19.125 122.353 18.795 122.428 18.33C122.428 18.285 122.473 18.27 122.518 18.285C122.908 18.435 123.493 18.705 123.928 18.93C124.243 19.095 124.228 19.245 124.003 19.395C123.733 19.575 123.508 19.905 123.253 20.355C123.012 20.775 122.758 21.18 122.503 21.57C122.473 21.615 122.503 21.645 122.548 21.645L123.028 21.6C123.088 21.6 123.103 21.63 123.103 21.675V22.86C123.103 22.905 123.133 22.92 123.163 22.875C123.988 21.615 124.663 19.875 124.888 18.585C124.948 18.24 124.978 17.805 124.963 17.565C124.963 17.505 124.978 17.49 125.008 17.49C125.023 17.49 125.053 17.49 125.113 17.505C125.698 17.61 126.298 17.775 126.673 17.925C126.898 18 126.943 18.165 126.688 18.375C126.538 18.495 126.463 18.72 126.343 19.155C126.253 19.485 126.148 19.83 126.043 20.145C126.028 20.19 126.058 20.235 126.103 20.235H127.738C128.458 20.235 129.178 20.205 129.838 20.145C129.898 20.145 129.913 20.175 129.913 20.22V21.66C129.913 21.705 129.898 21.735 129.838 21.735C129.523 21.705 129.193 21.675 128.863 21.675C128.818 21.675 128.773 21.69 128.773 21.735C128.578 24.015 128.203 25.77 127.423 27.165ZM121.408 20.655C121.438 20.61 121.423 20.58 121.363 20.58L120.508 20.535C120.463 20.535 120.433 20.565 120.433 20.61V21.615C120.433 21.66 120.463 21.69 120.508 21.69H120.658C120.718 21.69 120.748 21.66 120.778 21.615C121.003 21.315 121.213 20.985 121.408 20.655ZM124.828 22.98C124.812 23.01 124.812 23.04 124.858 23.025L125.548 22.905C125.593 22.89 125.623 22.905 125.638 22.965C125.818 23.94 126.058 24.825 126.403 25.635C126.418 25.665 126.448 25.68 126.463 25.635C126.898 24.54 127.093 23.235 127.138 21.72C127.138 21.675 127.123 21.645 127.063 21.645H125.563C125.518 21.645 125.488 21.66 125.458 21.72C125.278 22.14 125.068 22.56 124.828 22.98ZM142.513 20.565H133.333C133.288 20.565 133.258 20.595 133.258 20.64V22.59C133.258 22.635 133.228 22.665 133.183 22.665H131.608C131.563 22.665 131.548 22.65 131.548 22.59C131.623 21.9 131.638 21.195 131.638 20.55C131.638 20.1 131.638 19.725 131.608 19.215C131.608 19.155 131.638 19.14 131.683 19.14C132.913 19.2 134.023 19.215 136.948 19.215C137.008 19.215 137.023 19.185 137.023 19.14V18.855C137.023 18.435 136.978 18 136.903 17.565C136.888 17.505 136.933 17.475 136.978 17.475C137.638 17.505 138.357 17.58 138.763 17.64C139.168 17.7 139.228 17.865 138.958 18.135C138.838 18.255 138.808 18.465 138.808 18.765V19.14C138.808 19.185 138.838 19.215 138.883 19.215C141.808 19.215 142.948 19.2 144.193 19.14C144.253 19.14 144.268 19.17 144.268 19.215C144.238 19.71 144.238 20.115 144.238 20.55C144.238 21.195 144.253 21.9 144.328 22.59C144.328 22.635 144.313 22.665 144.268 22.665H142.663C142.618 22.665 142.588 22.635 142.588 22.59V20.64C142.588 20.595 142.558 20.565 142.513 20.565ZM138.823 27.93C138.778 27.93 138.748 27.96 138.748 28.005V28.875C138.748 28.92 138.778 28.95 138.823 28.95C141.343 28.95 142.948 28.92 144.343 28.815C144.403 28.815 144.418 28.845 144.418 28.89V30.39C144.418 30.435 144.403 30.465 144.343 30.465C142.798 30.36 140.998 30.33 137.998 30.33C135.028 30.33 133.078 30.36 131.533 30.465C131.488 30.465 131.458 30.435 131.458 30.39V28.89C131.458 28.845 131.488 28.815 131.533 28.815C132.898 28.92 134.548 28.95 136.963 28.95C137.023 28.95 137.038 28.92 137.038 28.875V28.005C137.038 27.96 137.023 27.93 136.963 27.93C135.238 27.93 134.353 27.945 133.363 28.02C133.318 28.02 133.288 27.99 133.288 27.945V26.565C133.288 26.52 133.318 26.49 133.363 26.49C134.353 26.565 135.238 26.58 136.963 26.58C137.023 26.58 137.038 26.55 137.038 26.505V25.575C137.038 25.53 137.023 25.515 136.963 25.515C136.333 25.53 135.778 25.56 135.298 25.575C134.338 25.605 134.098 25.635 133.978 25.74C133.753 25.95 133.618 25.92 133.513 25.635C133.408 25.335 133.213 24.585 133.123 24.165C133.108 24.105 133.138 24.075 133.198 24.09C133.708 24.18 134.397 24.21 135.178 24.225C135.253 24.225 135.283 24.195 135.313 24.15C135.598 23.73 135.943 23.175 136.183 22.755C136.198 22.725 136.198 22.68 136.138 22.68C135.298 22.71 134.608 22.74 133.813 22.8C133.768 22.8 133.738 22.77 133.738 22.725V21.345C133.738 21.3 133.768 21.27 133.813 21.27C135.118 21.375 136.108 21.405 137.968 21.405C139.843 21.405 140.863 21.36 142.063 21.27C142.123 21.27 142.138 21.3 142.138 21.345V22.725C142.138 22.77 142.123 22.8 142.063 22.8C140.908 22.71 139.933 22.665 138.178 22.665C138.133 22.665 138.088 22.68 138.058 22.725C137.758 23.16 137.368 23.745 137.083 24.15C137.053 24.195 137.083 24.225 137.113 24.225C137.983 24.21 139.018 24.195 139.933 24.165C139.978 24.165 139.978 24.135 139.948 24.105L139.423 23.67C139.363 23.625 139.378 23.595 139.423 23.55L140.338 22.875C140.383 22.845 140.413 22.845 140.458 22.875C141.238 23.445 142.228 24.195 143.068 24.96C143.098 24.99 143.113 25.035 143.068 25.08L141.988 26.07C141.943 26.1 141.913 26.085 141.883 26.055C141.688 25.83 141.463 25.59 141.238 25.35C141.193 25.305 141.178 25.305 141.118 25.305C140.338 25.35 139.573 25.38 138.823 25.425C138.778 25.425 138.748 25.455 138.748 25.5V26.505C138.748 26.55 138.778 26.58 138.823 26.58C140.593 26.58 141.478 26.565 142.468 26.49C142.528 26.49 142.543 26.52 142.543 26.565V27.945C142.543 27.99 142.528 28.02 142.468 28.02C141.478 27.945 140.593 27.93 138.823 27.93Z" fill="#D9D9D9"/>
</svg>
