<svg width="20" height="65" viewBox="0 0 20 65" fill="none" xmlns="http://www.w3.org/2000/svg">
<path d="M6.432 0.271999C6.448 0.239999 6.512 0.223999 6.608 0.223999C6.688 0.223999 6.752 0.239999 6.784 0.271999L6.832 0.527999C7.024 1.584 7.328 2 8.288 2.064L15.984 2.592L16.208 2.592C16.992 2.592 17.136 2.112 17.36 1.216L17.424 0.96C17.456 0.928 17.52 0.912 17.6 0.912C17.696 0.912 17.76 0.928 17.776 0.96C17.776 1.248 17.712 2.816 17.712 3.52C17.712 3.744 17.728 4.048 17.728 4.128C17.728 4.176 17.696 4.208 17.648 4.208C17.376 4.208 16.944 4.272 16.432 4.48L8.56 7.552C8.512 7.568 8.512 7.6 8.56 7.616L15.696 10.944C16.704 11.408 17.136 11.568 17.648 11.584C17.696 11.584 17.728 11.616 17.728 11.664L17.728 14.544C17.712 14.576 17.648 14.592 17.552 14.592C17.472 14.592 17.392 14.576 17.376 14.544L17.344 14.288C17.216 13.232 16.992 12.912 16.064 12.88L8.08 13.264C7.056 13.312 6.992 13.68 6.816 14.704L6.768 14.992C6.736 15.024 6.672 15.04 6.592 15.04C6.512 15.04 6.448 15.024 6.432 14.992L6.432 10.592C6.448 10.56 6.528 10.544 6.608 10.544C6.704 10.544 6.768 10.56 6.784 10.592L6.816 10.848C6.896 11.52 7.088 12.032 7.952 12.032L8.096 12.032L15.664 11.68C15.712 11.68 15.712 11.648 15.68 11.632L9.264 8.592C8.288 8.128 7.472 7.776 6.64 7.44C6.576 7.424 6.576 7.024 6.64 7.008C7.536 6.736 8.176 6.48 9.088 6.112L16.08 3.296C16.112 3.28 16.128 3.232 16.08 3.232L8.496 2.752C8.208 2.736 8.096 2.736 8.032 2.736C7.216 2.736 7.008 3.088 6.816 4.208L6.768 4.48C6.736 4.512 6.672 4.528 6.592 4.528C6.512 4.528 6.448 4.512 6.432 4.48L6.432 0.271999ZM6.288 20.3666C6.288 16.8146 8.672 14.7346 11.856 14.7346C16.048 14.7346 17.888 17.8866 17.888 20.4626C17.888 23.8386 15.52 25.9986 12.32 25.9986C8.128 25.9986 6.288 22.8946 6.288 20.3666ZM6.848 20.6226C6.848 23.2946 8.928 24.5426 11.6 24.5426C14.704 24.5426 17.312 22.8306 17.312 20.0946C17.312 17.5506 15.2 16.1906 12.528 16.1906C9.44 16.1906 6.848 17.8866 6.848 20.6226ZM6.432 25.9869C6.448 25.9549 6.528 25.9389 6.608 25.9389C6.704 25.9389 6.768 25.9549 6.784 25.9869L6.816 26.2429C6.928 27.1229 7.104 27.5869 8.176 27.5869L16.128 27.5869C17.136 27.5869 17.216 27.1869 17.344 26.3229L17.392 25.9869C17.424 25.9549 17.488 25.9389 17.568 25.9389C17.664 25.9389 17.728 25.9549 17.744 25.9869L17.744 30.8989C17.744 33.0909 16.656 34.3549 15.04 34.3549C13.664 34.3549 12.432 33.6029 11.92 31.8589C11.904 31.7949 11.872 31.7949 11.824 31.8269C11.392 32.1469 10.496 32.8669 9.856 33.3949C8.592 34.4349 7.92 35.1069 7.52 35.7149C7.104 36.3549 6.944 36.9469 6.832 37.7309C6.8 37.7629 6.736 37.7789 6.64 37.7789C6.56 37.7789 6.496 37.7629 6.48 37.7309C6.432 36.9309 6.416 36.3229 6.416 35.9549C6.416 34.8509 7.136 33.9709 8.704 32.7389C9.68 31.9709 10.592 31.2669 11.632 30.4669C11.696 30.4189 11.712 30.3709 11.712 30.3069L11.664 28.9309C11.664 28.8829 11.632 28.8509 11.584 28.8509L8.24 28.8509C7.12 28.8509 6.992 29.1549 6.816 30.1949L6.768 30.4669C6.736 30.4989 6.672 30.5149 6.592 30.5149C6.512 30.5149 6.448 30.4989 6.432 30.4669L6.432 25.9869ZM12.16 28.8509C12.112 28.8509 12.096 28.8829 12.096 28.9309L12.32 30.9469C12.352 31.2029 12.384 31.3149 12.432 31.4269C12.72 32.2109 13.488 32.8989 14.784 32.8989C16.464 32.8989 17.232 31.8269 17.232 30.2909C17.232 29.8269 17.216 29.5389 17.168 29.3789C17.072 29.0109 16.816 28.8509 16.288 28.8509L12.16 28.8509ZM6.368 36.7321C6.384 36.7001 6.464 36.6841 6.544 36.6841C6.64 36.6841 6.704 36.7001 6.736 36.7321L6.784 36.9241C7.008 37.8201 7.136 38.2521 8.176 38.2521L16 38.2521C17.072 38.2521 17.168 37.9001 17.408 36.9721L17.456 36.7801C17.488 36.7481 17.552 36.7321 17.616 36.7321C17.696 36.7321 17.76 36.7481 17.776 36.7801C17.776 37.0841 17.744 37.7241 17.744 38.5561L17.744 41.3881C17.744 41.7881 17.776 43.3401 17.808 44.4921C17.808 44.5401 17.776 44.5721 17.728 44.5721L17.392 44.5721L14.992 44.7481C14.928 44.7481 14.88 44.3961 14.944 44.3801C16.336 44.0601 16.992 43.7081 17.12 42.6521C17.2 41.9481 17.232 41.1321 17.232 40.5401C17.232 39.5961 17.104 39.5161 16.528 39.5161L12.544 39.5161C12.496 39.5161 12.464 39.5481 12.464 39.5961L12.464 41.9641C12.464 42.8601 12.752 43.0681 13.744 43.2921L14.032 43.3561C14.096 43.3721 14.096 43.7401 14.032 43.7401C13.408 43.7401 12.848 43.7241 12.272 43.7241C11.648 43.7561 10.928 43.7721 10.352 43.7721C10.288 43.7721 10.256 43.4201 10.32 43.4041L11.088 43.1961C11.76 43.0201 11.888 42.9081 11.888 42.1401L11.888 39.5961C11.888 39.5481 11.856 39.5161 11.808 39.5161L7.968 39.5161C7.184 39.5161 6.976 40.1561 6.976 41.1161C6.976 41.5801 6.992 42.4601 7.152 43.3721C7.312 44.3001 7.984 44.8121 8.976 45.4041C9.024 45.4361 8.976 45.6921 8.912 45.6921C7.952 45.4681 7.248 45.2121 6.48 44.8601C6.432 44.8441 6.416 44.7961 6.416 44.7641C6.416 44.6041 6.432 42.4761 6.432 41.8041L6.432 38.7481C6.432 37.8841 6.368 36.9721 6.368 36.7321Z" fill="white"/>
<path d="M1 1L1 64" stroke="white" stroke-linecap="round"/>
<path d="M9 56L1 64" stroke="white" stroke-linecap="round"/>
</svg>
