<svg width="15" height="49" viewBox="0 0 15 49" fill="none" xmlns="http://www.w3.org/2000/svg">
<path d="M4.82394 0.205045C4.83594 0.180922 4.88394 0.168861 4.95594 0.168861C5.01594 0.168861 5.06394 0.180922 5.08794 0.205045L5.12394 0.39803C5.26794 1.19409 5.49594 1.50769 6.21594 1.55594L11.9879 1.95397H12.1559C12.7439 1.95397 12.8519 1.59212 13.0199 0.916677L13.0679 0.723692C13.0919 0.699569 13.1399 0.687508 13.1999 0.687508C13.2719 0.687508 13.3199 0.699569 13.3319 0.723692C13.3319 0.9408 13.2839 2.12283 13.2839 2.65354C13.2839 2.8224 13.2959 3.05157 13.2959 3.11188C13.2959 3.14806 13.2719 3.17218 13.2359 3.17218C13.0319 3.17218 12.7079 3.22043 12.3239 3.37723L6.41994 5.69305C6.38394 5.70511 6.38394 5.72923 6.41994 5.74129L11.7719 8.25009C12.5279 8.59988 12.8519 8.72049 13.2359 8.73255C13.2719 8.73255 13.2959 8.75668 13.2959 8.79286V10.9639C13.2839 10.9881 13.2359 11.0001 13.1639 11.0001C13.1039 11.0001 13.0439 10.9881 13.0319 10.9639L13.0079 10.771C12.9119 9.97489 12.7439 9.73366 12.0479 9.70954L6.05994 9.99902C5.29194 10.0352 5.24394 10.3126 5.11194 11.0846L5.07594 11.3017C5.05194 11.3258 5.00394 11.3378 4.94394 11.3378C4.88394 11.3378 4.83594 11.3258 4.82394 11.3017V7.98474C4.83594 7.96062 4.89594 7.94855 4.95594 7.94855C5.02794 7.94855 5.07594 7.96062 5.08794 7.98474L5.11194 8.17772C5.17194 8.68431 5.31594 9.07028 5.96394 9.07028H6.07194L11.7479 8.80492C11.7839 8.80492 11.7839 8.7808 11.7599 8.76874L6.94794 6.47705C6.21594 6.12726 5.60394 5.86191 4.97994 5.60862C4.93194 5.59655 4.93194 5.29502 4.97994 5.28295C5.65194 5.07791 6.13194 4.88492 6.81594 4.60751L12.0599 2.48468C12.0839 2.47262 12.0959 2.43643 12.0599 2.43643L6.37194 2.07458C6.15594 2.06252 6.07194 2.06252 6.02394 2.06252C5.41194 2.06252 5.25594 2.32788 5.11194 3.17218L5.07594 3.37723C5.05194 3.40135 5.00394 3.41342 4.94394 3.41342C4.88394 3.41342 4.83594 3.40135 4.82394 3.37723V0.205045ZM4.71594 15.3533C4.71594 12.6756 6.50394 11.1076 8.89194 11.1076C12.0359 11.1076 13.4159 13.4837 13.4159 15.4257C13.4159 17.9706 11.6399 19.5989 9.23994 19.5989C6.09594 19.5989 4.71594 17.259 4.71594 15.3533ZM5.13594 15.5463C5.13594 17.5605 6.69594 18.5013 8.69994 18.5013C11.0279 18.5013 12.9839 17.2108 12.9839 15.1482C12.9839 13.2305 11.3999 12.2052 9.39594 12.2052C7.07994 12.2052 5.13594 13.4837 5.13594 15.5463ZM4.82394 19.5901C4.83594 19.566 4.89594 19.5539 4.95594 19.5539C5.02794 19.5539 5.07594 19.566 5.08794 19.5901L5.11194 19.7831C5.19594 20.4465 5.32794 20.7963 6.13194 20.7963H12.0959C12.8519 20.7963 12.9119 20.4947 13.0079 19.8434L13.0439 19.5901C13.0679 19.566 13.1159 19.5539 13.1759 19.5539C13.2479 19.5539 13.2959 19.566 13.3079 19.5901V23.293C13.3079 24.9454 12.4919 25.8983 11.2799 25.8983C10.2479 25.8983 9.32394 25.3314 8.93994 24.0167C8.92794 23.9685 8.90394 23.9685 8.86794 23.9926C8.54394 24.2338 7.87194 24.7766 7.39194 25.1746C6.44394 25.9586 5.93994 26.4652 5.63994 26.9235C5.32794 27.406 5.20794 27.8523 5.12394 28.4433C5.09994 28.4674 5.05194 28.4795 4.97994 28.4795C4.91994 28.4795 4.87194 28.4674 4.85994 28.4433C4.82394 27.8402 4.81194 27.3819 4.81194 27.1045C4.81194 26.2722 5.35194 25.6088 6.52794 24.6801C7.25994 24.1011 7.94394 23.5704 8.72394 22.9674C8.77194 22.9312 8.78394 22.895 8.78394 22.8467L8.74794 21.8094C8.74794 21.7733 8.72394 21.7491 8.68794 21.7491H6.17994C5.33994 21.7491 5.24394 21.9783 5.11194 22.7623L5.07594 22.9674C5.05194 22.9915 5.00394 23.0035 4.94394 23.0035C4.88394 23.0035 4.83594 22.9915 4.82394 22.9674V19.5901ZM9.11994 21.7491C9.08394 21.7491 9.07194 21.7733 9.07194 21.8094L9.23994 23.3292C9.26394 23.5222 9.28794 23.6066 9.32394 23.691C9.53994 24.2821 10.1159 24.8007 11.0879 24.8007C12.3479 24.8007 12.9239 23.9926 12.9239 22.8347C12.9239 22.4849 12.9119 22.2678 12.8759 22.1472C12.8039 21.8698 12.6119 21.7491 12.2159 21.7491H9.11994ZM4.77594 27.6904C4.78794 27.6662 4.84794 27.6542 4.90794 27.6542C4.97994 27.6542 5.02794 27.6662 5.05194 27.6904L5.08794 27.8351C5.25594 28.5105 5.35194 28.8362 6.13194 28.8362H11.9999C12.8039 28.8362 12.8759 28.5708 13.0559 27.8713L13.0919 27.7265C13.1159 27.7024 13.1639 27.6904 13.2119 27.6904C13.2719 27.6904 13.3199 27.7024 13.3319 27.7265C13.3319 27.9557 13.3079 28.4382 13.3079 29.0654V31.2003C13.3079 31.5018 13.3319 32.6718 13.3559 33.5402C13.3559 33.5764 13.3319 33.6005 13.2959 33.6005H13.0439L11.2439 33.7332C11.1959 33.7332 11.1599 33.4678 11.2079 33.4558C12.2519 33.2145 12.7439 32.9492 12.8399 32.1531C12.8999 31.6224 12.9239 31.0073 12.9239 30.561C12.9239 29.8494 12.8279 29.7891 12.3959 29.7891H9.40794C9.37194 29.7891 9.34794 29.8132 9.34794 29.8494V31.6345C9.34794 32.3099 9.56394 32.4667 10.3079 32.6356L10.5239 32.6838C10.5719 32.6959 10.5719 32.9733 10.5239 32.9733C10.0559 32.9733 9.63594 32.9612 9.20394 32.9612C8.73594 32.9854 8.19594 32.9974 7.76394 32.9974C7.71594 32.9974 7.69194 32.7321 7.73994 32.72L8.31594 32.5632C8.81994 32.4305 8.91594 32.3461 8.91594 31.7672V29.8494C8.91594 29.8132 8.89194 29.7891 8.85594 29.7891H5.97594C5.38794 29.7891 5.23194 30.2715 5.23194 30.9952C5.23194 31.345 5.24394 32.0084 5.36394 32.6959C5.48394 33.3955 5.98794 33.7814 6.73194 34.2277C6.76794 34.2518 6.73194 34.4448 6.68394 34.4448C5.96394 34.276 5.43594 34.083 4.85994 33.8176C4.82394 33.8056 4.81194 33.7694 4.81194 33.7452C4.81194 33.6246 4.82394 32.0204 4.82394 31.5139V29.2101C4.82394 28.5588 4.77594 27.8713 4.77594 27.6904Z" fill="#D9D9D9"/>
<path d="M0.75 0.753846V48.2462" stroke="#D9D9D9" stroke-linecap="round"/>
<path d="M6.75 42.2154L0.75 48.2462" stroke="#D9D9D9" stroke-linecap="round"/>
</svg>
