<svg width="622" height="38" viewBox="0 0 622 38" fill="none" xmlns="http://www.w3.org/2000/svg">
<path d="M14.4 17.92C16.72 14.44 18.72 9.2 19.72 4.48C20 3 20 2.28 19.92 1.56C19.92 1.4 20.04 1.28 20.12 1.28C20.2 1.28 20.24 1.28 20.44 1.36C24.52 3 24.8 3.24 24.8 3.68C24.8 4.04 24.64 4.2 23.4 4.56C23.16 4.64 23.08 4.72 23 4.96C22.36 6.68 21.6 8.4 20.72 10C20.64 10.16 20.68 10.24 20.8 10.28L21.36 10.56C21.6 10.64 21.76 10.68 22 10.68H25.96C26.08 10.68 26.2 10.6 26.24 10.48C26.92 8.56 27.4 6.76 27.76 4.88C27.96 3.68 28.04 2.96 27.92 2.08C27.92 1.88 28.08 1.8 28.28 1.84C32.28 3.48 32.56 3.72 32.56 4.12C32.56 4.48 32.44 4.64 31.16 5.04C30.96 5.12 30.92 5.16 30.8 5.36C29.72 7.32 28.72 8.92 27.52 10.52C27.44 10.64 27.48 10.68 27.6 10.68H31C31.2 10.68 31.36 10.64 31.52 10.48C33.04 8.56 33.24 8.36 33.44 8.36C33.64 8.36 33.88 8.56 35.28 9.68C36.68 10.84 36.8 11 36.8 11.24C36.8 11.52 36.68 11.64 36.4 11.64H29.12C29 11.64 28.92 11.72 28.92 11.84V17.24C28.92 17.36 29 17.44 29.12 17.44H30.48C30.72 17.44 30.84 17.4 31 17.24C32.44 15.4 32.6 15.2 32.8 15.2C33 15.2 33.24 15.4 34.56 16.44C35.92 17.56 36.08 17.76 36.08 18C36.08 18.28 35.92 18.4 35.64 18.4H29.12C29 18.4 28.92 18.48 28.92 18.6V24.08C28.92 24.2 29 24.28 29.12 24.28H30.68C30.92 24.28 31.08 24.24 31.24 24.08C32.68 22.24 32.84 22.08 33.04 22.08C33.24 22.08 33.48 22.24 34.8 23.32C36.16 24.44 36.28 24.6 36.28 24.88C36.28 25.12 36.16 25.24 35.84 25.24H29.12C29 25.24 28.92 25.32 28.92 25.44V31.76C28.92 31.88 29 31.96 29.12 31.96H31.96C32.2 31.96 32.36 31.92 32.52 31.76C34.2 29.64 34.4 29.44 34.6 29.44C34.76 29.44 35.08 29.64 36.6 30.88C38.08 32.08 38.24 32.28 38.24 32.52C38.24 32.8 38.08 32.92 37.8 32.92H21.68C21.56 32.92 21.48 33 21.48 33.12V34.64C21.48 35.76 20.6 36.32 18.96 36.32C18.4 36.32 18.12 36.04 18.12 35.48C18.12 34.92 18.52 28.92 18.52 17.84C18.52 16.6 18.52 15.16 18.56 13.76C18.56 13.68 18.48 13.68 18.44 13.76C17.32 15.4 16.04 16.92 14.72 18.16C14.6 18.28 14.32 18.04 14.4 17.92ZM26 25.44C26 25.32 25.92 25.24 25.8 25.24H21.68C21.56 25.24 21.48 25.32 21.48 25.44V31.76C21.48 31.88 21.56 31.96 21.68 31.96H25.8C25.92 31.96 26 31.88 26 31.76V25.44ZM26 18.6C26 18.48 25.92 18.4 25.8 18.4H21.68C21.56 18.4 21.48 18.48 21.48 18.6V24.08C21.48 24.2 21.56 24.28 21.68 24.28H25.8C25.92 24.28 26 24.2 26 24.08V18.6ZM21.68 11.64C21.56 11.64 21.48 11.72 21.48 11.84V17.24C21.48 17.36 21.56 17.44 21.68 17.44H25.8C25.92 17.44 26 17.36 26 17.24V11.84C26 11.72 25.92 11.64 25.8 11.64H21.68ZM2.4 19.04C2.32 18.84 2.4 18.72 2.56 18.72C4.16 19.04 5.68 19.12 7.84 19.12H9.52C9.76 19.12 9.88 19.12 10.04 18.88C11.2 17.36 11.36 17.16 11.56 17.16C11.76 17.16 12.04 17.36 13.16 18.28C14.36 19.24 14.48 19.44 14.48 19.72C14.48 19.96 14.36 20.08 14.04 20.08H7.84C5.68 20.08 4.56 20.12 3.64 20.32C3.44 20.32 3.36 20.28 3.24 20.12C2.92 19.72 2.72 19.44 2.4 19.04ZM9.4 14.12C9.64 14.12 9.76 14.08 9.92 13.88C11.08 12.36 11.28 12.16 11.48 12.16C11.64 12.16 11.92 12.36 13.04 13.24C14.24 14.28 14.4 14.44 14.4 14.68C14.4 14.96 14.24 15.08 13.96 15.08H7.84C5.68 15.08 4.52 15.12 3.6 15.32C3.4 15.32 3.32 15.28 3.2 15.12C2.88 14.72 2.68 14.44 2.4 14C2.28 13.84 2.36 13.72 2.52 13.72C4.12 14.04 5.68 14.12 7.84 14.12H9.4ZM10.44 9.16C10.68 9.16 10.76 9.12 10.92 8.92C12.28 7.12 12.48 6.92 12.68 6.92C12.88 6.92 13.16 7.12 14.44 8.16C15.72 9.24 15.88 9.48 15.88 9.72C15.88 9.96 15.72 10.12 15.44 10.12H8.4C5.16 10.12 3.52 10.16 2 10.36C1.8 10.36 1.72 10.32 1.6 10.16C1.28 9.76 1.08 9.48 0.88 9.16C0.8 9.04 0.76 8.96 0.76 8.88C0.76 8.8 0.8 8.76 0.92 8.76C3.08 9.08 5.16 9.16 8.4 9.16H10.44ZM9.32 4.24C9.56 4.24 9.68 4.24 9.8 4.04C11.08 2.44 11.28 2.24 11.48 2.24C11.64 2.24 11.92 2.44 13.08 3.36C14.32 4.4 14.44 4.56 14.44 4.84C14.44 5.08 14.32 5.2 14.04 5.2H8.08C5.68 5.2 4.4 5.24 3.32 5.44C3.12 5.44 3.04 5.4 2.92 5.24C2.6 4.84 2.4 4.56 2.12 4.12C2 3.96 2.08 3.84 2.24 3.84C4 4.16 5.68 4.24 8.08 4.24H9.32ZM5.92 34.76C5.92 35.84 5.16 36.32 3.56 36.32C3.04 36.32 2.76 36.04 2.76 35.52C2.76 34.96 3.08 32.64 3.08 28.2C3.08 25.92 3 24.56 2.76 22.8C2.76 22.68 2.84 22.6 3 22.68C4.12 23.12 4.92 23.6 5.92 24.12C6.12 24.24 6.28 24.28 6.52 24.28H9.92C10.16 24.28 10.24 24.24 10.4 24.08C11.36 22.92 11.6 22.72 11.8 22.72C12 22.72 12.36 22.92 13.4 23.76C14.48 24.64 14.68 24.88 14.68 25.16C14.68 25.44 14.48 25.64 13.72 26.12C13.52 26.24 13.48 26.36 13.48 26.6V27.88C13.48 30.92 13.76 33.16 13.76 33.72C13.76 34.76 13.04 35.24 11.48 35.24C10.92 35.24 10.64 34.96 10.64 34.44V33.4C10.64 33.28 10.56 33.2 10.44 33.2H6.12C6 33.2 5.92 33.28 5.92 33.4V34.76ZM6.12 25.24C6 25.24 5.92 25.32 5.92 25.44V32.04C5.92 32.16 6 32.24 6.12 32.24H10.44C10.56 32.24 10.64 32.16 10.64 32.04V25.44C10.64 25.32 10.56 25.24 10.44 25.24H6.12ZM48.4669 13.12C48.5869 13.08 48.6669 13.04 48.7069 12.88C48.8669 12.04 48.9469 11.04 48.9469 10.04C48.9469 7.8 48.2669 6.96 46.1069 7.08C45.5869 7.12 45.5469 6.96 45.8269 6.56C46.4669 5.6 47.4669 5 48.6269 5C50.7469 5 52.3069 6.48 52.3069 8.12C52.3069 8.8 52.0269 9.48 51.7069 10.56C51.5469 11.08 51.3469 11.68 51.1869 12.2C51.1469 12.32 51.2269 12.4 51.3469 12.36C52.4269 12.12 53.5069 11.92 54.4669 11.92C56.1469 11.92 57.0269 12.32 58.0269 13.32C58.9469 14.24 59.3869 15.76 59.3869 17.8C59.3869 21.92 58.2669 26.12 56.6269 29C55.0669 31.76 52.6669 33.16 51.1869 33.16C50.4269 33.16 49.9069 32.84 49.7069 31.72C49.4669 30.4 49.1469 29.88 47.2669 27.64C47.0269 27.32 47.1869 27.08 47.5069 27.28C49.4269 28.6 50.7069 28.84 51.3869 28.84C52.5469 28.84 53.2669 28.08 54.1069 26.72C55.6269 24.28 56.9469 19.84 56.9469 16.48C56.9469 14.4 56.0669 13.48 54.2269 13.48C53.1069 13.48 51.8269 13.92 50.7469 14.36C50.5869 14.44 50.5469 14.48 50.5069 14.64C49.1469 19.88 47.4669 24.8 45.4269 28.96C44.1469 31.52 43.2669 32.28 42.0669 32.28C41.0269 32.28 40.2269 31.64 40.2269 30.52C40.2269 29.8 40.5869 29.16 41.7869 27.68C44.5469 24.16 46.7869 20.04 48.0669 15.76C48.1069 15.64 47.9869 15.6 47.9069 15.64C47.2269 16 46.5469 16.36 45.8269 16.76C44.6669 17.4 43.6669 17.84 42.9069 17.84C41.1469 17.84 39.6269 15.92 39.6269 14.32C39.6269 13.76 39.8269 13.28 40.1869 12.72C40.4269 12.36 40.5869 12.32 40.6669 12.76C40.8269 13.8 41.9469 14.44 43.0669 14.44C43.8669 14.44 45.1069 14.12 46.4269 13.72C47.1069 13.52 47.7869 13.32 48.4669 13.12ZM62.8669 11.68C62.4669 11.6 62.5069 11.24 62.9069 11.24C66.0669 11.24 68.3069 11.96 69.9469 13.16C71.7869 14.56 72.5469 16.36 72.5469 18C72.5469 20.48 71.2669 21.8 69.9469 21.8C69.1869 21.8 68.9069 21.4 68.4269 21C67.4269 20.16 66.5469 19.84 64.2269 20C63.8269 20.04 63.7469 19.72 64.1469 19.6C65.3869 19.24 66.4669 18.96 67.5469 18.4C68.1469 18.08 68.3469 17.72 68.3469 17.04C68.3469 16 67.8269 14.8 66.8269 13.76C65.9069 12.88 64.5869 12.08 62.8669 11.68ZM89.5069 22.12C89.6269 23 89.7869 24.28 89.7869 25.16C89.7869 28.28 88.8269 29.08 87.6269 29.08C86.9069 29.08 86.1069 28.6 86.1069 27.04C86.1069 25.88 86.2269 24.56 86.2269 23.76C86.2269 23.68 86.1869 23.64 86.1069 23.68C83.5869 25.2 82.0269 26.8 82.0269 28.36C82.0269 30.64 83.5469 31.76 87.1069 31.76C89.3869 31.76 90.9869 31.44 92.6669 31.04C93.1069 30.92 93.7069 30.8 94.1069 30.8C95.5069 30.8 96.3469 31.72 96.3469 32.64C96.3469 33.64 95.8269 34.2 94.5869 34.64C93.3069 35.08 90.9869 35.28 88.9069 35.28C82.9469 35.28 80.2269 32.96 80.2269 29.48C80.2269 26.96 81.9869 24.84 86.0669 22.28C86.1869 22.2 86.2669 22.08 86.2669 21.96V21.8C86.2669 17.76 85.7069 16.68 84.4669 16.68C83.4269 16.68 82.4269 17.2 81.4269 18.24C80.3869 19.32 79.7069 20.56 79.1069 21.84C78.5869 22.96 77.5469 23.52 76.7069 23.52C75.9469 23.52 74.9469 22.92 74.9469 21.76C74.9469 20.52 75.9869 19.2 77.2269 17.8C77.9069 17.04 78.5069 16.4 79.1869 15.44C80.5069 13.6 81.6269 11.64 82.5069 9.48C82.5469 9.4 82.5069 9.32 82.3869 9.32H81.6669C79.0669 9.32 76.8669 8.24 76.1869 5.68C76.0669 5.28 76.2669 5.16 76.5069 5.44C77.4669 6.44 79.5469 6.8 80.9869 6.8C81.6669 6.8 82.4269 6.76 83.1469 6.64C83.3069 6.6 83.3469 6.56 83.3869 6.4C83.4669 5.88 83.5469 5.28 83.5469 4.88C83.5469 3.88 83.2269 2.92 82.3069 2.8C81.9469 2.76 81.8669 2.56 82.2669 2.32C82.7869 2 83.7869 1.64 84.3869 1.64C85.7069 1.64 86.4269 2.4 86.5069 3.28C86.5469 3.44 86.6269 3.48 86.7469 3.52C87.9869 3.8 88.2269 3.72 89.1069 3.76C90.2269 3.8 90.9069 4.32 90.9069 5C90.9069 5.92 90.1869 6.6 89.1869 7.28C88.1869 7.96 87.0669 8.4 85.8669 8.76C85.5069 8.88 85.1469 8.96 84.8269 9.04C84.6669 9.08 84.5869 9.16 84.5469 9.28C83.5869 11.84 82.2269 14.36 80.8269 16.72C80.7469 16.84 80.7869 16.84 80.8669 16.8C82.1869 15.92 83.4669 15.48 84.6669 15.48C86.8269 15.48 88.1469 16.48 88.7869 18.56C88.8269 18.68 88.9069 18.68 88.9469 18.6C91.7069 13.24 94.8269 10.52 98.1069 10.52C100.627 10.52 102.507 12.16 102.507 14.48C102.507 16.28 101.187 17.4 98.7469 18.4C95.7469 19.64 92.6269 20.56 89.6669 21.84C89.5069 21.92 89.4669 21.96 89.5069 22.12ZM89.4269 20.36C91.5469 19.24 93.7869 18.08 95.9869 16.6C97.7069 15.44 98.5069 14.6 98.5069 13.56C98.5069 12.92 98.0269 12.28 96.9869 12.28C94.8269 12.28 91.5069 14.8 89.3069 20.24C89.2669 20.36 89.3469 20.4 89.4269 20.36ZM86.4269 4C86.2669 4.64 85.9469 5.16 85.7469 5.84C85.7069 5.96 85.7069 6.04 85.8269 6C86.4669 5.76 87.1469 5.4 87.5869 5.04C87.7469 4.88 87.8269 4.76 87.8269 4.64C87.8269 4.4 87.4669 4.2 86.6669 3.88C86.5469 3.84 86.4669 3.84 86.4269 4ZM102.867 28.16C102.867 27.96 103.027 27.8 103.227 27.8C103.427 27.8 103.587 27.88 103.747 27.92C106.547 28.6 108.907 29.64 110.467 30.84C112.227 32.2 112.947 33.44 112.947 34.68C112.947 35.92 111.987 36.96 110.827 36.96C110.027 36.96 109.547 36.6 108.987 35.4C107.427 32.52 105.587 30.32 103.147 28.6C102.987 28.52 102.867 28.36 102.867 28.16ZM149.267 12.8C151.667 10.2 153.627 7.2 155.067 3.68C155.507 2.6 155.707 1.84 155.747 0.959999C155.787 0.799998 155.867 0.719999 155.947 0.719999C156.027 0.719999 156.147 0.759999 156.387 0.879997C160.027 2.52 160.307 2.8 160.307 3.16C160.307 3.52 160.067 3.8 158.747 4C158.507 4.08 158.427 4.12 158.267 4.36C157.867 5 157.427 5.6 156.987 6.2C156.907 6.32 156.947 6.36 157.067 6.36H164.027C164.267 6.36 164.347 6.32 164.507 6.12C166.187 4 166.387 3.8 166.587 3.8C166.787 3.8 167.067 4 168.627 5.28C170.067 6.44 170.187 6.64 170.187 6.92C170.187 7.16 170.067 7.32 169.747 7.32H159.187C159.107 7.32 159.067 7.36 159.147 7.4C161.347 8.44 162.227 9.52 162.227 10.76C162.227 11.24 162.067 11.68 161.827 11.96C161.747 12.04 161.747 12.12 161.867 12.2C165.507 14.44 165.787 14.76 165.787 15.24C165.787 15.68 165.507 15.88 163.827 15.8C163.267 15.8 162.827 15.84 162.307 15.92C159.907 16.4 157.427 16.8 154.907 17.12C154.747 17.16 154.707 17.2 154.707 17.36C154.627 19.12 154.427 20.76 154.107 22.28C154.067 22.4 154.147 22.44 154.267 22.44H164.307C164.547 22.44 164.667 22.4 164.827 22.2C166.707 19.88 166.867 19.68 167.067 19.68C167.267 19.68 167.547 19.88 169.227 21.2C170.787 22.52 170.987 22.76 170.987 23.04C170.987 23.28 170.867 23.4 170.547 23.4H154.707C154.627 23.4 154.547 23.44 154.627 23.56C157.507 28.4 163.387 32 171.707 32.88C171.787 32.92 171.827 32.96 171.827 33.08C171.827 33.16 171.787 33.24 171.707 33.28C169.867 33.8 168.627 34.56 167.307 35.84C166.787 36.36 166.747 36.36 166.067 36.08C159.907 33.52 156.027 29.64 153.787 23.88C153.747 23.76 153.707 23.8 153.667 23.92C152.787 26.92 151.347 29.24 149.427 31.08C146.147 34.2 141.427 35.88 135.747 36.56C135.587 36.56 135.467 36.2 135.627 36.16C140.507 34.68 144.547 32.56 147.227 29.48C148.667 27.84 149.747 25.88 150.427 23.6C150.467 23.48 150.387 23.4 150.267 23.4H144.627C140.627 23.4 138.627 23.48 136.787 23.72C136.587 23.72 136.507 23.68 136.387 23.52L135.787 22.68C135.507 22.28 135.467 22.2 135.467 22.12C135.467 22 135.507 21.96 135.627 21.96C138.147 22.28 140.627 22.44 144.627 22.44H150.507C150.627 22.44 150.707 22.4 150.747 22.24C151.067 20.88 151.267 19.4 151.347 17.72C151.347 17.56 151.307 17.56 151.147 17.56C146.947 17.92 142.707 18.08 138.627 18C138.467 18 138.427 17.52 138.587 17.52C145.707 16.92 152.907 15.56 157.987 13.96C159.507 13.48 160.347 13.08 160.907 12.64C160.987 12.56 160.947 12.48 160.867 12.52C160.707 12.56 160.587 12.56 160.427 12.56C159.627 12.56 159.107 12.04 158.947 11C158.747 9.56 158.507 8.56 157.907 7.52C157.827 7.36 157.707 7.32 157.547 7.32H156.307C156.187 7.32 156.107 7.36 155.987 7.48C154.027 9.76 151.907 11.64 149.547 13.08C149.427 13.16 149.147 12.92 149.267 12.8ZM135.627 13.32C138.267 10.48 140.187 7.36 141.547 3.88C141.987 2.84 142.147 2.08 142.187 1.2C142.187 0.999998 142.347 0.919999 142.547 0.959999C146.427 2.68 146.707 2.96 146.707 3.36C146.707 3.68 146.507 3.88 145.227 4.2C144.987 4.24 144.907 4.28 144.747 4.52C144.387 5.12 144.027 5.68 143.627 6.2C143.547 6.32 143.587 6.36 143.707 6.36H147.627C147.867 6.36 147.947 6.32 148.147 6.12C149.467 4.44 149.667 4.24 149.867 4.24C150.067 4.24 150.267 4.4 151.507 5.4C152.787 6.44 152.947 6.68 152.947 6.92C152.947 7.16 152.787 7.32 152.507 7.32H145.387C145.307 7.32 145.307 7.36 145.387 7.4C147.667 8.68 148.587 9.92 148.587 11.28C148.547 12.4 147.867 13.12 146.867 13.12C146.067 13.12 145.427 12.64 145.347 11.64C145.227 9.92 144.947 8.72 144.347 7.48C144.307 7.4 144.187 7.32 144.067 7.32H143.027C142.907 7.32 142.787 7.36 142.707 7.48C140.747 9.96 138.587 11.92 135.907 13.6C135.787 13.68 135.507 13.44 135.627 13.32ZM182.894 35.84C186.214 34.56 190.454 32.2 192.494 30.12C193.054 29.56 193.374 29.08 193.654 28.52C193.694 28.4 193.854 28.32 194.014 28.4C197.494 30.56 197.734 30.88 197.734 31.2C197.734 31.64 197.494 31.72 195.894 31.84C195.654 31.84 195.534 31.84 195.294 31.96C191.574 34.16 187.534 35.52 183.014 36.16C182.854 36.2 182.734 35.92 182.894 35.84ZM174.174 34.24C178.174 33 182.534 30.6 185.694 27.76C186.494 27 187.014 26.36 187.214 25.8C187.294 25.64 187.414 25.6 187.574 25.72C190.414 27.88 190.614 28.12 190.614 28.52C190.614 28.84 190.374 29.04 189.174 29.04C188.974 29.04 188.814 29.08 188.614 29.24C183.694 32.4 179.454 33.88 174.294 34.64C174.134 34.68 174.014 34.28 174.174 34.24ZM183.974 22.88C184.654 22.08 185.054 21.6 185.214 21.08C185.254 20.88 185.454 20.84 185.614 20.92C188.334 22.84 188.534 23.08 188.534 23.48C188.534 23.76 188.334 23.92 187.174 24C186.934 24 186.774 24.08 186.574 24.2C183.454 26.44 180.174 27.88 176.614 28.64C176.454 28.68 176.254 28.4 176.414 28.32C179.454 26.8 182.294 24.76 183.974 22.88ZM177.054 15.6C176.934 15.6 176.854 15.64 176.854 15.8C176.854 18.48 176.734 20.84 176.534 22.88C176.534 22.96 176.614 23 176.694 22.96C179.134 21.56 181.494 19.68 183.014 17.84C183.574 17.16 183.894 16.64 184.054 16.12C184.094 15.96 184.254 15.92 184.374 16.04C187.134 17.84 187.334 18.08 187.334 18.48C187.334 18.8 187.134 18.92 186.014 19C185.814 19 185.614 19.04 185.454 19.16C182.654 21.32 179.894 22.6 176.694 23.4C176.614 23.4 176.534 23.4 176.534 23.48C175.814 29.88 174.174 33.32 171.374 36.36C170.814 36.96 170.774 37 170.694 37C170.574 37 170.454 36.88 170.454 36.8C170.454 36.72 170.494 36.68 170.574 36.52C172.814 32.56 173.774 27.8 173.774 18.04C173.774 16.52 173.614 14.76 173.214 13C173.214 12.8 173.334 12.72 173.494 12.76C174.654 13.28 175.734 13.84 176.814 14.48C176.974 14.6 177.134 14.64 177.374 14.64H181.814C181.934 14.64 182.054 14.56 182.094 14.44C182.774 12.72 183.214 10.96 183.534 9.56C183.694 8.72 183.734 8.08 183.734 7.4C183.694 7.2 183.854 7.12 184.014 7.2C187.574 8.8 187.814 9 187.814 9.36C187.814 9.68 187.614 9.8 186.534 10.12C186.294 10.2 186.214 10.28 186.094 10.44C185.094 11.96 184.094 13.36 183.094 14.48C183.014 14.56 183.054 14.64 183.174 14.64H185.254C185.494 14.64 185.614 14.6 185.774 14.4C186.974 12.84 187.174 12.64 187.374 12.64C187.574 12.64 187.854 12.84 188.974 13.72C190.254 14.72 190.414 14.96 190.414 15.2C190.414 15.44 190.254 15.6 189.974 15.6H177.054ZM207.734 4.64C207.734 4.88 207.614 5 207.294 5H200.054C199.894 5 199.814 5.08 199.774 5.16C198.654 7.16 197.654 8.72 196.534 10.16C196.454 10.28 196.494 10.32 196.614 10.32H201.374C201.614 10.32 201.694 10.28 201.854 10.12C202.894 8.84 203.134 8.64 203.334 8.64C203.534 8.64 203.854 8.84 204.974 9.68C206.374 10.76 206.534 10.96 206.534 11.24C206.534 11.48 206.374 11.72 205.454 12.28C205.294 12.4 205.254 12.52 205.254 12.76V16.28C205.254 22.72 205.534 26.36 205.534 26.92C205.534 28 204.614 28.64 203.014 28.64C202.454 28.64 202.174 28.32 202.174 27.8V27.24C202.174 27.12 202.094 27.04 201.974 27.04H194.334C194.214 27.04 194.134 27.12 194.134 27.24C194.054 28.44 193.214 28.88 191.774 28.88C191.174 28.88 190.894 28.56 190.894 28C190.894 27.48 191.214 23.48 191.214 16.92C191.214 12.56 191.094 10.4 190.894 8.72C190.894 8.56 190.974 8.48 191.134 8.52C192.174 9 193.054 9.52 194.134 10.16C194.334 10.28 194.494 10.32 194.694 10.32C194.854 10.32 194.894 10.28 194.934 10.12C195.334 8.6 195.694 6.88 195.934 5.2C195.974 5.04 195.894 5 195.734 5C193.374 5.04 192.014 5.12 190.814 5.32C190.614 5.32 190.534 5.28 190.374 5.12C190.094 4.72 189.814 4.28 189.494 3.84C189.414 3.68 189.494 3.56 189.654 3.56C191.694 3.88 193.774 4.04 197.054 4.04H201.374C201.614 4.04 201.734 4 201.894 3.8C203.574 1.76 203.774 1.56 203.974 1.56C204.174 1.56 204.494 1.76 205.894 2.84C207.614 4.2 207.734 4.36 207.734 4.64ZM194.134 25.88C194.134 26 194.214 26.08 194.334 26.08H201.974C202.094 26.08 202.174 26 202.174 25.88V21.8C202.174 21.68 202.094 21.6 201.974 21.6H194.334C194.214 21.6 194.134 21.68 194.134 21.8V25.88ZM194.134 20.44C194.134 20.56 194.214 20.64 194.334 20.64H201.974C202.094 20.64 202.174 20.56 202.174 20.44V16.6C202.174 16.48 202.094 16.4 201.974 16.4H194.334C194.214 16.4 194.134 16.48 194.134 16.6V20.44ZM194.334 11.28C194.214 11.28 194.134 11.36 194.134 11.48V15.24C194.134 15.36 194.214 15.44 194.334 15.44H201.974C202.094 15.44 202.174 15.36 202.174 15.24V11.48C202.174 11.36 202.094 11.28 201.974 11.28H194.334ZM198.814 28.64C204.894 30.04 207.694 32.28 207.694 34.32C207.694 35.44 207.094 36.16 206.094 36.16C205.254 36.16 204.734 35.76 204.094 34.76C202.574 32.36 200.774 30.44 198.654 28.96C198.534 28.88 198.654 28.6 198.814 28.64ZM175.854 7.36C178.854 8.72 180.134 10.44 180.134 11.92C180.134 13.12 179.494 13.76 178.574 13.76C177.814 13.76 177.374 13.28 177.214 12.28C176.974 10.48 176.414 8.96 175.574 7.64C175.494 7.52 175.694 7.28 175.854 7.36ZM179.494 5.52C179.654 5.52 179.694 5.44 179.694 5.32L179.734 4.76C179.734 2.92 179.534 1.88 179.214 0.999998C179.214 0.839998 179.254 0.759999 179.414 0.759999C183.734 1.68 183.934 1.88 183.934 2.36C183.934 2.6 183.734 2.84 182.734 3.48C182.614 3.6 182.574 3.68 182.574 3.92C182.574 4.36 182.534 4.84 182.534 5.32C182.534 5.44 182.614 5.52 182.734 5.52H184.374C184.614 5.52 184.734 5.48 184.894 5.28C186.094 3.76 186.254 3.56 186.454 3.56C186.654 3.56 186.974 3.76 187.974 4.6C189.294 5.68 189.454 5.84 189.454 6.12C189.454 6.36 189.294 6.48 189.014 6.48H179.494C176.694 6.48 175.254 6.52 173.974 6.72C173.774 6.72 173.694 6.68 173.534 6.52C173.254 6.12 173.054 5.84 172.734 5.4C172.654 5.24 172.734 5.12 172.894 5.12C174.814 5.44 176.574 5.52 179.494 5.52ZM221.254 26.32C222.534 27.76 224.614 28.2 227.414 28.2C231.414 28.2 233.054 27.32 234.534 27.32C236.174 27.32 236.894 28 236.894 29.16C236.894 30.2 235.974 30.88 234.814 31.2C233.814 31.48 232.214 31.64 229.934 31.64C224.934 31.64 222.254 30.44 220.894 26.56C220.734 26.16 220.974 26.04 221.254 26.32ZM210.094 5.48C209.854 5.24 209.894 5.08 210.134 5.08C210.254 5.08 210.454 5.16 210.614 5.24C212.134 5.88 213.254 6.64 214.094 7.76C214.894 8.84 215.214 9.92 215.214 10.96C215.214 12.52 214.494 13.96 213.734 15.44C212.574 17.68 211.454 19.88 211.454 22.48C211.454 23.68 211.734 24.72 211.934 25.28C212.134 25.84 212.374 26.08 212.494 26.08C212.734 26.08 213.054 25.44 213.494 24.4C214.334 22.36 215.094 20.32 215.774 18.16C215.894 17.76 216.214 17.92 216.134 18.28C215.654 20.72 215.334 22.96 215.134 24.76C214.974 26.12 214.934 27.2 214.934 27.64C214.934 28.64 215.174 29.08 215.614 29.76C215.974 30.28 216.174 30.72 216.174 31.24C216.174 32.28 215.294 33.04 214.334 33.04C213.334 33.04 212.254 32.24 211.294 30.4C210.334 28.56 209.654 26.24 209.654 22.88C209.654 19.76 210.614 16.64 211.174 14.04C211.454 12.76 211.734 11.32 211.734 10.12C211.734 8.08 211.334 6.72 210.094 5.48ZM232.374 7.6C233.734 7.6 234.654 8.52 234.654 9.44C234.654 10.44 233.894 11 232.974 11.32C231.974 11.68 230.574 11.84 229.094 11.84C225.454 11.84 222.734 10.44 221.374 8.2C221.134 7.84 221.294 7.68 221.654 7.92C222.534 8.48 224.134 8.76 225.614 8.76C227.734 8.76 229.614 8.36 230.774 8C231.294 7.84 231.894 7.6 232.374 7.6ZM255.974 15.76V11.44C255.974 11.28 255.934 11.24 255.774 11.28C253.214 11.68 250.614 12.36 248.134 13.24C246.534 13.8 244.854 14.72 243.574 14.72C242.734 14.72 241.574 14.28 240.614 13.28C239.614 12.28 239.014 11.24 239.014 10.2C239.014 9.96 239.054 9.68 239.094 9.56C239.174 9.36 239.294 9.32 239.454 9.56C240.174 10.52 241.494 10.88 242.774 10.88C243.774 10.88 245.414 10.76 246.734 10.6C249.734 10.2 252.814 9.8 255.734 9.48C255.894 9.48 255.934 9.36 255.934 9.24C255.894 7.96 255.814 6.88 255.694 5.64C255.494 3.6 254.854 2.36 253.774 2C253.374 1.88 253.374 1.68 253.734 1.56C254.254 1.4 254.654 1.32 255.374 1.32C257.414 1.32 259.174 2.4 259.174 4.24C259.174 4.6 259.134 5 259.094 5.24C259.054 5.36 259.094 5.44 259.254 5.52C260.574 6.2 262.134 6.96 263.654 7.48C264.614 7.8 265.414 8.04 266.374 8.04H268.414C270.374 8.04 271.014 8.88 271.014 9.88C271.014 10.72 270.254 11.44 269.094 11.44C268.494 11.44 267.894 11.4 266.934 11.28C265.334 11.08 264.134 10.88 262.414 10.88C261.134 10.88 260.094 10.88 258.494 10.96C258.374 10.96 258.294 11 258.294 11.16C258.174 12.96 258.094 14.96 258.054 16.48C258.054 16.6 258.094 16.72 258.214 16.8C259.974 18.12 260.574 20.6 260.574 22.84C260.574 29.4 255.974 34.96 249.734 37.12C249.494 37.2 249.334 37.24 249.254 37.24C249.014 37.24 248.974 37.04 249.254 36.88C253.134 34.52 255.694 31.36 256.254 27.24C256.254 27.16 256.214 27.12 256.134 27.16C255.894 27.28 255.534 27.36 254.974 27.36C252.654 27.36 250.574 25.2 250.574 22.08C250.574 18.84 252.574 15.96 255.574 15.96H255.774C255.894 15.96 255.974 15.88 255.974 15.76ZM258.654 9.24C260.094 9.12 261.494 9.04 262.774 9C263.094 9 263.134 8.96 263.134 8.88C263.134 8.8 263.054 8.72 262.814 8.56C261.654 7.76 260.334 6.92 259.134 6.12C259.014 6.04 258.974 6.08 258.934 6.2C258.774 7.12 258.614 8.08 258.494 9.08C258.494 9.2 258.574 9.24 258.654 9.24ZM254.614 17.76C253.374 17.76 251.974 19.6 251.974 21.52C251.974 23.8 253.414 25.08 254.534 25.08C255.534 25.08 256.614 24.36 256.614 21.12C256.614 18.88 255.734 17.76 254.614 17.76ZM291.974 29.84C294.014 28.64 295.214 26.64 295.214 24.16C295.214 21.24 293.294 18.72 289.854 18.72C288.094 18.72 286.894 19.32 285.454 20.32C284.694 20.84 284.054 21.4 283.454 22.08C282.614 23 281.774 24.4 280.894 26C280.174 27.32 279.494 27.76 278.734 27.76C277.734 27.76 276.974 26.92 276.974 25.76C276.974 24.76 277.694 23.76 278.534 22.68C279.734 21.16 281.174 19.48 282.414 17.92C284.614 15.24 286.614 12.56 288.454 9.8C289.334 8.52 289.574 7.84 289.574 7.48C289.574 7.04 289.374 6.76 288.814 6.76C288.054 6.76 286.974 7.48 284.654 10.08C283.814 11.04 282.934 11.48 282.054 11.48C280.934 11.48 279.614 10.36 279.614 8.24C279.614 7.64 279.854 6.88 280.014 6.52C280.134 6.16 280.374 6.16 280.494 6.52C280.694 7.36 281.374 7.68 281.854 7.68C282.494 7.68 283.014 7.52 284.494 6.76C286.534 5.72 287.854 4.72 289.574 4.72C290.334 4.72 291.414 5.08 292.294 5.68C293.134 6.24 293.574 6.88 293.574 7.48C293.574 8.16 292.974 8.88 292.054 9.8C289.494 12.32 286.134 15.64 283.374 19.76C283.294 19.88 283.334 19.92 283.454 19.84C285.934 17.96 288.214 17.28 290.614 17.28C295.934 17.28 299.014 20.8 299.014 24.88C299.014 30.64 293.534 33.36 289.214 33.36C285.094 33.36 282.974 31.84 282.974 29.48C282.974 27.64 284.614 26.36 286.534 26.36C288.854 26.36 290.654 27.8 291.734 29.72C291.774 29.8 291.854 29.88 291.974 29.84ZM289.854 30.48C289.214 29.28 287.934 28.28 286.614 28.28C285.854 28.28 285.174 28.72 285.174 29.36C285.174 30.12 285.974 30.84 288.414 30.84C288.774 30.84 289.214 30.8 289.694 30.72C289.894 30.68 289.894 30.56 289.854 30.48ZM320.774 11.16C321.054 10.88 321.134 10.72 321.134 10.64C321.134 10.52 321.054 10.48 320.614 10.44C317.214 10.12 314.334 8.64 312.374 6.16C312.174 5.92 312.174 5.72 312.374 5.72C312.454 5.72 312.534 5.76 312.614 5.8C314.134 6.76 316.054 7.04 318.574 7.04C320.534 7.04 321.654 6.84 323.014 6.84C324.574 6.84 325.454 7.12 326.534 7.8C327.414 8.36 328.014 9.08 328.014 9.72C328.014 10.8 327.254 11.36 325.694 11.32C324.294 11.28 323.494 11.6 322.334 12.24C320.654 13.16 318.934 14.2 317.174 15.28C316.854 15.48 316.494 15.32 316.894 14.96C318.334 13.64 319.574 12.44 320.774 11.16ZM311.534 21.36C311.774 21.08 312.094 21.28 311.894 21.6C311.454 22.32 311.254 23.28 311.254 23.96C311.254 25.64 312.094 26.96 313.774 27.8C315.254 28.56 317.334 28.92 319.894 28.92C322.974 28.92 325.134 28.48 326.734 28.08C327.614 27.88 328.214 27.64 328.854 27.64C330.414 27.64 331.454 28.48 331.454 29.64C331.454 30.64 330.814 31.36 329.334 31.72C327.614 32.2 324.574 32.52 321.334 32.52C317.654 32.52 314.654 32.04 312.654 30.72C310.814 29.56 309.814 27.96 309.814 25.76C309.814 24.24 310.334 22.8 311.534 21.36ZM352.414 17.6C352.494 17.76 352.574 17.76 352.734 17.68C354.254 16.68 356.254 15.68 357.894 15.68C359.494 15.68 360.454 16.44 360.454 17.56C360.454 18.76 359.654 19.24 357.854 19.56C355.974 19.88 354.294 20.28 352.854 20.96C349.694 22.44 347.734 24.92 347.734 27.08C347.734 29.84 350.054 31.08 353.654 31.08C355.854 31.08 357.534 30.92 358.694 30.72C359.334 30.6 359.854 30.52 360.494 30.52C362.174 30.52 362.854 31.48 362.854 32.48C362.854 33.32 362.374 33.92 360.934 34.36C359.774 34.72 358.414 34.96 355.734 34.96C349.094 34.96 345.894 32 345.894 27.68C345.894 24.2 347.894 21.52 350.694 19.2C350.774 19.12 350.814 19.04 350.734 18.92C349.494 17 349.214 14.8 349.214 12.48C349.214 10.72 349.534 7.88 349.534 6.28C349.534 4.52 349.014 3.28 347.574 2.84C347.174 2.72 347.134 2.56 347.494 2.36C347.894 2.12 348.614 1.92 349.134 1.92C351.574 1.92 353.614 3.52 353.614 5.48C353.614 6.16 353.414 6.88 353.094 7.72C352.374 9.64 351.534 11.64 351.534 13.68C351.534 15 351.814 16.4 352.414 17.6ZM382.974 33.6C382.454 33.6 382.454 33.08 382.934 33.04C390.014 32.6 395.934 28.72 395.934 22.56C395.934 19.36 393.934 17 390.574 17C387.854 17 384.974 18.32 381.294 21.04C380.534 21.6 379.854 22.12 379.214 22.56C378.374 23.12 377.614 23.4 376.894 23.4C375.974 23.4 375.094 23.04 374.294 22.32C373.254 21.44 372.534 20.32 372.534 19.12C372.534 18.68 372.774 18.64 373.014 18.88C373.614 19.52 374.414 19.8 375.334 19.8C376.214 19.8 377.574 19.48 379.454 18.6C383.814 16.56 387.134 15.56 390.014 15.56C395.654 15.56 399.374 18.92 399.374 23.32C399.374 30.56 392.134 33.6 383.374 33.6H382.974ZM406.582 14.44C404.382 14.44 402.782 11.96 402.782 10.68C402.782 10.4 402.902 10 403.062 9.76C403.262 9.44 403.342 9.44 403.502 9.76C403.822 10.4 405.022 10.88 405.782 10.88C406.702 10.88 408.302 10.4 410.102 9.84C413.262 8.8 416.822 7.6 420.102 6.6C421.622 6.12 423.142 5.68 424.662 5.28C426.022 4.96 426.942 4.76 428.102 4.76C430.262 4.76 431.542 5.96 431.542 7.12C431.542 8.2 430.982 8.68 429.662 8.68C428.862 8.68 428.062 8.52 426.582 8.52C424.862 8.52 423.462 8.88 422.182 9.68C417.782 12.44 416.182 16.52 416.182 23.2C416.182 26.2 416.782 28.2 417.942 29.08C418.862 29.8 420.142 30.2 421.862 30.2C423.142 30.2 424.302 29.92 425.422 29.92C426.622 29.92 427.422 30.68 427.422 31.6C427.422 33.12 426.302 34.16 422.942 34.16C419.982 34.16 417.742 33.52 416.222 32.04C414.702 30.56 413.862 28.44 413.862 24.12C413.862 15.76 417.062 10.72 422.742 8.2C422.862 8.16 422.862 8.08 422.702 8.12C418.782 8.84 415.302 10.32 410.902 12.88C409.462 13.72 407.982 14.44 406.582 14.44ZM439.182 14.44C436.982 14.44 435.382 11.96 435.382 10.68C435.382 10.4 435.502 10 435.662 9.76C435.862 9.44 435.942 9.44 436.102 9.76C436.422 10.4 437.622 10.88 438.382 10.88C439.302 10.88 440.902 10.4 442.702 9.84C445.862 8.8 449.422 7.6 452.702 6.6C454.222 6.12 455.742 5.68 457.262 5.28C458.622 4.96 459.542 4.76 460.702 4.76C462.862 4.76 464.142 5.96 464.142 7.12C464.142 8.2 463.582 8.68 462.262 8.68C461.462 8.68 460.662 8.52 459.182 8.52C457.462 8.52 456.062 8.88 454.782 9.68C450.382 12.44 448.782 16.52 448.782 23.2C448.782 26.2 449.382 28.2 450.542 29.08C451.462 29.8 452.742 30.2 454.462 30.2C455.742 30.2 456.902 29.92 458.022 29.92C459.222 29.92 460.022 30.68 460.022 31.6C460.022 33.12 458.902 34.16 455.542 34.16C452.582 34.16 450.342 33.52 448.822 32.04C447.302 30.56 446.462 28.44 446.462 24.12C446.462 15.76 449.662 10.72 455.342 8.2C455.462 8.16 455.462 8.08 455.302 8.12C451.382 8.84 447.902 10.32 443.502 12.88C442.062 13.72 440.582 14.44 439.182 14.44ZM461.462 11.12C461.142 10.96 461.262 10.8 461.502 10.8H461.582C466.062 11.08 469.142 12.68 469.142 14.6C469.142 15.76 468.622 16.28 467.942 16.28C467.382 16.28 467.102 16.2 466.382 15.32C465.142 13.72 463.582 12.24 461.462 11.12ZM457.742 13.8C462.102 14.52 464.782 16.44 464.782 18.24C464.782 19.32 464.302 20 463.542 20C462.982 20 462.542 19.84 461.982 18.92C460.902 17.16 459.502 15.52 457.542 14.12C457.262 13.92 457.422 13.72 457.742 13.8ZM487.302 14.4C487.862 14.16 488.542 13.8 489.022 13.48C489.262 13.32 489.422 13.16 489.422 13C489.422 12.92 489.302 12.8 489.142 12.72C488.342 12.32 487.422 11.96 486.742 11.72C486.342 11.6 486.422 11.28 486.822 11.36C488.662 11.68 489.022 11.68 490.022 11.68C490.742 11.68 491.262 11.52 491.982 11.52C492.982 11.52 493.742 12.2 493.742 12.8C493.742 13.56 493.182 14.28 492.182 14.96C491.142 15.68 489.982 16.32 488.822 16.8C488.702 16.84 488.662 16.92 488.742 17.04C489.622 18.44 490.542 19.96 491.342 21.48C492.142 23 492.422 24.04 492.422 25.12C492.422 26.8 491.102 28.28 489.542 28.28C488.742 28.28 488.022 27.76 487.662 27.4C487.182 26.92 486.542 26.36 485.982 26C484.582 25.08 482.942 24.52 481.142 24.52C478.382 24.52 476.262 26.16 476.262 28.36C476.262 31 478.102 31.8 480.742 31.8C482.382 31.8 483.382 31.44 484.582 31.44C486.502 31.44 487.142 32.08 487.142 33C487.142 33.88 486.622 34.48 485.702 34.92C484.942 35.28 483.702 35.52 482.182 35.52C476.862 35.52 473.902 33.28 473.902 29.68C473.902 26.2 476.902 23.48 481.382 23.48C483.582 23.48 484.822 23.8 486.662 24.28C487.102 24.4 487.622 24.48 487.902 24.48C488.542 24.48 488.982 24.12 488.982 23.56C488.982 23.08 488.902 22.56 488.622 21.8C488.142 20.4 487.542 19 486.902 17.76C486.822 17.6 486.742 17.56 486.622 17.6C484.582 18.24 482.262 18.64 480.182 18.64C476.982 18.64 473.502 17.48 472.622 13.92C472.582 13.76 472.582 13.68 472.582 13.6C472.582 13.36 472.782 13.32 472.982 13.6C474.222 15.16 476.702 16.12 479.502 16.12C481.462 16.12 483.462 15.76 485.342 15.16C485.422 15.12 485.462 15.08 485.382 14.96C484.622 13.76 483.822 12.52 483.022 11.32C482.942 11.2 482.862 11.16 482.702 11.2C481.982 11.36 481.102 11.48 480.262 11.48C477.142 11.48 474.942 10.08 474.422 7.48C474.382 7.2 474.542 7.12 474.782 7.36C475.662 8.32 477.182 9 479.262 9C479.862 9 480.502 8.92 480.982 8.8C481.102 8.76 481.102 8.72 481.022 8.6C480.102 7.4 479.182 6.36 477.982 5.28C476.902 4.28 475.822 3.56 474.622 3.56C474.062 3.56 473.942 3.28 474.422 2.96C475.462 2.28 476.862 1.88 477.902 1.88C478.942 1.88 479.662 2.24 480.142 2.76C480.622 3.28 481.022 4.2 481.462 5.24C481.862 6.16 482.462 7.12 483.022 7.96C483.102 8.08 483.182 8.08 483.262 8.04C483.742 7.8 484.142 7.56 484.542 7.28C485.022 6.96 485.542 6.64 486.102 6.64C487.182 6.64 488.022 7.24 488.022 7.96C488.022 8.48 487.662 9.08 486.702 9.64C486.182 9.96 485.542 10.28 484.902 10.52C484.782 10.56 484.742 10.64 484.822 10.76C485.542 11.92 486.302 13.16 487.062 14.32C487.142 14.44 487.222 14.44 487.302 14.4ZM518.382 30.52C517.862 33.72 515.222 35.52 511.862 35.52C508.222 35.52 505.942 33.56 505.942 31.12C505.942 28.4 508.822 26.52 513.182 26.52C513.982 26.52 514.702 26.56 515.542 26.64C515.662 26.64 515.702 26.6 515.702 26.52C515.622 24 515.502 22.16 515.422 20.4C515.422 20.24 515.382 20.2 515.222 20.2C514.142 20.32 513.062 20.4 511.942 20.4C508.782 20.4 505.822 19.2 504.662 16.48C504.622 16.4 504.582 16.28 504.582 16.16C504.582 15.96 504.702 15.88 504.982 16.12C506.582 17.36 508.822 17.76 511.422 17.76C512.822 17.76 514.062 17.64 515.102 17.48C515.262 17.44 515.302 17.36 515.302 17.24C515.262 16.16 515.262 12.96 515.222 11.52C515.222 11.36 515.182 11.32 515.022 11.32C512.302 11.28 510.022 9.84 509.222 7.52C509.102 7.2 509.302 7.08 509.542 7.28C510.822 8.36 512.822 8.68 514.422 8.68C514.622 8.68 514.902 8.68 515.062 8.64C515.222 8.6 515.222 8.52 515.222 8.4C515.182 7.76 515.182 7.16 515.182 6.92C515.142 4.12 514.622 2.72 513.462 2.4C513.102 2.28 513.022 2.12 513.382 1.96C513.862 1.72 514.502 1.56 515.222 1.56C517.262 1.56 518.742 2.68 518.742 3.8C518.742 4.28 518.542 4.84 518.342 5.36C518.062 6.08 517.822 6.8 517.662 8.04C517.662 8.16 517.742 8.16 517.862 8.12C518.222 8 518.782 7.76 519.142 7.52C519.582 7.24 520.142 7 520.582 7C521.342 7 521.902 7.52 521.902 8.24C521.902 9.12 521.262 9.64 520.422 10.12C519.542 10.6 518.582 10.88 517.622 11.08C517.422 11.12 517.382 11.16 517.382 11.32C517.342 11.88 517.302 13.16 517.302 14.72C517.302 15 517.302 15.72 517.342 16.8C517.342 16.92 517.382 17 517.502 16.96C518.542 16.64 519.502 16.28 520.342 15.8C520.822 15.52 521.222 15.2 521.222 14.96C521.222 14.8 521.102 14.64 520.982 14.48C520.782 14.2 520.302 13.72 519.782 13.28C519.462 13.04 519.742 12.8 519.982 12.92C521.662 13.64 522.822 13.76 523.462 13.76H524.022C525.062 13.76 525.622 14.52 525.622 15.08C525.622 15.96 524.782 16.8 523.382 17.6C521.702 18.6 519.742 19.28 517.742 19.76C517.582 19.8 517.542 19.88 517.542 20C517.742 21.92 517.902 23.6 518.222 25.56C518.302 26.08 518.382 26.76 518.422 27.04C518.422 27.16 518.502 27.24 518.622 27.28C520.502 27.88 522.022 28.68 523.542 29.76C525.062 30.84 525.662 31.84 525.662 32.68C525.662 33.8 524.862 34.48 523.982 34.48C523.142 34.48 522.582 33.96 522.022 33.4C521.102 32.44 520.022 31.32 518.582 30.36C518.462 30.28 518.422 30.32 518.382 30.52ZM507.382 30.68C507.382 32.12 508.702 32.84 510.702 32.84C513.502 32.84 515.182 31.64 515.582 29.04C515.622 28.88 515.582 28.84 515.462 28.8C514.302 28.44 513.062 28.24 511.702 28.24C508.942 28.24 507.382 29.52 507.382 30.68ZM549.182 15.76V11.44C549.182 11.28 549.142 11.24 548.982 11.28C546.422 11.68 543.822 12.36 541.342 13.24C539.742 13.8 538.062 14.72 536.782 14.72C535.942 14.72 534.782 14.28 533.822 13.28C532.822 12.28 532.222 11.24 532.222 10.2C532.222 9.96 532.262 9.68 532.302 9.56C532.382 9.36 532.502 9.32 532.662 9.56C533.382 10.52 534.702 10.88 535.982 10.88C536.982 10.88 538.622 10.76 539.942 10.6C542.942 10.2 546.022 9.8 548.942 9.48C549.102 9.48 549.142 9.36 549.142 9.24C549.102 7.96 549.022 6.88 548.902 5.64C548.702 3.6 548.062 2.36 546.982 2C546.582 1.88 546.582 1.68 546.942 1.56C547.462 1.4 547.862 1.32 548.582 1.32C550.622 1.32 552.382 2.4 552.382 4.24C552.382 4.6 552.342 5 552.302 5.24C552.262 5.36 552.302 5.44 552.462 5.52C553.782 6.2 555.342 6.96 556.862 7.48C557.822 7.8 558.622 8.04 559.582 8.04H561.622C563.582 8.04 564.222 8.88 564.222 9.88C564.222 10.72 563.462 11.44 562.302 11.44C561.702 11.44 561.102 11.4 560.142 11.28C558.542 11.08 557.342 10.88 555.622 10.88C554.342 10.88 553.302 10.88 551.702 10.96C551.582 10.96 551.502 11 551.502 11.16C551.382 12.96 551.302 14.96 551.262 16.48C551.262 16.6 551.302 16.72 551.422 16.8C553.182 18.12 553.782 20.6 553.782 22.84C553.782 29.4 549.182 34.96 542.942 37.12C542.702 37.2 542.542 37.24 542.462 37.24C542.222 37.24 542.182 37.04 542.462 36.88C546.342 34.52 548.902 31.36 549.462 27.24C549.462 27.16 549.422 27.12 549.342 27.16C549.102 27.28 548.742 27.36 548.182 27.36C545.862 27.36 543.782 25.2 543.782 22.08C543.782 18.84 545.782 15.96 548.782 15.96H548.982C549.102 15.96 549.182 15.88 549.182 15.76ZM551.862 9.24C553.302 9.12 554.702 9.04 555.982 9C556.302 9 556.342 8.96 556.342 8.88C556.342 8.8 556.262 8.72 556.022 8.56C554.862 7.76 553.542 6.92 552.342 6.12C552.222 6.04 552.182 6.08 552.142 6.2C551.982 7.12 551.822 8.08 551.702 9.08C551.702 9.2 551.782 9.24 551.862 9.24ZM547.822 17.76C546.582 17.76 545.182 19.6 545.182 21.52C545.182 23.8 546.622 25.08 547.742 25.08C548.742 25.08 549.822 24.36 549.822 21.12C549.822 18.88 548.942 17.76 547.822 17.76ZM574.622 13.12C574.742 13.08 574.822 13.04 574.862 12.88C575.022 12.04 575.102 11.04 575.102 10.04C575.102 7.8 574.422 6.96 572.262 7.08C571.742 7.12 571.702 6.96 571.982 6.56C572.622 5.6 573.622 5 574.782 5C576.902 5 578.462 6.48 578.462 8.12C578.462 8.8 578.182 9.48 577.862 10.56C577.702 11.08 577.502 11.68 577.342 12.2C577.302 12.32 577.382 12.4 577.502 12.36C578.582 12.12 579.662 11.92 580.622 11.92C582.302 11.92 583.182 12.32 584.182 13.32C585.102 14.24 585.542 15.76 585.542 17.8C585.542 21.92 584.422 26.12 582.782 29C581.222 31.76 578.822 33.16 577.342 33.16C576.582 33.16 576.062 32.84 575.862 31.72C575.622 30.4 575.302 29.88 573.422 27.64C573.182 27.32 573.342 27.08 573.662 27.28C575.582 28.6 576.862 28.84 577.542 28.84C578.702 28.84 579.422 28.08 580.262 26.72C581.782 24.28 583.102 19.84 583.102 16.48C583.102 14.4 582.222 13.48 580.382 13.48C579.262 13.48 577.982 13.92 576.902 14.36C576.742 14.44 576.702 14.48 576.662 14.64C575.302 19.88 573.622 24.8 571.582 28.96C570.302 31.52 569.422 32.28 568.222 32.28C567.182 32.28 566.382 31.64 566.382 30.52C566.382 29.8 566.742 29.16 567.942 27.68C570.702 24.16 572.942 20.04 574.222 15.76C574.262 15.64 574.142 15.6 574.062 15.64C573.382 16 572.702 16.36 571.982 16.76C570.822 17.4 569.822 17.84 569.062 17.84C567.302 17.84 565.782 15.92 565.782 14.32C565.782 13.76 565.982 13.28 566.342 12.72C566.582 12.36 566.742 12.32 566.822 12.76C566.982 13.8 568.102 14.44 569.222 14.44C570.022 14.44 571.262 14.12 572.582 13.72C573.262 13.52 573.942 13.32 574.622 13.12ZM589.022 11.68C588.622 11.6 588.662 11.24 589.062 11.24C592.222 11.24 594.462 11.96 596.102 13.16C597.942 14.56 598.702 16.36 598.702 18C598.702 20.48 597.422 21.8 596.102 21.8C595.342 21.8 595.062 21.4 594.582 21C593.582 20.16 592.702 19.84 590.382 20C589.982 20.04 589.902 19.72 590.302 19.6C591.542 19.24 592.622 18.96 593.702 18.4C594.302 18.08 594.502 17.72 594.502 17.04C594.502 16 593.982 14.8 592.982 13.76C592.062 12.88 590.742 12.08 589.022 11.68ZM612.942 30.04C614.342 30.04 615.382 31.16 615.382 32.52C615.382 33.92 614.342 34.96 612.942 34.96C611.542 34.96 610.462 33.92 610.462 32.52C610.462 31.16 611.542 30.04 612.942 30.04ZM605.382 9.08C605.382 5.84 608.982 2.64 613.102 2.64C617.902 2.64 621.262 5.44 621.262 9.36C621.262 11.8 620.542 13.4 617.782 16.72L617.062 17.56C614.102 21.16 613.222 22.8 613.142 25.76C613.142 26.04 613.022 26.2 612.742 26.2C612.462 26.2 612.382 26.04 612.342 25.76C612.262 25.16 612.142 24.24 612.142 23.52C612.142 21.36 612.502 20 614.782 16.28L615.382 15.32C617.102 12.48 617.542 11.16 617.542 9.08C617.542 5.88 615.422 3.84 612.982 3.84C610.582 3.84 608.702 5.48 608.702 7C608.702 7.4 608.982 7.72 609.342 8.04C609.742 8.4 610.062 8.88 610.062 9.52C610.062 10.8 609.062 11.72 607.782 11.72C606.542 11.72 605.382 10.8 605.382 9.08Z" fill="black"/>
</svg>
