<svg width="282" height="34" viewBox="0 0 282 34" fill="none" xmlns="http://www.w3.org/2000/svg">
<g clip-path="url(#clip0_52_67)">
<path d="M0.920643 14.4622C0.28069 16.2466 0.328807 16.7549 0.861299 17.082C1.39219 17.4091 2.16366 17.2141 2.79719 16.5691C5.85902 13.4502 8.67225 13.355 10.9097 13.891C13.7069 14.4269 14.8264 14.9628 17.0638 14.1582C19.0222 13.355 20.1401 10.4082 21.5403 9.60503C22.9389 8.8019 25.3639 9.52211 27.1346 9.33783C27.5853 9.26873 27.8339 8.94779 27.765 8.73587C27.696 8.52395 27.4378 8.2629 27.1346 7.99877C22.7336 4.34705 17.2082 3.27672 12.2698 4.46069C7.33139 5.64619 2.97843 9.08753 0.920643 14.4622Z" fill="#FFCDB4"/>
<path d="M29.8372 11.7472C29.1475 10.4266 28.4755 9.42384 27.696 8.59306C27.7265 8.6422 27.7505 8.68981 27.7666 8.73434C27.8355 8.94626 27.5869 9.2672 27.1362 9.33631C25.3639 9.52212 22.9405 8.80037 21.5419 9.60351C20.1433 10.4066 19.0238 13.3535 17.0654 14.1566C14.828 14.9598 13.7085 14.4238 10.9113 13.8894C8.67385 13.3535 5.86062 13.4502 2.79879 16.5676C2.16526 17.2125 1.39378 17.4076 0.862897 17.0805C0.596651 16.9162 0.450697 16.7058 0.453905 16.3111C0.222945 17.2862 0.0801984 18.3243 0.0208544 19.5129C-0.11708 22.2402 0.580612 25.1379 1.50285 25.1379C3.3778 25.1379 4.21663 20.3176 7.01382 19.5129C9.55599 18.7835 12.3291 20.7982 15.4054 20.316C18.1865 19.8815 19.8818 15.227 23.7969 14.9598C26.6005 14.7678 30.2093 16.5522 30.7899 15.4404C31.069 14.9045 30.5108 13.0295 29.8388 11.7457L29.8372 11.7472Z" fill="#F9AA86"/>
<path d="M30.8573 15.1087C30.8508 15.2454 30.83 15.3606 30.7867 15.4435C30.2061 16.5553 26.5973 14.7709 23.7937 14.9628C19.877 15.23 18.1817 19.8845 15.4022 20.3191C12.3259 20.7998 9.55278 18.785 7.01062 19.516C4.21343 20.3191 3.3746 25.141 1.49965 25.141C1.25265 25.141 1.02008 24.9306 0.817993 24.5728C1.05056 25.0842 1.30237 25.4926 1.47719 25.7414C1.95836 26.4263 2.75068 27.4782 3.63122 28.0924C4.54062 28.7267 5.56391 29.1029 6.33217 28.9386L6.37387 28.9278C7.76605 28.5071 8.39317 26.9622 9.66826 25.7445C10.8279 24.6373 12.1062 24.1551 13.678 24.3378C15.7823 24.5498 17.492 24.7955 19.553 24.0706C21.0719 23.5362 22.6293 21.6597 24.0295 20.5894C24.647 20.1164 25.4393 19.8907 25.9879 19.7862C27.3864 19.519 29.5389 20.1502 30.4755 18.7697C31.016 17.7823 31.0642 16.414 30.8605 15.1133L30.8573 15.1087Z" fill="#EC6F3B"/>
<path d="M27.2324 26.4969C28.1501 26.4969 28.8941 25.7846 28.8941 24.906C28.8941 24.0274 28.1501 23.3151 27.2324 23.3151C26.3147 23.3151 25.5708 24.0274 25.5708 24.906C25.5708 25.7846 26.3147 26.4969 27.2324 26.4969Z" fill="#FFAE8A"/>
<path d="M29.8227 23.289C30.4729 23.289 31 22.7844 31 22.1618C31 21.5393 30.4729 21.0347 29.8227 21.0347C29.1725 21.0347 28.6454 21.5393 28.6454 22.1618C28.6454 22.7844 29.1725 23.289 29.8227 23.289Z" fill="#FFBD9F"/>
<path d="M29.0513 29C29.5863 29 30.02 28.5847 30.02 28.0725C30.02 27.5602 29.5863 27.145 29.0513 27.145C28.5162 27.145 28.0825 27.5602 28.0825 28.0725C28.0825 28.5847 28.5162 29 29.0513 29Z" fill="#FFCEB5"/>
</g>
<g clip-path="url(#clip1_52_67)">
<path d="M41.6244 5.2017H40.9619C40.8738 5.2017 40.7673 5.11329 40.7673 4.98302C40.7673 4.85274 40.8738 4.7783 40.9619 4.7783H41.5179C41.819 4.7783 41.9627 4.57358 41.9627 4.25255V4.10366C41.9627 4.02922 41.8978 3.96408 41.8237 3.96408H40.0398V5.21565C40.0398 5.31801 39.9379 5.42968 39.8035 5.42968C39.6553 5.42968 39.5626 5.31801 39.5626 5.21565V3.96408H39.4977C39.0159 4.74573 38.1912 5.25753 37.3108 5.34593H37.2877C37.1857 5.34593 37.0931 5.28079 37.0931 5.15052C37.0931 5.0342 37.1579 4.9458 37.2552 4.93184C38.08 4.84344 38.6545 4.50845 39.0391 3.95943H37.7417C37.5008 3.95943 37.3155 3.77332 37.3155 3.53138V2.99633C37.3155 2.75439 37.5054 2.55897 37.7417 2.55897H39.558V1.96808H37.4359C37.3618 1.96808 37.2645 1.89364 37.2645 1.76802C37.2645 1.65635 37.3572 1.58191 37.4359 1.58191H41.8561C42.097 1.58191 42.2916 1.76802 42.2916 2.00996V2.5171C42.2916 2.75904 42.097 2.95445 41.8561 2.95445H40.0445V3.57326H42.0136C42.2545 3.57326 42.4399 3.76867 42.4399 4.01061V4.30373C42.4399 4.82018 42.1989 5.19704 41.6244 5.19704V5.2017ZM39.5394 0.669986H38.9232L39.0622 1.27483C39.0622 1.27483 39.0669 1.30275 39.0669 1.31671C39.0669 1.42372 38.9649 1.51677 38.8445 1.51677C38.7147 1.51677 38.6452 1.47025 38.6174 1.35393L38.4599 0.669986H37.9549C37.8622 0.893314 37.751 1.10734 37.6213 1.27483C37.5842 1.33532 37.5193 1.36324 37.4267 1.36324C37.2877 1.36324 37.1904 1.26088 37.1904 1.15852C37.1904 1.1213 37.2043 1.08873 37.2274 1.05151C37.3989 0.804914 37.561 0.45131 37.6305 0.158191C37.6537 0.0744429 37.7556 0 37.8529 0C38.0058 0 38.0985 0.111664 38.0985 0.214023C38.0985 0.227981 38.0939 0.237287 38.0939 0.251245C38.0939 0.265203 38.0939 0.274508 38.0892 0.279161H39.5348C39.6136 0.279161 39.7109 0.362909 39.7109 0.474573C39.7109 0.600196 39.6089 0.674639 39.5348 0.674639L39.5394 0.669986ZM39.5672 2.9591H37.9317C37.8576 2.9591 37.7973 3.01028 37.7973 3.09403V3.44298C37.7973 3.52673 37.8576 3.57791 37.9317 3.57791H39.5672V2.9591ZM42.3055 0.669986H41.5642L41.7264 1.26553V1.28879C41.7264 1.40046 41.643 1.50747 41.4993 1.51212C41.3835 1.51212 41.3001 1.46559 41.2723 1.34928L41.1009 0.674639H40.531C40.4383 0.897967 40.3178 1.11199 40.1927 1.27949C40.1557 1.33997 40.0908 1.36789 39.9981 1.36789C39.8684 1.36789 39.7711 1.26553 39.7711 1.16317C39.7711 1.12595 39.785 1.09338 39.8082 1.05616C39.9842 0.809566 40.1371 0.455963 40.2113 0.162844C40.2205 0.0790955 40.3271 0.00465268 40.4476 0.00465268C40.5958 0.00465268 40.6839 0.130275 40.6839 0.232634C40.6839 0.246592 40.6792 0.274508 40.67 0.279161H42.3055C42.3889 0.279161 42.4816 0.362909 42.4816 0.474573C42.4816 0.600196 42.3889 0.674639 42.3055 0.674639V0.669986ZM41.8144 2.11697C41.8144 2.03322 41.7542 1.97739 41.6754 1.97739H40.0445V2.56828H41.6754C41.7588 2.56828 41.8144 2.5171 41.8144 2.43335V2.12162V2.11697Z" fill="#333333"/>
<path d="M47.3465 1.07011C46.0677 1.98669 45.4006 3.66166 45.1596 4.99232C45.1365 5.1226 45.0994 5.23891 44.8677 5.23891C44.6917 5.23891 44.6314 5.1319 44.6314 5.02024V4.99232C44.8677 3.41972 45.762 1.85642 46.7118 1.00498C46.7303 0.986365 46.7488 0.967754 46.7488 0.953796C46.7488 0.939838 46.7303 0.92588 46.684 0.92588H43.7511C43.5982 0.92588 43.5009 0.860743 43.5009 0.674635C43.5009 0.488528 43.5936 0.414085 43.7465 0.414085H47.2863C47.4438 0.414085 47.5458 0.483876 47.5458 0.688593C47.5458 0.870048 47.4809 0.972407 47.3465 1.07011Z" fill="#333333"/>
<path d="M50.4369 5.2017H49.8207C48.8245 5.2017 48.1805 4.89927 48.1805 4.08506C48.1805 3.95943 48.2222 3.85707 48.4399 3.85707C48.6345 3.85707 48.6901 3.95013 48.6901 4.05714C48.6901 4.55032 49.0932 4.69921 49.8438 4.69921H50.4369C51.2709 4.69921 51.6045 4.45262 51.6045 3.84777V3.49417C51.6045 2.90328 51.2801 2.6055 50.4369 2.6055H49.9041C49.3295 2.6055 49.0423 2.76369 48.8245 2.97772C48.7133 3.08938 48.6484 3.10799 48.5094 3.10799C48.2917 3.10799 48.2314 3.0382 48.2314 2.8614V0.851444C48.2314 0.56763 48.3704 0.409439 48.6716 0.409439H51.7944C51.9427 0.409439 52.0446 0.483882 52.0446 0.660684C52.0446 0.846791 51.9381 0.921234 51.7944 0.921234H48.8986C48.7828 0.921234 48.7365 0.981719 48.7365 1.07942V2.39148C48.7365 2.43335 48.7411 2.45197 48.7735 2.45197C48.7874 2.45197 48.8013 2.43801 48.8245 2.41474C49.0932 2.22864 49.4639 2.09836 49.9041 2.09836H50.4369C51.6693 2.09836 52.1188 2.57293 52.1188 3.48951V3.84312C52.1188 4.82018 51.5859 5.2017 50.4369 5.2017Z" fill="#333333"/>
<path d="M57.8455 5.28544H53.759C53.5088 5.28544 53.3234 5.09003 53.3234 4.85739V0.600194C53.3234 0.358254 53.5041 0.162842 53.759 0.162842H57.8455C58.0911 0.162842 58.281 0.358254 58.281 0.600194V4.85739C58.281 5.09468 58.0911 5.28544 57.8455 5.28544ZM57.827 0.758385C57.827 0.674636 57.7575 0.609499 57.6787 0.609499H53.9211C53.8424 0.609499 53.7729 0.674636 53.7729 0.758385V4.71316C53.7729 4.7876 53.8424 4.85274 53.9211 4.85274H57.6787C57.7528 4.85274 57.827 4.7876 57.827 4.71316V0.758385ZM56.6547 4.08505H54.9497C54.7041 4.08505 54.5142 3.88964 54.5142 3.6477V1.80989C54.5142 1.5726 54.6995 1.38184 54.9497 1.38184H56.6547C56.9003 1.38184 57.0903 1.57726 57.0903 1.80989V3.6477C57.0903 3.88964 56.9049 4.08505 56.6547 4.08505ZM56.6362 1.95412C56.6362 1.87038 56.576 1.80524 56.5019 1.80524H55.1026C55.0285 1.80524 54.9682 1.87038 54.9682 1.95412V3.52208C54.9682 3.59652 55.0285 3.66166 55.1026 3.66166H56.5019C56.5806 3.66166 56.6362 3.59652 56.6362 3.52208V1.95412Z" fill="#333333"/>
<path d="M37.5332 23.6821C37.4591 23.8822 37.283 24.0264 37.0467 24.0264C36.7595 24.0264 36.5973 23.7891 36.5973 23.5379C36.5973 23.5007 36.6158 23.4635 36.6158 23.4309C36.8151 22.2724 36.9958 21.2209 36.9958 18.6805C36.9958 18.4804 37.1764 18.2478 37.4637 18.2478C37.8066 18.2478 37.9687 18.5177 37.9687 18.7363C37.9687 21.4535 37.8807 22.6679 37.5332 23.6821ZM43.4128 9.14716H41.3742V10.8314H43.1951C43.4499 10.8314 43.6816 11.0129 43.6816 11.3386C43.6816 11.6643 43.4453 11.8457 43.1951 11.8457H41.3742V13.53H43.1951C43.4499 13.53 43.6816 13.7114 43.6816 14.0557C43.6816 14.3814 43.4453 14.5629 43.1951 14.5629H41.3742V16.2844H42.4955C43.1997 16.2844 43.7603 16.8473 43.7603 17.6057V20.9603C43.7603 22.8447 42.8568 23.9706 40.9804 23.9706H40.1881C39.8823 23.9706 39.6089 23.7147 39.6089 23.3192C39.6089 23.0121 39.8267 22.7051 40.1881 22.7051H40.8923C41.9765 22.7051 42.6066 22.2165 42.6066 20.7091V17.8802C42.6066 17.6243 42.4074 17.4475 42.1711 17.4475H38.3626C37.6398 17.4475 37.0792 16.866 37.0792 16.089V9.2914C37.0792 8.54697 37.6398 7.95143 38.3626 7.95143H43.4175C43.6538 7.95143 43.941 8.1701 43.941 8.53301C43.941 8.93314 43.6538 9.14716 43.4175 9.14716H43.4128ZM40.2205 9.14716H38.7425C38.4877 9.14716 38.307 9.32862 38.307 9.57986V10.8314H40.2205V9.14716ZM40.2205 11.8457H38.307V13.53H40.2205V11.8457ZM40.2205 14.5629H38.307V15.8517C38.307 16.089 38.4877 16.2844 38.724 16.2844H40.2205V14.5629ZM38.9232 21.635C38.6684 21.635 38.5247 21.4163 38.5247 21.2348V18.6433C38.5247 18.4618 38.6684 18.2804 38.9232 18.2804C39.141 18.2804 39.2846 18.4618 39.2846 18.6433V21.2348C39.2846 21.4163 39.141 21.635 38.9232 21.635ZM40.239 21.635C40.0027 21.635 39.8591 21.4163 39.8591 21.2348V18.6433C39.8591 18.4618 40.0027 18.2804 40.239 18.2804C40.4568 18.2804 40.6004 18.4618 40.6004 18.6433V21.2348C40.6004 21.4163 40.4568 21.635 40.239 21.635ZM41.5549 21.635C41.3186 21.635 41.175 21.4163 41.175 21.2348V18.6433C41.175 18.4618 41.3186 18.2804 41.5549 18.2804C41.7727 18.2804 41.9163 18.4618 41.9163 18.6433V21.2348C41.9163 21.4163 41.7727 21.635 41.5549 21.635ZM49.4963 23.9706H48.3426C48.0554 23.9706 47.745 23.7007 47.745 23.2076C47.745 22.826 48.0693 22.5934 48.3241 22.5934H49.3342C50.3072 22.5934 51.067 21.8164 51.067 20.7975V10.3941C51.067 10.1568 50.8863 9.96138 50.65 9.96138H46.8415C46.443 11.3386 45.7202 12.7344 44.6916 13.6417C44.6036 13.7301 44.4739 13.7673 44.3673 13.7673C44.043 13.7673 43.7186 13.4788 43.7186 13.0042C43.7186 12.7856 43.8252 12.5715 43.9549 12.4599C45.0391 11.4456 45.6692 10.087 45.8129 8.05378C45.8314 7.67227 46.1187 7.42102 46.4986 7.42102C46.9666 7.42102 47.1658 7.76532 47.1658 8.09101V8.16545C47.1658 8.32829 47.1473 8.49114 47.1102 8.65398H51.0068C51.7481 8.65398 52.3226 9.23557 52.3226 9.99395V21.1046C52.3226 22.7376 51.1875 23.9659 49.4871 23.9659L49.4963 23.9706ZM48.4307 21.5977H46.392C45.6692 21.5977 45.1272 21.0161 45.1272 20.295V14.0418C45.1272 13.2974 45.6692 12.7204 46.392 12.7204H48.4307C49.1535 12.7204 49.6956 13.302 49.6956 14.0418V20.295C49.6956 21.0208 49.1535 21.5977 48.4307 21.5977ZM48.5928 14.4187C48.5928 14.1628 48.3936 13.986 48.1619 13.986H46.6793C46.443 13.986 46.2484 14.1674 46.2484 14.4187V19.9274C46.2484 20.1647 46.4476 20.3601 46.6793 20.3601H48.1619C48.3982 20.3601 48.5928 20.1601 48.5928 19.9274V14.4187Z" fill="#333333"/>
<path d="M59.115 22.049C58.2671 22.519 55.9922 23.3518 55.0563 23.3518C54.7134 23.3518 54.4771 23.0819 54.4771 22.7004C54.4771 22.3561 54.6207 22.1002 54.9821 22.049C55.3991 21.9932 55.793 21.8862 56.1729 21.7932V12.874H55.0192C54.7505 12.874 54.4215 12.6041 54.4215 12.1668C54.4215 11.7666 54.7458 11.4968 55.0192 11.4968H56.1729V8.03518C56.1729 7.74671 56.4416 7.43498 56.8586 7.43498C57.2756 7.43498 57.5258 7.74206 57.5258 8.03518V11.4968H58.661C58.9482 11.4968 59.2772 11.7666 59.2772 12.1668C59.2772 12.5995 58.9529 12.874 58.661 12.874H57.5258V21.3372C57.9057 21.1743 58.2857 21.0115 58.6285 20.7928C58.7166 20.7556 58.8092 20.737 58.8834 20.737C59.2077 20.737 59.481 20.9929 59.481 21.407C59.481 21.7141 59.3374 21.9141 59.1196 22.0397L59.115 22.049ZM70.5407 16.3774H64.207C64.0078 16.866 63.7205 17.3219 63.3591 17.7546H69.5677C70.309 17.7546 70.8835 18.3176 70.8835 19.0946V21.5047C70.8835 22.9749 70.0542 23.952 68.7522 23.952H67.58C67.3113 23.952 67.0379 23.7147 67.0379 23.3518C67.0379 22.9889 67.3066 22.7702 67.58 22.7702H68.502C69.2248 22.7702 69.6743 22.2631 69.6743 21.4675V19.3458C69.6743 19.1086 69.4936 18.9271 69.2573 18.9271H68.5901C67.7236 21.6629 65.4487 23.4402 63.0301 23.8729C62.9931 23.8729 62.956 23.8915 62.9236 23.8915C62.5807 23.8915 62.3629 23.5658 62.3629 23.2774C62.3629 23.0215 62.4695 22.7888 62.7429 22.733C64.9993 22.2631 66.7136 20.723 67.3808 18.9271H65.6109C64.7074 20.7742 62.3073 22.3143 60.4123 22.5888H60.3428C59.9814 22.5888 59.7451 22.2445 59.7451 21.956C59.7451 21.6489 59.9629 21.4116 60.1946 21.3744C61.9459 21.0487 63.5676 19.9972 64.2904 18.9271H62.0896C61.7282 19.197 60.7737 19.7599 60.3011 19.7599C59.9583 19.7599 59.671 19.4342 59.671 19.0899C59.671 18.7829 59.8702 18.5828 60.1019 18.5084C61.4178 18.1268 62.4139 17.2754 62.8263 16.3681H60.2455C59.9768 16.3681 59.7034 16.1495 59.7034 15.754C59.7034 15.4283 59.9722 15.191 60.2455 15.191H70.5314C70.7816 15.191 71.055 15.4283 71.055 15.754C71.055 16.1541 70.7862 16.3681 70.5314 16.3681L70.5407 16.3774ZM69.058 13.8417H61.6958C60.9544 13.8417 60.3799 13.2787 60.3799 12.5018V9.31001C60.3799 8.53302 60.9591 7.95143 61.6958 7.95143H69.058C69.7993 7.95143 70.3739 8.53302 70.3739 9.31001V12.5018C70.3739 13.2787 69.7947 13.8417 69.058 13.8417ZM69.0256 9.49147C69.0256 9.25418 68.8449 9.05877 68.6086 9.05877H62.1637C61.9089 9.05877 61.7282 9.25883 61.7282 9.49147V10.3801H69.021V9.49147H69.0256ZM69.0256 11.413H61.7328V12.3203C61.7328 12.5576 61.9135 12.753 62.1683 12.753H68.6132C68.8495 12.753 69.0302 12.5529 69.0302 12.3203V11.413H69.0256Z" fill="#333333"/>
<path d="M88.4251 15.9587C87.6328 15.9587 85.7888 14.8188 85.1587 14.3442C85.2467 14.4698 85.3023 14.6327 85.3023 14.7955C85.3023 15.177 85.066 15.4841 84.7046 15.4841H77.0504C76.689 15.4841 76.4527 15.1584 76.4527 14.7769C76.4527 14.7397 76.4713 14.6885 76.4898 14.6327C75.7856 15.0654 73.9971 16.0099 73.1678 16.0099C72.7693 16.0099 72.5006 15.754 72.5006 15.2654C72.5006 14.9398 72.6442 14.7211 72.9315 14.6513C73.6913 14.4698 74.428 14.2 75.1323 13.8743L73.5801 11.627C73.3994 11.6829 73.2373 11.7713 73.038 11.7713C72.6766 11.7713 72.4079 11.4828 72.4079 11.0827C72.4079 10.8128 72.5701 10.5942 72.8249 10.5011C73.872 10.1568 74.8635 9.50543 75.4427 8.85405C75.8921 8.3283 76.4157 7.94678 77.0829 7.94678H80.8544C81.5957 7.94678 82.0266 8.34691 82.3185 9.01689C82.7679 10.087 83.6158 11.1897 84.6629 12.1714C86.2151 10.9943 86.8267 9.74271 86.8267 9.43564C86.8267 9.2914 86.7201 9.14717 86.4838 9.14717H83.9772C83.7594 9.14717 83.4536 8.90988 83.4536 8.54697C83.4536 8.18406 83.7594 7.94678 83.9772 7.94678H87.1C87.7672 7.94678 88.2537 8.43531 88.2537 8.97967C88.2537 9.88694 87.2622 11.6457 85.5988 12.9484C86.5533 13.6742 87.6375 14.2884 88.7402 14.6699C88.958 14.7443 89.1201 14.977 89.1201 15.2701C89.1201 15.6516 88.8514 15.9587 88.4159 15.9587H88.4251ZM88.3881 18.7689H81.8181V21.9606C81.8181 23.2494 81.2389 23.952 79.835 23.952H77.9956C77.6898 23.952 77.3979 23.6635 77.3979 23.2076C77.3979 22.7516 77.6852 22.5004 77.9956 22.5004H79.6543C80.0852 22.5004 80.3586 22.1933 80.3586 21.7932V18.7643H73.228C72.9037 18.7643 72.6303 18.4386 72.6303 18.0571C72.6303 17.6755 72.899 17.3871 73.228 17.3871H88.3881C88.7309 17.3871 88.9858 17.6941 88.9858 18.0571C88.9858 18.42 88.7495 18.7643 88.3881 18.7643V18.7689ZM76.6937 20.509C76.0821 21.6489 75.1786 22.8633 74.0759 23.7519C73.9322 23.8776 73.7515 23.9148 73.5708 23.9148C73.2095 23.9148 72.9546 23.5891 72.9546 23.2448C72.9546 23.0075 73.0612 22.826 73.2095 22.719C74.3446 21.849 75.0674 20.7416 75.6466 19.746C75.7902 19.4901 75.9338 19.4017 76.2443 19.4017C76.4805 19.4017 76.8234 19.6204 76.8234 20.0344C76.8234 20.1601 76.7863 20.3229 76.6983 20.5044L76.6937 20.509ZM75.8273 10.2126C75.4288 10.5755 74.9608 10.9198 74.4743 11.1897L76.0265 13.3997C76.55 13.074 77.0551 12.7297 77.5091 12.3482L75.8319 10.208L75.8273 10.2126ZM77.1802 9.14717C76.9809 9.14717 76.6937 9.31001 76.4944 9.51008L78.2273 11.7015C78.9871 10.9245 79.6173 10.0544 80.0667 9.14717H77.1802ZM81.2065 9.7241C80.3957 11.3572 78.9501 12.9298 77.2543 14.1302H84.7092C84.7973 14.1302 84.8714 14.1488 84.9455 14.186C83.3054 12.8972 81.9154 11.213 81.2111 9.72875L81.2065 9.7241ZM87.846 23.952C87.6653 23.952 87.4846 23.8776 87.3595 23.7333L84.8343 20.5276C84.7463 20.4206 84.6907 20.2717 84.6907 20.0763C84.6907 19.6948 85.0336 19.4063 85.3764 19.4063C85.5386 19.4063 85.7008 19.4808 85.8259 19.6436L88.3881 22.8354C88.4761 22.961 88.5132 23.0912 88.5132 23.2355C88.5132 23.617 88.2583 23.9613 87.846 23.9613V23.952Z" fill="#333333"/>
<path d="M68.4233 30.4937H66.848V30.9264L68.4325 32.1965C68.5067 32.2617 68.5391 32.3454 68.5391 32.4292C68.5391 32.6386 68.4001 32.7549 68.2657 32.7549C68.2101 32.7549 68.1592 32.7363 68.1082 32.699L66.8433 31.6057V33.4528C66.8433 33.5877 66.7182 33.7366 66.5283 33.7366C66.3383 33.7366 66.1993 33.5877 66.1993 33.4528V31.4707C65.8379 32.1733 65.3004 32.8386 64.7537 33.2015C64.7028 33.2434 64.6564 33.2574 64.5962 33.2574C64.4572 33.2574 64.3136 33.1224 64.3136 32.9317C64.3136 32.8386 64.3553 32.7502 64.4294 32.699C65.1985 32.2012 65.8333 31.3544 66.1298 30.4937H64.5545C64.4201 30.4937 64.2811 30.3773 64.2811 30.1866C64.2811 30.0144 64.4201 29.8888 64.5545 29.8888H66.1993V29.5166C66.1993 29.3817 66.3337 29.2281 66.5283 29.2281C66.7229 29.2281 66.8433 29.3863 66.8433 29.5166V29.8888H68.4186C68.5437 29.8888 68.692 30.0144 68.692 30.1866C68.692 30.3773 68.5437 30.4937 68.4186 30.4937H68.4233ZM68.5159 26.7762C67.6078 27.0739 66.0696 27.1996 64.5545 27.1996C64.397 27.1996 64.2997 27.0646 64.2997 26.9018C64.2997 26.739 64.4062 26.604 64.5545 26.604C65.9908 26.604 67.543 26.497 68.3769 26.1992C68.4001 26.1899 68.4279 26.1806 68.4511 26.1806C68.6086 26.1806 68.7059 26.3528 68.7059 26.4877C68.7059 26.6273 68.6318 26.7436 68.5159 26.7762ZM65.2032 29.1909C65.0456 29.1909 64.9391 29.1072 64.9298 28.9769C64.8881 28.5768 64.7815 28.1208 64.6657 27.7579C64.6564 27.7346 64.6564 27.7067 64.6564 27.6834C64.6564 27.5578 64.7537 27.4369 64.9391 27.4369C65.0781 27.4369 65.1707 27.5206 65.2032 27.609C65.3282 27.9905 65.4441 28.4884 65.4904 28.9025V28.935C65.4904 29.0839 65.3514 29.1909 65.2032 29.1909ZM66.5422 29.1304C66.4032 29.1304 66.2873 29.0467 66.2688 28.9164C66.2364 28.5349 66.1298 28.0464 66.0047 27.6881C65.9954 27.6648 65.9954 27.6462 65.9954 27.623C65.9954 27.4973 66.1113 27.3764 66.2827 27.3764C66.4171 27.3764 66.5236 27.4601 66.5468 27.5439C66.6719 27.9254 66.7877 28.4325 66.8341 28.8373V28.8606C66.8341 29.0188 66.6951 29.1351 66.5375 29.1351L66.5422 29.1304ZM68.4557 27.5904L67.9692 29.0188C67.9275 29.1258 67.8302 29.2002 67.7144 29.2002C67.5476 29.2002 67.4179 29.0746 67.4179 28.935C67.4179 28.9118 67.4179 28.8838 67.4271 28.8606L67.9229 27.4276C67.9553 27.3298 68.0619 27.2601 68.1777 27.2601C68.326 27.2601 68.465 27.3671 68.465 27.516C68.465 27.5392 68.465 27.5671 68.4557 27.5904ZM71.7407 26.8832L69.387 28.0789C69.3453 28.0975 69.3036 28.1022 69.2619 28.1022C69.0812 28.1022 68.9561 27.9021 68.9561 27.7439C68.9561 27.6044 69.0117 27.488 69.1275 27.4276L71.472 26.2597C71.5044 26.2411 71.5461 26.2365 71.5785 26.2365C71.7361 26.2365 71.8936 26.3854 71.8936 26.5947C71.8936 26.7296 71.8287 26.8506 71.7361 26.8832H71.7407ZM71.7407 29.5957L69.387 30.7914C69.3546 30.81 69.3129 30.81 69.2804 30.81C69.0997 30.81 68.9561 30.6193 68.9561 30.4518C68.9561 30.3122 69.0117 30.2052 69.1275 30.1447L71.472 28.9676C71.5044 28.949 71.5368 28.9443 71.5785 28.9443C71.7268 28.9443 71.8936 29.0932 71.8936 29.3072C71.8936 29.4422 71.8287 29.5538 71.7361 29.5957H71.7407ZM71.7407 32.3268L69.387 33.504C69.3453 33.5226 69.3129 33.5272 69.2712 33.5272C69.0997 33.5272 68.9561 33.3178 68.9561 33.1643C68.9561 33.0387 69.0117 32.9224 69.1275 32.8665L71.472 31.6987C71.5044 31.6801 71.5461 31.6754 71.5785 31.6754C71.7361 31.6754 71.8936 31.815 71.8936 32.0337C71.8936 32.1686 71.8287 32.2896 71.7361 32.3315L71.7407 32.3268Z" fill="#333333"/>
<path d="M77.12 27.609H74.669C74.4697 29.2328 74.1917 31.5219 74.0805 32.5176C74.062 32.6665 73.9415 32.8014 73.6774 32.8014C73.4133 32.8014 73.3068 32.6665 73.3068 32.5455V32.4897C73.4226 31.4521 73.6867 29.1909 73.8859 27.6137H73.4411C73.2604 27.6137 73.1585 27.516 73.1585 27.2554C73.1585 26.9949 73.2558 26.8925 73.4411 26.8925H73.9879C74.0203 26.5529 74.0203 26.3714 74.4419 26.3714C74.6875 26.3714 74.7987 26.4691 74.7987 26.618C74.7987 26.6413 74.7987 26.6692 74.7894 26.6831C74.7802 26.7483 74.7709 26.8227 74.7663 26.8925H77.1292C77.296 26.8925 77.4165 26.9995 77.4165 27.2554C77.4165 27.5113 77.2914 27.6137 77.1292 27.6137L77.12 27.609ZM80.1687 31.2893C80.0528 31.2893 79.6497 31.0892 79.5061 31.0334V31.3172C79.5061 32.6525 78.8713 33.4388 77.3007 33.4388C75.9709 33.4388 75.2203 32.8479 75.2203 31.7313C75.2203 30.6146 76.0636 29.94 77.4165 29.94C77.8937 29.94 78.357 29.9958 78.7879 30.0889V28.5535C78.7879 28.386 78.8852 28.2557 79.1447 28.2557C79.4042 28.2557 79.5061 28.3907 79.5061 28.5535V30.2797C79.7378 30.3541 79.9602 30.4285 80.1687 30.5123C80.3401 30.5774 80.4235 30.6937 80.4235 30.9124C80.4235 31.159 80.3169 31.2939 80.1687 31.2939V31.2893ZM78.7879 30.8101C78.3339 30.6937 77.8798 30.6379 77.4675 30.6379C76.5779 30.6379 75.9385 30.9636 75.9385 31.7173C75.9385 32.3454 76.4111 32.7549 77.3331 32.7549C78.3802 32.7549 78.7879 32.2756 78.7879 31.2521V30.8147V30.8101ZM80.0111 27.4648H78.6721C78.5053 27.4648 78.3848 27.3671 78.3848 27.1065C78.3848 26.846 78.5099 26.7436 78.6721 26.7436H80.0111C80.1779 26.7436 80.3077 26.8506 80.3077 27.1065C80.3077 27.3624 80.1733 27.4648 80.0111 27.4648Z" fill="#333333"/>
<path d="M88.5317 27.6648H87.7811V29.284C88.212 29.6469 88.4344 30.1726 88.4344 30.8612C88.4344 32.6013 87.0212 33.4249 84.3293 33.4249H82.5548C82.3833 33.4249 82.2258 33.3085 82.2258 33.0619C82.2258 32.8154 82.3833 32.699 82.5548 32.699H84.3803C86.5347 32.699 87.6606 32.2105 87.6606 30.8566C87.6606 30.6658 87.6375 30.4983 87.5958 30.3401C87.2344 31.0706 86.3263 31.5405 84.8112 31.5405C83.0366 31.5405 82.2351 31.0101 82.2351 30.1215C82.2351 29.149 83.3424 28.5768 85.1355 28.5768C85.8861 28.5768 86.5208 28.6698 87.0259 28.8513V27.6648H82.0961C81.9293 27.6648 81.781 27.5671 81.781 27.3159C81.781 27.0646 81.9293 26.9576 82.0961 26.9576H87.0259V26.6413C87.0259 26.4691 87.1417 26.3667 87.4058 26.3667C87.6699 26.3667 87.7857 26.4645 87.7857 26.6413V26.9576H88.5363C88.7031 26.9576 88.8236 27.0646 88.8236 27.3159C88.8236 27.5671 88.6985 27.6648 88.5363 27.6648H88.5317ZM85.1401 29.1304C83.8521 29.1304 83.0366 29.4933 83.0366 30.0749C83.0366 30.6146 83.5741 30.945 84.8529 30.945C86.2892 30.945 86.9749 30.4658 87.0166 29.5445C86.5811 29.2561 85.9371 29.1304 85.1401 29.1304Z" fill="#333333"/>
</g>
<path d="M97.5431 13.55C98.1042 13.51 98.6854 13.51 99.2465 13.45C100.309 13.31 101.17 13.17 102.233 12.81C102.353 12.77 102.533 12.71 102.633 12.71C102.734 12.71 102.754 12.85 102.754 12.93V26.49C102.754 27.29 103.215 27.59 103.976 27.59H104.497V28.25H97.5231V27.59H98.0441C98.8057 27.59 99.2666 27.29 99.2666 26.49V15.31C99.2666 14.35 98.6654 14.21 97.8437 14.21H97.5431V13.55ZM105.359 13.55C105.92 13.51 106.501 13.51 107.062 13.45C108.124 13.31 108.986 13.17 110.048 12.81C110.169 12.77 110.349 12.71 110.449 12.71C110.549 12.71 110.569 12.85 110.569 12.93V26.49C110.569 27.29 111.03 27.59 111.792 27.59H112.313V28.25H105.339V27.59H105.86C106.621 27.59 107.082 27.29 107.082 26.49V15.31C107.082 14.35 106.481 14.21 105.659 14.21H105.359V13.55ZM114.778 28.65C113.776 28.65 112.934 27.81 112.934 26.79C112.934 25.79 113.776 24.95 114.778 24.95C115.8 24.95 116.642 25.79 116.642 26.79C116.642 27.81 115.8 28.65 114.778 28.65Z" fill="#333333"/>
<path d="M135.71 28.25H122.664V27.38C123.656 25.04 125.069 22.91 126.481 20.81C128.706 17.54 131.321 14.18 131.321 10.07C131.321 8.27 130.69 6.05 128.496 6.05C127.534 6.05 125.91 6.89 125.91 7.97C125.91 8.24 126.091 8.39 126.692 8.54C127.774 8.84 128.465 9.77 128.465 10.88C128.465 12.32 127.353 13.67 125.85 13.67C124.317 13.67 123.235 12.23 123.235 10.76C123.235 9.38 123.836 8 124.798 6.98C126.151 5.57 128.135 4.94 130.059 4.94C133.456 4.94 136.582 7.13 136.582 10.76C136.582 13.73 134.688 15.59 132.524 17.33C130.75 18.74 128.946 20.18 127.504 21.92C127.083 22.43 126.692 22.94 126.271 23.45H131.231C132.283 23.45 133.335 23.24 134.237 22.7C135.169 22.16 135.56 21.32 135.981 20.39L136.973 20.6L135.71 28.25ZM150.74 28.25H137.694V27.38C138.686 25.04 140.099 22.91 141.512 20.81C143.736 17.54 146.352 14.18 146.352 10.07C146.352 8.27 145.72 6.05 143.526 6.05C142.564 6.05 140.941 6.89 140.941 7.97C140.941 8.24 141.121 8.39 141.722 8.54C142.804 8.84 143.496 9.77 143.496 10.88C143.496 12.32 142.384 13.67 140.88 13.67C139.347 13.67 138.265 12.23 138.265 10.76C138.265 9.38 138.866 8 139.828 6.98C141.181 5.57 143.165 4.94 145.089 4.94C148.486 4.94 151.612 7.13 151.612 10.76C151.612 13.73 149.718 15.59 147.554 17.33C145.78 18.74 143.977 20.18 142.534 21.92C142.113 22.43 141.722 22.94 141.301 23.45H146.261C147.313 23.45 148.366 23.24 149.267 22.7C150.199 22.16 150.59 21.32 151.011 20.39L152.003 20.6L150.74 28.25Z" fill="#333333"/>
<path d="M190.821 28.25H177.775V27.38C178.767 25.04 180.18 22.91 181.593 20.81C183.817 17.54 186.432 14.18 186.432 10.07C186.432 8.27 185.801 6.05 183.607 6.05C182.645 6.05 181.021 6.89 181.021 7.97C181.021 8.24 181.202 8.39 181.803 8.54C182.885 8.84 183.577 9.77 183.577 10.88C183.577 12.32 182.464 13.67 180.961 13.67C179.428 13.67 178.346 12.23 178.346 10.76C178.346 9.38 178.947 8 179.909 6.98C181.262 5.57 183.246 4.94 185.17 4.94C188.567 4.94 191.693 7.13 191.693 10.76C191.693 13.73 189.799 15.59 187.635 17.33C185.861 18.74 184.058 20.18 182.615 21.92C182.194 22.43 181.803 22.94 181.382 23.45H186.342C187.394 23.45 188.446 23.24 189.348 22.7C190.28 22.16 190.671 21.32 191.092 20.39L192.084 20.6L190.821 28.25ZM200.681 16.01C202.244 16.34 203.747 16.76 205.01 17.81C206.393 18.98 206.964 20.45 206.964 22.22C206.964 26.69 203.747 28.85 199.539 28.85C197.615 28.85 195.511 28.4 194.128 26.99C193.376 26.24 192.956 25.19 192.956 24.14C192.956 22.7 193.978 21.32 195.511 21.32C196.833 21.32 198.036 22.4 198.036 23.78C198.036 24.8 197.344 25.82 196.322 26.03C196.142 26.06 195.992 26.21 195.992 26.39C195.992 27.23 197.404 27.74 198.246 27.74C199.358 27.74 200.26 27.17 200.831 26.24C201.493 25.19 201.673 22.76 201.673 21.47C201.673 19.52 201.312 16.7 198.787 16.7C198.396 16.7 198.036 16.76 197.675 16.76C197.254 16.76 196.924 16.46 196.924 16.04C196.924 15.59 197.254 15.32 197.675 15.32C198.036 15.32 198.396 15.38 198.757 15.38C201.072 15.38 201.102 12.26 201.102 10.58C201.102 8.9 200.892 6.02 198.637 6.02C198.036 6.02 196.984 6.29 196.984 7.07C196.984 7.34 197.194 7.43 197.374 7.52C198.126 7.94 198.577 8.69 198.577 9.53C198.577 10.94 197.555 12.11 196.112 12.11C194.639 12.11 193.647 10.88 193.647 9.47C193.647 8.48 194.098 7.52 194.789 6.77C196.112 5.42 198.126 4.94 199.99 4.94C203.417 4.94 206.212 6.65 206.212 10.34C206.212 11.87 205.671 13.34 204.499 14.36C203.387 15.29 202.064 15.71 200.681 16.01Z" fill="#333333"/>
<path d="M245.932 28.25H232.886V27.38C233.878 25.04 235.291 22.91 236.704 20.81C238.928 17.54 241.543 14.18 241.543 10.07C241.543 8.27 240.912 6.05 238.718 6.05C237.756 6.05 236.133 6.89 236.133 7.97C236.133 8.24 236.313 8.39 236.914 8.54C237.996 8.84 238.688 9.77 238.688 10.88C238.688 12.32 237.575 13.67 236.072 13.67C234.539 13.67 233.457 12.23 233.457 10.76C233.457 9.38 234.058 8 235.02 6.98C236.373 5.57 238.357 4.94 240.281 4.94C243.678 4.94 246.804 7.13 246.804 10.76C246.804 13.73 244.91 15.59 242.746 17.33C240.972 18.74 239.169 20.18 237.726 21.92C237.305 22.43 236.914 22.94 236.493 23.45H241.453C242.505 23.45 243.557 23.24 244.459 22.7C245.391 22.16 245.782 21.32 246.203 20.39L247.195 20.6L245.932 28.25ZM251.554 27.26H252.335C253.478 27.26 254.169 26.81 254.169 25.61V22.43H248.217V21.41L255.882 4.94H259.399V21.41H261.864V22.43H259.399V25.61C259.399 26.81 260.091 27.26 261.233 27.26H262.015V28.25H251.554V27.26ZM254.169 10.97L249.299 21.41H254.169V10.97Z" fill="#333333"/>
<path d="M171.778 10.75C171.778 15.5825 167.852 19.5 163.01 19.5C158.168 19.5 154.242 15.5825 154.242 10.75C154.242 5.91751 158.168 2 163.01 2C167.852 2 171.778 5.91751 171.778 10.75Z" fill="#333333"/>
<path d="M165.579 13.3363C165.424 13.5856 165.258 13.835 165.032 14.1319C165.008 14.1675 165.008 14.1913 165.068 14.1913C166.21 14.1675 167.067 14.1438 167.685 14.0963C167.733 14.0963 167.745 14.12 167.745 14.1556V15.3669C167.745 15.4025 167.733 15.4263 167.685 15.4263C166.698 15.355 165.091 15.3194 162.676 15.3194C160.248 15.3194 158.678 15.355 157.762 15.4263C157.726 15.4263 157.702 15.4025 157.702 15.3669V14.1556C157.702 14.12 157.726 14.0963 157.762 14.0963C158.297 14.1438 159.07 14.1675 160.106 14.1913C160.153 14.1913 160.153 14.1556 160.141 14.1319C159.915 13.645 159.618 13.1225 159.297 12.6475C159.273 12.6119 159.285 12.5881 159.32 12.5644L160.272 12.0419C160.308 12.03 160.332 12.03 160.356 12.0656C160.712 12.5288 161.093 13.1106 161.379 13.6688C161.391 13.6925 161.379 13.7281 161.355 13.74L160.582 14.1438C160.534 14.1675 160.534 14.1913 160.593 14.1913C160.998 14.1913 161.438 14.2031 161.926 14.2031C161.974 14.2031 161.986 14.1794 161.986 14.1438V11.9469C161.986 11.9112 161.974 11.8875 161.926 11.8875C160.546 11.8994 159.582 11.935 158.928 11.9944C158.892 11.9944 158.868 11.9706 158.868 11.935V10.7712C158.868 10.7356 158.892 10.7119 158.928 10.7119C159.582 10.7712 160.534 10.8069 161.926 10.8187C161.974 10.8187 161.986 10.795 161.986 10.7594V9.97562C161.986 9.94 161.974 9.91625 161.926 9.91625C161.355 9.92812 160.891 9.95188 160.379 9.99938C160.344 9.99938 160.32 9.97562 160.32 9.94V9.26312C160.32 9.2275 160.296 9.21562 160.26 9.23937C159.63 9.73812 158.94 10.2012 158.178 10.6406C158.13 10.6644 158.095 10.6525 158.071 10.6288C157.785 10.32 157.393 9.99937 157.071 9.76187C157.024 9.72625 157 9.71437 157 9.7025C157 9.69062 157.012 9.67875 157.036 9.66687C159.13 8.72875 160.701 7.30375 161.498 6.14C161.783 5.72437 161.95 5.43937 162.057 5.0475C162.069 5.01187 162.081 5 162.105 5C162.117 5 162.128 5 162.176 5.01188C162.676 5.16625 163.235 5.38 163.556 5.53438C163.747 5.62938 163.723 5.8075 163.533 5.87875C163.497 5.89063 163.437 5.91438 163.473 5.97375C164.711 7.57688 166.412 8.71688 168.375 9.38188C168.411 9.39375 168.411 9.40563 168.411 9.4175C168.411 9.42938 168.399 9.44125 168.387 9.45312C167.995 9.77375 167.614 10.13 167.245 10.51C167.221 10.5337 167.186 10.5575 167.138 10.5338C166.412 10.1538 165.781 9.77375 165.222 9.39375C165.187 9.37 165.163 9.38188 165.163 9.4175V9.92812C165.163 9.96375 165.151 9.9875 165.103 9.9875C164.592 9.94 164.009 9.92812 163.378 9.91625C163.342 9.91625 163.318 9.94 163.318 9.97562V10.7594C163.318 10.795 163.342 10.8187 163.378 10.8187C164.711 10.8069 165.698 10.7831 166.412 10.7119C166.46 10.7119 166.472 10.7356 166.472 10.7712V11.935C166.472 11.9706 166.46 11.9944 166.412 11.9944C165.698 11.935 164.711 11.8994 163.378 11.8875C163.342 11.8875 163.318 11.9112 163.318 11.9469V14.1438C163.318 14.1794 163.342 14.2031 163.378 14.2031C163.806 14.2031 164.199 14.2031 164.568 14.1913C164.615 14.1913 164.603 14.1675 164.58 14.1556C164.354 14.0488 164.139 13.9538 163.89 13.8469C163.866 13.835 163.842 13.8113 163.878 13.7638C164.139 13.4431 164.354 13.075 164.532 12.7544C164.663 12.5169 164.746 12.2913 164.794 12.0775C164.806 12.03 164.83 12.03 164.865 12.0419C165.21 12.1725 165.781 12.4338 166.031 12.5644C166.222 12.6713 166.222 12.8375 166.019 12.9088C165.853 12.9681 165.734 13.0988 165.579 13.3363ZM162.652 6.92375C162.628 6.88813 162.593 6.88813 162.569 6.92375C162.045 7.58875 161.462 8.20625 160.808 8.77625C160.784 8.8 160.796 8.82375 160.82 8.82375C161.367 8.85937 161.95 8.87125 162.664 8.87125C163.306 8.87125 163.878 8.87125 164.413 8.83562C164.461 8.83562 164.473 8.82375 164.437 8.8C163.771 8.25375 163.199 7.64813 162.652 6.92375Z" fill="white"/>
<path d="M226.889 10.75C226.889 15.5825 222.963 19.5 218.121 19.5C213.279 19.5 209.354 15.5825 209.354 10.75C209.354 5.91751 213.279 2 218.121 2C222.963 2 226.889 5.91751 226.889 10.75Z" fill="#333333"/>
<path d="M218.842 10.6075C218.807 10.6075 218.783 10.6313 218.783 10.6669V14.1463C218.783 14.1819 218.807 14.2056 218.842 14.2056C220.532 14.1937 222.008 14.17 223.162 14.1106C223.209 14.1106 223.221 14.1344 223.221 14.17V15.4881C223.221 15.5237 223.209 15.5475 223.162 15.5475C221.865 15.4763 220.151 15.4525 218.152 15.4525C216.153 15.4525 214.392 15.4763 213.059 15.5475C213.024 15.5475 213 15.5237 213 15.4881V14.17C213 14.1344 213.024 14.1106 213.059 14.1106C214.202 14.17 215.642 14.1937 217.307 14.2056C217.355 14.2056 217.367 14.1819 217.367 14.1463V10.6669C217.367 10.6313 217.355 10.6075 217.307 10.6075C216.058 10.6194 214.999 10.6431 214.095 10.7025C214.059 10.7025 214.035 10.6787 214.035 10.6431V9.26563C214.035 9.23 214.059 9.20625 214.095 9.20625C214.999 9.26563 216.046 9.28938 217.307 9.30125C217.355 9.30125 217.367 9.2775 217.367 9.24188V8.16125C217.367 7.36563 217.319 6.62938 217.212 6.07125C217.2 6.02375 217.236 6 217.272 6C217.748 6.0475 218.485 6.11875 218.842 6.17813C219.116 6.22563 219.14 6.39188 218.961 6.57C218.831 6.70063 218.783 7.02125 218.783 7.78125V9.24188C218.783 9.2775 218.807 9.30125 218.842 9.30125C220.187 9.28938 221.294 9.26563 222.246 9.20625C222.293 9.20625 222.305 9.23 222.305 9.26563V10.6431C222.305 10.6787 222.293 10.7025 222.246 10.7025C221.294 10.6431 220.187 10.6194 218.842 10.6075Z" fill="white"/>
<path d="M282 10.75C282 15.5825 278.075 19.5 273.232 19.5C268.39 19.5 264.465 15.5825 264.465 10.75C264.465 5.91751 268.39 2 273.232 2C278.075 2 282 5.91751 282 10.75Z" fill="#333333"/>
<path d="M276.687 15.8088C276.687 15.8444 276.663 15.8681 276.627 15.8681H275.247C275.211 15.8681 275.187 15.8444 275.187 15.8088V15.0013C275.187 14.9656 275.164 14.9419 275.128 14.9419H270.535C270.499 14.9419 270.475 14.9656 270.475 15.0013V15.8206C270.475 15.8562 270.452 15.88 270.416 15.88H269.059C269.024 15.88 269 15.8562 269 15.8206C269.071 14.74 269.119 12.9469 269.119 10.9638C269.119 8.95688 269.119 7.3775 269.095 6.05938C269.095 6.01188 269.119 6 269.155 6C270.345 6.02375 271.939 6.03563 272.831 6.03563C273.807 6.03563 275.342 6.02375 276.52 6C276.568 6 276.58 6.02375 276.58 6.05938C276.556 7.34188 276.556 8.86187 276.556 10.8331C276.556 13.1725 276.615 14.8469 276.687 15.8088ZM270.535 9.7525H275.128C275.164 9.7525 275.187 9.72875 275.187 9.69313V7.36563C275.187 7.33 275.164 7.30625 275.128 7.30625H270.535C270.499 7.30625 270.475 7.33 270.475 7.36563V9.69313C270.475 9.72875 270.499 9.7525 270.535 9.7525ZM275.128 11.0231H270.535C270.499 11.0231 270.475 11.0469 270.475 11.0825V13.6119C270.475 13.6475 270.499 13.6713 270.535 13.6713H275.128C275.164 13.6713 275.187 13.6475 275.187 13.6119V11.0825C275.187 11.0469 275.164 11.0231 275.128 11.0231Z" fill="white"/>
<defs>
<clipPath id="clip0_52_67">
<rect width="31" height="25" fill="white" transform="translate(0 4)"/>
</clipPath>
<clipPath id="clip1_52_67">
<rect width="52.5367" height="33.7273" fill="white" transform="translate(36.5927)"/>
</clipPath>
</defs>
</svg>
